<?xml version="1.0" encoding="utf-8"?>
<svg version="1.1" xmlns:xlink="http://www.w3.org/1999/xlink" width="20px" height="20px" xmlns="http://www.w3.org/2000/svg">
  <g transform="matrix(1 0 0 1 -712 -696 )">
    <path d="M 2.9625000000000004 16.42578125  C 3.1208333333333336 16.26519097222222  3.2 16.067708333333332  3.2 15.833333333333332  C 3.2 15.607638888888891  3.1208333333333336 15.412326388888891  2.9625000000000004 15.247395833333332  C 2.804166666666667 15.082465277777777  2.6166666666666667 15  2.4 15  C 2.175 15  1.9854166666666666 15.082465277777777  1.83125 15.247395833333332  C 1.6770833333333335 15.412326388888891  1.6 15.607638888888891  1.6 15.833333333333332  C 1.6 16.067708333333332  1.6770833333333335 16.26519097222222  1.83125 16.42578125  C 1.9854166666666666 16.58637152777778  2.175 16.666666666666668  2.4 16.666666666666668  C 2.6166666666666667 16.666666666666668  2.804166666666667 16.58637152777778  2.9625000000000004 16.42578125  Z M 4.9625 8.580729166666668  C 5.120833333333334 8.745659722222221  5.2 8.940972222222221  5.2 9.166666666666668  L 5.2 17.5  C 5.2 17.725694444444443  5.120833333333334 17.921006944444443  4.9625 18.0859375  C 4.804166666666667 18.250868055555557  4.616666666666667 18.333333333333332  4.4 18.333333333333332  L 0.8 18.333333333333332  C 0.5833333333333334 18.333333333333332  0.3958333333333333 18.250868055555557  0.2375 18.0859375  C 0.07916666666666666 17.921006944444443  0 17.725694444444443  0 17.5  L 0 9.166666666666668  C 0 8.940972222222221  0.07916666666666666 8.745659722222221  0.2375 8.580729166666668  C 0.3958333333333333 8.41579861111111  0.5833333333333334 8.333333333333332  0.8 8.333333333333332  L 4.4 8.333333333333332  C 4.616666666666667 8.333333333333332  4.804166666666667 8.41579861111111  4.9625 8.580729166666668  Z M 19.2875 7.408854166666668  C 19.7625 7.903645833333332  20 8.489583333333332  20 9.166666666666668  C 20 9.913194444444445  19.770833333333336 10.559895833333336  19.3125 11.106770833333336  C 19.437500000000004 11.488715277777777  19.5 11.81857638888889  19.5 12.096354166666664  C 19.525000000000002 12.75607638888889  19.34583333333334 13.350694444444443  18.9625 13.880208333333336  C 19.104166666666668 14.366319444444443  19.104166666666668 14.874131944444443  18.9625 15.403645833333332  C 18.8375 15.8984375  18.6125 16.30642361111111  18.2875 16.627604166666668  C 18.3625 17.59982638888889  18.158333333333335 18.385416666666668  17.675 18.984375  C 17.14166666666667 19.64409722222222  16.320833333333333 19.98263888888889  15.2125 20  L 14.762500000000001 20  L 13.8125 20  L 13.600000000000001 20  C 13.049999999999999 20  12.450000000000001 19.932725694444443  11.799999999999999 19.798177083333332  C 11.15 19.66362847222222  10.64375 19.537760416666668  10.28125 19.420572916666668  C 9.91875 19.303385416666668  9.416666666666668 19.131944444444443  8.774999999999999 18.90625  C 7.75 18.53298611111111  7.091666666666667 18.34201388888889  6.800000000000001 18.333333333333332  C 6.583333333333334 18.32465277777778  6.395833333333334 18.24001736111111  6.237500000000001 18.079427083333332  C 6.079166666666667 17.918836805555557  6.000000000000001 17.725694444444443  6 17.5  L 6 9.153645833333332  C 6.000000000000001 8.936631944444445  6.075 8.747829861111109  6.2250000000000005 8.587239583333332  C 6.375000000000001 8.426649305555555  6.554166666666667 8.337673611111109  6.7625 8.3203125  C 6.9625 8.302951388888886  7.279166666666668 8.046874999999998  7.7125 7.552083333333332  C 8.145833333333334 7.057291666666665  8.566666666666666 6.532118055555554  8.975 5.9765625  C 9.541666666666668 5.221354166666668  9.962500000000002 4.700520833333332  10.237499999999999 4.4140625  C 10.387500000000001 4.2578125  10.516666666666667 4.049479166666668  10.625 3.7890625  C 10.733333333333334 3.5286458333333326  10.806249999999999 3.3181423611111094  10.84375 3.1575520833333326  C 10.88125 2.9969618055555536  10.9375 2.734375  11.012500000000001 2.3697916666666674  C 11.070833333333335 2.03125  11.122916666666669 1.7664930555555536  11.168750000000001 1.5755208333333326  C 11.214583333333334 1.3845486111111094  11.295833333333334 1.1588541666666674  11.412500000000001 0.8984375  C 11.529166666666669 0.6380208333333326  11.670833333333334 0.4210069444444442  11.8375 0.2473958333333326  C 11.995833333333334 0.08246527777777679  12.183333333333335 0  12.4 0  C 12.783333333333333 0  13.127083333333333 0.04557291666666741  13.431249999999999 0.13671875  C 13.73541666666667 0.2278645833333326  13.985416666666667 0.3407118055555536  14.18125 0.4752604166666674  C 14.377083333333333 0.6098090277777768  14.54375 0.7855902777777768  14.681249999999999 1.0026041666666674  C 14.818750000000001 1.2196180555555536  14.918750000000001 1.4149305555555536  14.98125 1.5885416666666674  C 15.04375 1.7621527777777768  15.09375 1.9791666666666674  15.131250000000001 2.2395833333333326  C 15.16875 2.5  15.189583333333335 2.6953125  15.19375 2.8255208333333326  C 15.197916666666668 2.9557291666666674  15.2 3.125  15.2 3.3333333333333326  C 15.2 3.663194444444444  15.16041666666667 3.9930555555555536  15.081249999999999 4.322916666666668  C 15.002083333333333 4.652777777777777  14.922916666666667 4.913194444444445  14.84375 5.104166666666668  C 14.764583333333334 5.295138888888886  14.65 5.538194444444445  14.5 5.833333333333332  C 14.475 5.885416666666668  14.433333333333334 5.963541666666668  14.375 6.067708333333332  C 14.316666666666668 6.171875  14.270833333333336 6.267361111111109  14.2375 6.354166666666668  C 14.20416666666667 6.440972222222221  14.170833333333334 6.545138888888886  14.137500000000001 6.666666666666668  L 17.6 6.666666666666668  C 18.25 6.666666666666668  18.8125 6.9140625  19.2875 7.408854166666668  Z " fill-rule="nonzero" fill="#d9001b" stroke="none" transform="matrix(1 0 0 1 712 696 )" />
  </g>
</svg>