<?xml version="1.0" encoding="utf-8"?>
<svg version="1.1" xmlns:xlink="http://www.w3.org/1999/xlink" width="21px" height="29px" xmlns="http://www.w3.org/2000/svg">
  <g transform="matrix(1 0 0 1 -311 -959 )">
    <path d="M 20.653645833333332 11.484975961538462  C 20.884548611111114 11.705729166666664  21 11.967147435897433  21 12.26923076923077  L 21 14.5  C 21 17.067708333333332  20.103732638888893 19.301382211538463  18.311197916666668 21.201021634615387  C 16.518663194444446 23.100661057692307  14.303819444444445 24.189903846153847  11.666666666666668 24.46875  L 11.666666666666668 26.76923076923077  L 16.333333333333332 26.76923076923077  C 16.649305555555557 26.76923076923077  16.922743055555557 26.87960737179487  17.153645833333332 27.100360576923077  C 17.384548611111114 27.32111378205128  17.500000000000004 27.582532051282055  17.5 27.884615384615387  C 17.500000000000004 28.18669871794872  17.384548611111114 28.448116987179485  17.153645833333332 28.66887019230769  C 16.922743055555557 28.8896233974359  16.649305555555557 29  16.333333333333332 29  L 4.666666666666666 29  C 4.350694444444445 29  4.077256944444445 28.8896233974359  3.8463541666666665 28.66887019230769  C 3.6154513888888884 28.448116987179485  3.5 28.18669871794872  3.5 27.884615384615387  C 3.5 27.582532051282055  3.6154513888888884 27.32111378205128  3.8463541666666665 27.100360576923077  C 4.077256944444445 26.87960737179487  4.350694444444445 26.76923076923077  4.666666666666666 26.76923076923077  L 9.333333333333332 26.76923076923077  L 9.333333333333332 24.46875  C 6.696180555555556 24.189903846153847  4.481336805555556 23.100661057692307  2.6888020833333335 21.201021634615387  C 0.896267361111111 19.301382211538463  0 17.067708333333332  0 14.5  L 0 12.26923076923077  C 0 11.967147435897433  0.1154513888888889 11.705729166666664  0.3463541666666667 11.484975961538462  C 0.5772569444444444 11.264222756410255  0.8506944444444445 11.153846153846153  1.1666666666666665 11.153846153846153  C 1.482638888888889 11.153846153846153  1.756076388888889 11.264222756410255  1.9869791666666665 11.484975961538462  C 2.2178819444444446 11.705729166666664  2.333333333333333 11.967147435897433  2.333333333333333 12.26923076923077  L 2.333333333333333 14.5  C 2.333333333333333 16.6494391025641  3.1323784722222228 18.488080929487175  4.73046875 20.01592548076923  C 6.328559027777779 21.543770032051277  8.25173611111111 22.307692307692307  10.5 22.307692307692307  C 12.74826388888889 22.307692307692307  14.671440972222221 21.543770032051277  16.26953125 20.01592548076923  C 17.86762152777778 18.488080929487175  18.666666666666664 16.6494391025641  18.666666666666664 14.5  L 18.666666666666664 12.26923076923077  C 18.666666666666664 11.967147435897433  18.782118055555557 11.705729166666664  19.013020833333332 11.484975961538462  C 19.243923611111114 11.264222756410255  19.517361111111114 11.153846153846153  19.833333333333332 11.153846153846153  C 20.14930555555556 11.153846153846153  20.422743055555557 11.264222756410255  20.653645833333332 11.484975961538462  Z M 14.619791666666668 1.6382211538461529  C 15.762152777777779 2.730368589743588  16.333333333333332 4.043269230769229  16.333333333333332 5.576923076923077  L 16.333333333333332 14.5  C 16.333333333333332 16.033653846153847  15.762152777777779 17.346554487179485  14.619791666666668 18.438701923076923  C 13.477430555555557 19.530849358974358  12.104166666666666 20.076923076923077  10.5 20.076923076923077  C 8.895833333333334 20.076923076923077  7.522569444444446 19.530849358974358  6.380208333333333 18.438701923076923  C 5.237847222222223 17.346554487179485  4.666666666666666 16.033653846153847  4.666666666666666 14.5  L 4.666666666666666 5.576923076923077  C 4.666666666666666 4.043269230769229  5.237847222222223 2.730368589743588  6.380208333333333 1.6382211538461529  C 7.522569444444446 0.5460737179487208  8.895833333333334 0  10.5 0  C 12.104166666666666 0  13.477430555555557 0.5460737179487208  14.619791666666668 1.6382211538461529  Z " fill-rule="nonzero" fill="#000000" stroke="none" transform="matrix(1 0 0 1 311 959 )" />
  </g>
</svg>