<?xml version="1.0" encoding="utf-8"?>
<svg version="1.1" xmlns:xlink="http://www.w3.org/1999/xlink" width="29px" height="25px" xmlns="http://www.w3.org/2000/svg">
  <g transform="matrix(1 0 0 1 -310 -502 )">
    <path d="M 21.93680981595092 16.93638392857143  L 20.63803680981595 19.97767857142857  L 23.78711656441718 19.97767857142857  L 22.506134969325153 16.93638392857143  L 22.292638036809816 16.280691964285715  C 22.268916155419223 16.13188244047619  22.257055214723927 16.038876488095237  22.257055214723927 16.001674107142858  L 22.18588957055215 16.001674107142858  L 22.132515337423314 16.280691964285715  C 22.132515337423314 16.289992559523807  22.111758691206546 16.373697916666664  22.070245398773007 16.531808035714285  C 22.028732106339472 16.689918154761905  21.98425357873211 16.824776785714285  21.93680981595092 16.93638392857143  Z M 12.38282208588957 19.76841517857143  C 12.48957055214724 19.852120535714285  12.542944785276074 19.959077380952383  12.542944785276074 20.089285714285715  C 12.542944785276074 20.200892857142858  12.483640081799592 20.3125  12.365030674846626 20.424107142857142  L 6.68957055214724 24.874441964285715  C 6.570961145194275 24.958147321428573  6.434560327198364 25  6.280368098159509 25  C 6.138036809815951 25  6.0016359918200415 24.958147321428573  5.871165644171779 24.874441964285715  L 0.17791411042944785 20.41015625  C 0 20.261346726190478  -0.04151329243353781 20.09858630952381  0.05337423312883435 19.921875  C 0.14826175869120659 19.735863095238095  0.32617586912065444 19.642857142857142  0.587116564417178 19.642857142857142  L 4 19.642857142857142  L 4 0.4464285714285726  C 4.003067484662577 0.3162202380952356  4.056441717791411 0.20926339285714246  4.16319018404908 0.12555803571428492  C 4.269938650306749 0.04185267857142738  4.406339468302659 0  4.57239263803681 0  L 7.988343558282209 0  C 8.15439672801636 0  8.29079754601227 0.04185267857142738  8.397546012269938 0.12555803571428492  C 8.504294478527607 0.20926339285714246  8.557668711656442 0.3162202380952356  9 0.4464285714285726  L 9 19.642857142857142  L 11.97361963190184 19.642857142857142  C 12.139672801635992 19.642857142857142  12.276073619631902 19.68470982142857  12.38282208588957 19.76841517857143  Z M 27.754601226993866 23.521205357142858  L 29 23.521205357142858  L 29 25  L 23.876073619631903 25  L 23.876073619631903 23.521205357142858  L 25.21042944785276 23.521205357142858  L 24.374233128834355 21.512276785714285  L 20.050920245398775 21.512276785714285  L 19.214723926380366 23.521205357142858  L 20.549079754601227 23.521205357142858  L 20.549079754601227 25  L 15.442944785276074 25  L 15.442944785276074 23.521205357142858  L 16.68834355828221 23.521205357142858  L 20.78036809815951 14.285714285714285  L 23.662576687116562 14.285714285714285  L 27.754601226993866 23.521205357142858  Z M 25.263803680981596 7.463727678571427  L 27.416564417177913 7.463727678571427  L 27.416564417177913 11  L 17.02638036809816 11  L 17.02638036809816 9.458705357142858  L 23.591411042944785 2.0786830357142847  C 23.733742331288344 1.9112723214285725  23.858282208588957 1.785714285714285  23.965030674846627 1.7020089285714275  L 24.160736196319018 1.5764508928571423  L 24.160736196319018 1.534598214285715  C 24.137014314928425 1.534598214285715  24.09846625766871 1.5369233630952355  24.045092024539876 1.541573660714285  C 23.99171779141104 1.5462239583333315  23.94723926380368 1.5485491071428577  23.911656441717792 1.5485491071428577  C 23.769325153374233 1.5764508928571423  23.591411042944785 1.590401785714285  23.377914110429447 1.590401785714285  L 19.250306748466258 1.590401785714285  L 19.250306748466258 3.1947544642857153  L 17.115337423312884 3.1947544642857153  L 17.115337423312884 0  L 27.203067484662576 0  L 27.203067484662576 1.241629464285715  L 20.63803680981595 8.635602678571427  C 20.566871165644173 8.71000744047619  20.44233128834356 8.830915178571427  20.26441717791411 8.998325892857142  L 20.068711656441717 9.137834821428573  L 20.068711656441717 9.1796875  L 20.317791411042943 9.137834821428573  C 20.424539877300614 9.128534226190474  20.602453987730062 9.123883928571427  20.851533742331288 9.123883928571427  L 25.263803680981596 9.123883928571427  L 25.263803680981596 7.463727678571427  Z " fill-rule="nonzero" fill="#000000" stroke="none" transform="matrix(1 0 0 1 310 502 )" />
  </g>
</svg>