<?xml version="1.0" encoding="utf-8"?>
<svg version="1.1" xmlns:xlink="http://www.w3.org/1999/xlink" width="23px" height="23px" xmlns="http://www.w3.org/2000/svg">
  <g transform="matrix(1 0 0 1 -903 -128 )">
    <path d="M 22.453786906290116 10.75  C 22.81792896876338 11.15625  23.000000000000004 11.63020833333333  23 12.171875  C 23.000000000000004 12.703125  22.81792896876338 13.171875  22.453786906290116 13.578125  L 21.346598202824133 14.75  C 20.972614462986737 15.14583333333333  20.524818142918274 15.343750000000002  20.00320924261874 15.343750000000002  C 19.47175866495507 15.343750000000002  19.028883183568677 15.14583333333333  18.674582798459564 14.75  L 14 10.171874999999998  L 14 21.171875  C 14.334403080872914 21.713541666666668  14.14987163029525 22.153645833333332  13.780808729139922 22.4921875  C 13.411745827984594 22.830729166666668  12.96640992725717 23  12.444801026957638 23  L 10.555198973042362 23  C 10.033590072742834 23  9.588254172015404 22.830729166666668  9.219191270860078 22.4921875  C 8.85012836970475 22.153645833333332  8.665596919127086 21.713541666666668  9 21.171875  L 9 10.171874999999998  L 4.325417201540437 14.75  C 3.971116816431322 15.14583333333333  3.5282413350449295 15.343750000000002  2.996790757381258 15.343750000000002  C 2.4653401797175865 15.343750000000002  2.0224646983311936 15.14583333333333  1.6681643132220796 14.75  L 0.5609756097560976 13.578125  C 0.18699186991869926 13.182291666666666  0 12.713541666666666  0 12.171875  C 0 11.619791666666664  0.18699186991869926 11.145833333333332  0.5609756097560976 10.75  L 10.171373555840821 0.5781250000000003  C 10.515832263585796 0.1927083333333326  10.95870774497219 0  11.5 0  C 12.03145057766367 0  12.479246897732137 0.1927083333333326  12.843388960205392 0.5781250000000003  L 22.453786906290116 10.75  Z " fill-rule="nonzero" fill="#aaaaaa" stroke="none" transform="matrix(1 0 0 1 903 128 )" />
  </g>
</svg>