<?xml version="1.0" encoding="utf-8"?>
<svg version="1.1" xmlns:xlink="http://www.w3.org/1999/xlink" width="35px" height="36px" xmlns="http://www.w3.org/2000/svg">
  <g transform="matrix(1 0 0 1 -596 -552 )">
    <path d="M 21.46484375 22.078125  C 23.308794070512704 20.18149038461585  24.23076923076934 17.899038461538414  24.23076923076934 15.23076923076951  C 24.23076923076934 12.5625  23.308794070512704 10.28004807692317  21.46484375 8.383413461538415  C 19.620893429487296 6.48677884615366  17.401842948717956 5.5384615384615845  14.807692307692264 5.5384615384615845  C 12.213541666666572 5.5384615384615845  9.994491185897516 6.48677884615366  8.150540865384528 8.383413461538415  C 6.306590544871824 10.28004807692317  5.384615384615472 12.5625  5.384615384615472 15.23076923076951  C 5.384615384615472 17.899038461538414  6.306590544871824 20.18149038461585  8.150540865384528 22.078125  C 9.994491185897516 23.97475961538415  12.213541666666572 24.92307692307683  14.807692307692264 24.92307692307683  C 17.401842948717956 24.92307692307683  19.620893429487296 23.97475961538415  21.46484375 22.078125  Z M 34.221754807692264 31.283653846153662  C 34.740584935897516 31.817307692307928  35 32.46634615384634  35 33.23076923076951  C 35 33.98076923076951  34.733573717948616 34.62980769230793  34.20072115384613 35.17788461538415  C 33.66786858974365 35.72596153846158  33.03685897435912 36  32.307692307692264 36  C 31.55048076923066 36  30.919471153846132 35.72596153846158  30.414663461538396 35.17788461538415  L 23.200120192307736 27.778846153846338  C 20.690104166666572 29.567307692307928  17.892628205128176 30.461538461538414  14.807692307692264 30.461538461538414  C 12.802483974358836 30.461538461538414  10.884915865384528 30.06129807692317  9.05498798076934 29.260817307692076  C 7.225060096153868 28.460336538461586  5.647536057692264 27.37860576923049  4.322415865384528 26.015625  C 2.997295673076792 24.65264423076951  1.94561298076934 23.03004807692317  1.167367788461604 21.147836538461586  C 0.389122596153868 19.265625  0 17.29326923076951  0 15.23076923076951  C 0 13.16826923076951  0.389122596153868 11.195913461538415  1.167367788461604 9.313701923076831  C 1.94561298076934 7.431490384615851  2.997295673076792 5.808894230769511  4.322415865384528 4.445913461538415  C 5.647536057692264 3.0829326923079257  7.225060096153868 2.0012019230768296  9.05498798076934 1.2007211538463405  C 10.884915865384528 0.400240384615851  12.802483974358836 0  14.807692307692264 0  C 16.812900641025692 0  18.73046875 0.400240384615851  20.560396634615472 1.2007211538463405  C 22.39032451923066 2.0012019230768296  23.967848557692264 3.0829326923079257  25.29296875 4.445913461538415  C 26.618088942307736 5.808894230769511  27.669771634615472 7.431490384615851  28.448016826923208 9.313701923076831  C 29.22626201923066 11.195913461538415  29.615384615384528 13.16826923076951  29.615384615384528 15.23076923076951  C 29.615384615384528 18.40384615384634  28.745993589743648 21.28125  27.007211538461604 23.86298076923049  L 34.221754807692264 31.283653846153662  Z " fill-rule="nonzero" fill="#000000" stroke="none" transform="matrix(1 0 0 1 596 552 )" />
  </g>
</svg>