<?xml version="1.0" encoding="utf-8"?>
<svg version="1.1" xmlns:xlink="http://www.w3.org/1999/xlink" width="34px" height="37px" xmlns="http://www.w3.org/2000/svg">
  <g transform="matrix(1 0 0 1 -869 -561 )">
    <path d="M 33.43923611111111 14.653245192307866  C 33.81307870370363 14.934895833333332  34 15.2684294871794  34 15.653846153846068  L 34 18.5  C 34 21.776041666666664  32.54890046296303 24.625901442307864  29.64670138888889 27.049579326923034  C 26.744502314814746 29.473257211538204  23.158564814814746 30.862980769230898  18.88888888888889 31.21875  L 18.88888888888889 34.15384615384607  L 26.444444444444446 34.15384615384607  C 26.95601851851859 34.15384615384607  27.398726851851926 34.2946714743588  27.772569444444446 34.57632211538483  C 28.146412037036963 34.8579727564103  28.333333333333336 35.191506410256366  28.333333333333336 35.57692307692303  C 28.333333333333336 35.9623397435897  28.146412037036963 36.29587339743577  27.772569444444446 36.577524038461796  C 27.398726851851926 36.85917467948727  26.95601851851859 37  26.444444444444446 37  L 7.555555555555555 37  C 7.04398148148141 37  6.601273148148076 36.85917467948727  6.227430555555555 36.577524038461796  C 5.853587962963035 36.29587339743577  5.666666666666666 35.9623397435897  5.666666666666666 35.57692307692303  C 5.666666666666666 35.191506410256366  5.853587962963035 34.8579727564103  6.227430555555555 34.57632211538483  C 6.601273148148076 34.2946714743588  7.04398148148141 34.15384615384607  7.555555555555555 34.15384615384607  L 15.11111111111111 34.15384615384607  L 15.11111111111111 31.21875  C 10.841435185185258 30.862980769230898  7.255497685185256 29.473257211538204  4.353298611111112 27.049579326923034  C 1.4510995370369655 24.625901442307864  0 21.776041666666664  0 18.5  L 0 15.653846153846068  C 0 15.2684294871794  0.18692129629636786 14.934895833333332  0.560763888888889 14.653245192307866  C 0.9346064814814099 14.371594551281834  1.3773148148147434 14.230769230769102  1.8888888888888888 14.230769230769102  C 2.4004629629630343 14.230769230769102  2.843171296296368 14.371594551281834  3.217013888888889 14.653245192307866  C 3.59085648148141 14.934895833333332  3.7777777777777777 15.2684294871794  3.7777777777777777 15.653846153846068  L 3.7777777777777777 18.5  C 3.7777777777777777 21.242387820512736  5.0714699074074785 23.588241185897566  7.658854166666666 25.537560096153932  C 10.246238425925855 27.486879006410298  13.359953703703633 28.461538461538204  17 28.461538461538204  C 20.64004629629637 28.461538461538204  23.753761574074144 27.486879006410298  26.341145833333336 25.537560096153932  C 28.92853009259252 23.588241185897566  30.22222222222222 21.242387820512736  30.22222222222222 18.5  L 30.22222222222222 15.653846153846068  C 30.22222222222222 15.2684294871794  30.40914351851859 14.934895833333332  30.78298611111111 14.653245192307866  C 31.15682870370363 14.371594551281834  31.599537037036963 14.230769230769102  32.11111111111111 14.230769230769102  C 32.622685185185254 14.230769230769102  33.06539351851859 14.371594551281834  33.43923611111111 14.653245192307866  Z M 23.67013888888889 2.0901442307691016  C 25.519675925925856 3.4835737179485022  26.444444444444446 5.158653846153933  26 7.115384615384832  L 26 18.5  C 26.444444444444446 20.456730769230898  25.519675925925856 22.131810897435766  23.67013888888889 23.525240384615167  C 21.820601851851926 24.91866987179513  19.59722222222222 25.615384615384833  17 25.615384615384833  C 14.402777777777777 25.615384615384833  12.179398148148078 24.91866987179513  10.32986111111111 23.525240384615167  C 8.480324074074145 22.131810897435766  7.555555555555555 20.456730769230898  8 18.5  L 8 7.115384615384832  C 7.555555555555555 5.158653846153933  8.480324074074145 3.4835737179485022  10.32986111111111 2.0901442307691016  C 12.179398148148078 0.6967147435897004  14.402777777777777 0  17 0  C 19.59722222222222 0  21.820601851851926 0.6967147435897004  23.67013888888889 2.0901442307691016  Z " fill-rule="nonzero" fill="#000000" stroke="none" transform="matrix(1 0 0 1 869 561 )" />
  </g>
</svg>