<?xml version="1.0" encoding="utf-8"?>
<svg version="1.1" xmlns:xlink="http://www.w3.org/1999/xlink" width="40px" height="37px" xmlns="http://www.w3.org/2000/svg">
  <g transform="matrix(1 0 0 1 -918 -561 )">
    <path d="M 24.53125 22.69140625  C 26.63862179487166 20.742087339744067  27.692307692307814 18.396233974358925  27.692307692307814 15.653846153846441  C 27.692307692307814 12.911458333333332  26.63862179487166 10.565604967948815  24.53125 8.61628605769226  C 22.42387820512834 6.666967147435706  19.88782051282052 5.69230769230774  16.923076923076874 5.69230769230774  C 13.958333333333226 5.69230769230774  11.422275641025731 6.666967147435706  9.314903846153745 8.61628605769226  C 7.207532051282085 10.565604967948815  6.1538461538462546 12.911458333333332  6.1538461538462546 15.653846153846441  C 6.1538461538462546 18.396233974358925  7.207532051282085 20.742087339744067  9.314903846153745 22.69140625  C 11.422275641025731 24.640725160255933  13.958333333333226 25.61538461538452  16.923076923076874 25.61538461538452  C 19.88782051282052 25.61538461538452  22.42387820512834 24.640725160255933  24.53125 22.69140625  Z M 39.11057692307687 32.15264423076904  C 39.703525641025735 32.70112179487204  40 33.368189102564294  40 34.153846153846445  C 40 34.92467948717977  39.695512820512704 35.59174679487204  39.08653846153844 36.1550480769226  C 38.477564102564166 36.71834935897441  37.756410256410426 37  36.92307692307687 37  C 36.057692307692186 37  35.33653846153844 36.71834935897441  34.75961538461531 36.1550480769226  L 26.51442307692313 28.55048076923096  C 23.645833333333222 30.388621794872037  20.448717948717917 31.307692307692257  16.923076923076874 31.307692307692257  C 14.631410256410097 31.307692307692257  12.439903846153745 30.89633413461548  10.348557692307818 30.0736177884613  C 8.257211538461563 29.250901442307743  6.454326923076873 28.139122596153555  4.939903846153746 26.73828125  C 3.4254807692306195 25.337439903846445  2.2235576923078173 23.66977163461548  1.3341346153846902 21.735276442307743  C 0.44471153846156347 19.80078125  0 17.77363782051311  0 15.653846153846441  C 0 13.534054487179773  0.44471153846156347 11.50691105769226  1.3341346153846902 9.57241586538452  C 2.2235576923078173 7.637920673077403  3.4254807692306195 5.970252403846441  4.939903846153746 4.5694110576922595  C 6.454326923076873 3.1685697115387015  8.257211538461563 2.0567908653845195  10.348557692307818 1.234074519230961  C 12.439903846153745 0.4113581730774024  14.631410256410097 0  16.923076923076874 0  C 19.214743589743648 0  21.40625 0.4113581730774024  23.497596153846253 1.234074519230961  C 25.588942307692186 2.0567908653845195  27.39182692307687 3.1685697115387015  28.90625 4.5694110576922595  C 30.42067307692313 5.970252403846441  31.622596153846253 7.637920673077403  32.51201923076938 9.57241586538452  C 33.401442307692186 11.50691105769226  33.84615384615375 13.534054487179773  33.84615384615375 15.653846153846441  C 33.84615384615375 18.915064102564294  32.852564102564166 21.872395833333336  30.86538461538469 24.525841346153555  L 39.11057692307687 32.15264423076904  Z " fill-rule="nonzero" fill="#000000" stroke="none" transform="matrix(1 0 0 1 918 561 )" />
  </g>
</svg>