<?xml version="1.0" encoding="utf-8"?>
<svg version="1.1" xmlns:xlink="http://www.w3.org/1999/xlink" width="23px" height="21px" xmlns="http://www.w3.org/2000/svg">
  <g transform="matrix(1 0 0 1 -762 -15 )">
    <path d="M 22.457912457912457 15.696969696969695  C 22.819304152637486 16.026936026936024  23 16.427609427609426  23 16.8989898989899  C 23 17.370370370370374  22.819304152637486 17.771043771043768  22.457912457912457 18.1010101010101  L 19.824915824915823 20.505050505050505  C 19.4635241301908 20.835016835016837  19.024691358024693 21  18.50841750841751 21  C 17.992143658810328 21  17.553310886644223 20.835016835016837  17.191919191919194 20.505050505050505  L 11.5 15.30808080808081  L 5.808080808080809 20.505050505050505  C 5.446689113355781 20.835016835016837  5.007856341189675 21  4.491582491582491 21  C 3.975308641975309 21  3.5364758698092036 20.835016835016837  3.175084175084175 20.505050505050505  L 0.5420875420875421 18.1010101010101  C 0.1806958473625142 17.771043771043768  0 17.370370370370374  0 16.8989898989899  C 0 16.427609427609426  0.1806958473625142 16.026936026936024  0.5420875420875421 15.696969696969695  L 6.2340067340067336 10.5  L 0.5420875420875421 5.303030303030302  C 0.1806958473625142 4.973063973063971  0 4.572390572390573  0 4.101010101010101  C 0 3.6296296296296293  0.1806958473625142 3.2289562289562257  0.5420875420875421 2.8989898989898997  L 3.175084175084175 0.49494949494949503  C 3.5364758698092036 0.16498316498316423  3.975308641975309 0  4.491582491582491 0  C 5.007856341189675 0  5.446689113355781 0.16498316498316423  5.808080808080809 0.49494949494949503  L 11.5 5.691919191919193  L 17.191919191919194 0.49494949494949503  C 17.553310886644223 0.16498316498316423  17.992143658810328 0  18.50841750841751 0  C 19.024691358024693 0  19.4635241301908 0.16498316498316423  19.824915824915823 0.49494949494949503  L 22.457912457912457 2.8989898989898997  C 22.819304152637486 3.2289562289562257  23 3.6296296296296293  23 4.101010101010101  C 23 4.572390572390573  22.819304152637486 4.973063973063971  22.457912457912457 5.303030303030302  L 16.765993265993266 10.5  L 22.457912457912457 15.696969696969695  Z " fill-rule="nonzero" fill="#000000" stroke="none" transform="matrix(1 0 0 1 762 15 )" />
  </g>
</svg>