<?xml version="1.0" encoding="utf-8"?>
<svg version="1.1" xmlns:xlink="http://www.w3.org/1999/xlink" width="25px" height="23px" xmlns="http://www.w3.org/2000/svg">
  <g transform="matrix(1 0 0 1 -721 -128 )">
    <path d="M 10.416666666666668 17.819010416666668  C 10.698784722222223 17.819010416666668  10.942925347222223 17.724175347222225  11.149088541666668 17.534505208333332  L 21.142578125 8.340494791666668  C 21.348741319444446 8.150824652777775  21.451822916666664 7.926215277777776  21.451822916666664 7.666666666666668  C 21.451822916666664 7.4071180555555545  21.348741319444446 7.1825086805555545  21.142578125 6.992838541666668  L 19.482421875 5.465494791666668  C 19.276258680555557 5.275824652777776  19.032118055555557 5.180989583333332  18.75 5.180989583333332  C 18.467881944444446 5.180989583333332  18.223741319444446 5.275824652777776  18.017578125 5.465494791666668  L 10.416666666666668 12.458333333333336  L 6.982421875 9.298828125  C 6.776258680555556 9.10915798611111  6.532118055555556 9.014322916666668  6.25 9.014322916666668  C 5.967881944444445 9.014322916666668  5.723741319444445 9.10915798611111  5.517578125 9.298828125  L 3.857421875 10.826171875  C 3.651258680555556 11.01584201388889  3.5481770833333335 11.24045138888889  3.5481770833333335 11.5  C 3.5481770833333335 11.759548611111109  3.651258680555556 11.984157986111109  3.857421875 12.173828125  L 9.684244791666668 17.534505208333332  C 9.890407986111112 17.724175347222225  10.134548611111112 17.819010416666668  10.416666666666668 17.819010416666668  Z M 23.624674479166664 1.2652994791666674  C 24.54155815972222 2.108832465277776  25 3.124565972222219  25 4.3125  L 25 18.6875  C 25 19.875434027777775  24.54155815972222 20.891167534722225  23.624674479166664 21.734700520833332  C 22.707790798611114 22.578233506944443  21.603732638888893 23  20.3125 23  L 4.6875 23  C 3.396267361111111 23  2.2922092013888893 22.578233506944443  1.3753255208333335 21.734700520833332  C 0.45844184027777773 20.891167534722225  0 19.875434027777775  0 18.6875  L 0 4.3125  C 0 3.124565972222219  0.45844184027777773 2.108832465277776  1.3753255208333335 1.2652994791666674  C 2.2922092013888893 0.42176649305555414  3.396267361111111 0  4.6875 0  L 20.3125 0  C 21.603732638888893 0  22.707790798611114 0.42176649305555414  23.624674479166664 1.2652994791666674  Z " fill-rule="nonzero" fill="#04d919" stroke="none" transform="matrix(1 0 0 1 721 128 )" />
  </g>
</svg>