<?xml version="1.0" encoding="utf-8"?>
<svg version="1.1" xmlns:xlink="http://www.w3.org/1999/xlink" width="23px" height="23px" xmlns="http://www.w3.org/2000/svg">
  <g transform="matrix(1 0 0 1 -69 -128 )">
    <path d="M 16.7109375 20.18840579710145  L 15.715745192307693 14.086956521739133  L 19.9453125 9.782608695652172  L 14.112379807692307 8.884057971014492  L 11.5 3.3478260869565206  L 8.887620192307692 8.884057971014492  L 3.0546875 9.782608695652172  L 7.284254807692308 14.086956521739133  L 6.275240384615384 20.18840579710145  L 11.5 17.304347826086957  L 16.7109375 20.18840579710145  Z M 22.22596153846154 8.246376811594203  C 22.74198717948718 8.333333333333334  23 8.555555555555555  23 8.913043478260871  C 23 9.125603864734298  22.880208333333336 9.357487922705312  22.640625 9.608695652173912  L 17.623197115384617 14.73913043478261  L 18.81189903846154 21.98550724637681  C 18.821113782051285 22.05314009661836  18.825721153846153 22.149758454106276  18.825721153846153 22.27536231884058  C 18.825721153846153 22.75845410628019  18.636818910256412 23  18.259014423076923 23  C 18.083934294871796 23  17.899639423076923 22.942028985507246  17.706129807692307 22.82608695652174  L 11.5 19.405797101449277  L 5.293870192307692 22.82608695652174  C 5.091145833333334 22.942028985507246  4.906850961538462 23  4.740985576923077 23  C 4.547475961538462 23  4.40234375 22.929951690821255  4.305588942307692 22.789855072463766  C 4.208834134615385 22.64975845410628  4.160456730769231 22.47826086956522  4.160456730769231 22.27536231884058  C 4.160456730769231 22.217391304347828  4.1696714743589745 22.1207729468599  4.188100961538462 21.98550724637681  L 5.376802884615385 14.73913043478261  L 0.34555288461538464 9.608695652173912  C 0.11518429487179487 9.347826086956522  0 9.115942028985508  0 8.913043478260871  C 0 8.555555555555555  0.2580128205128205 8.333333333333334  0.7740384615384615 8.246376811594203  L 7.712740384615384 7.188405797101448  L 10.822716346153847 0.5942028985507235  C 10.997796474358976 0.19806763285024032  11.223557692307692 0  11.5 0  C 11.776442307692307 0  12.002203525641026 0.19806763285024032  12.177283653846155 0.5942028985507235  L 15.287259615384617 7.188405797101448  L 22.22596153846154 8.246376811594203  Z " fill-rule="nonzero" fill="#000000" stroke="none" transform="matrix(1 0 0 1 69 128 )" />
  </g>
</svg>