<?xml version="1.0" encoding="utf-8"?>
<svg version="1.1" xmlns:xlink="http://www.w3.org/1999/xlink" width="29px" height="36px" xmlns="http://www.w3.org/2000/svg">
  <g transform="matrix(1 0 0 1 -215 -7 )">
    <path d="M 20.19891826923077 27.31138392857143  C 20.686899038461537 26.661830357142854  20.930889423076923 25.848214285714285  20.930889423076923 24.870535714285715  C 20.930889423076923 24.10714285714286  20.898938301282055 23.390624999999996  20.83503605769231 22.72098214285714  C 20.77113381410257 22.051339285714285  20.649138621794872 21.378348214285715  20.46905048076923 20.70200892857143  C 20.28896233974359 20.025669642857142  20.05949519230769 19.449776785714285  19.780649038461537 18.97433035714286  C 19.501802884615387 18.498883928571427  19.130008012820515 18.11049107142857  18.665264423076923 17.809151785714285  C 18.200520833333336 17.5078125  17.671875 17.357142857142854  17.079326923076923 17.357142857142854  C 17.009615384615387 17.410714285714285  16.815004006410255 17.54799107142857  16.495492788461537 17.768973214285715  C 16.17598157051282 17.989955357142854  15.929086538461538 18.154017857142854  15.754807692307692 18.261160714285715  C 15.580528846153847 18.36830357142857  15.345252403846153 18.50223214285714  15.048978365384615 18.66294642857143  C 14.752704326923077 18.823660714285715  14.46804887820513 18.9375  14.195012019230768 19.004464285714285  C 13.92197516025641 19.07142857142857  13.65184294871795 19.104910714285715  13.384615384615385 19.104910714285715  C 13.117387820512823 19.104910714285715  12.847255608974361 19.07142857142857  12.57421875 19.004464285714285  C 12.30118189102564 18.9375  12.016526442307693 18.823660714285715  11.720252403846155 18.66294642857143  C 11.423978365384615 18.50223214285714  11.188701923076923 18.36830357142857  11.014423076923077 18.261160714285715  C 10.840144230769232 18.154017857142854  10.59324919871795 17.989955357142854  10.273737980769232 17.768973214285715  C 9.954226762820515 17.54799107142857  9.759615384615385 17.410714285714285  9.689903846153845 17.357142857142854  C 9.097355769230768 17.357142857142854  8.568709935897436 17.5078125  8.103966346153845 17.809151785714285  C 7.639222756410257 18.11049107142857  7.267427884615385 18.498883928571427  6.988581730769231 18.97433035714286  C 6.7097355769230775 19.449776785714285  6.480268429487181 20.025669642857142  6.300180288461538 20.70200892857143  C 6.120092147435898 21.378348214285715  5.998096955128205 22.051339285714285  5.934194711538462 22.72098214285714  C 5.870292467948718 23.390624999999996  5.838341346153847 24.10714285714286  5.838341346153847 24.870535714285715  C 5.838341346153847 25.848214285714285  6.082331730769231 26.661830357142854  6.5703125 27.31138392857143  C 7.058293269230769 27.960937499999996  7.656650641025641 28.285714285714285  8.365384615384615 28  L 18.403846153846153 28  C 19.11258012820513 28.285714285714285  19.7109375 27.960937499999996  20.19891826923077 27.31138392857143  Z M 16.582632211538463 16.613839285714285  C 17.471454326923077 15.595982142857142  17.915865384615387 14.370535714285712  17.915865384615387 12.9375  C 17.915865384615387 11.49107142857143  17.471454326923077 10.25892857142857  16.582632211538463 9.24107142857143  C 15.693810096153847 8.223214285714283  14.627804487179489 7.714285714285715  13.384615384615385 7.714285714285715  C 12.141426282051285 7.714285714285715  11.075420673076923 8.223214285714283  10.186598557692307 9.24107142857143  C 9.297776442307693 10.25892857142857  8.853365384615385 11.49107142857143  8.853365384615385 12.9375  C 8.853365384615385 14.370535714285712  9.297776442307693 15.595982142857142  10.186598557692307 16.613839285714285  C 11.075420673076923 17.631696428571427  12.141426282051285 18.140625  13.384615384615385 18.140625  C 14.627804487179489 18.140625  15.693810096153847 17.631696428571427  16.582632211538463 16.613839285714285  Z M 28.843149038461537 23.323660714285715  C 28.947716346153847 23.44419642857143  29 23.598214285714285  29 23.785714285714285  L 29 27.64285714285714  C 29 27.830357142857142  28.947716346153847 27.984375  28.843149038461537 28.104910714285715  C 28.73858173076923 28.22544642857143  28.60496794871795 28.285714285714285  28.44230769230769 28.285714285714285  L 26.76923076923077 28.285714285714285  L 26.76923076923077 32.785714285714285  C 26.76923076923077 33.669642857142854  26.49619391025641 34.426339285714285  25.95012019230769 35.05580357142857  C 25.404046474358978 35.685267857142854  24.747596153846153 36  23.98076923076923 36  L 2.7884615384615388 36  C 2.0216346153846154 36  1.3651842948717952 35.685267857142854  0.819110576923077 35.05580357142857  C 0.273036858974359 34.426339285714285  0 33.669642857142854  0 32.785714285714285  L 0 3.214285714285715  C 0 2.3303571428571446  0.273036858974359 1.5736607142857122  0.819110576923077 0.9441964285714297  C 1.3651842948717952 0.31473214285714324  2.0216346153846154 0  2.7884615384615388 0  L 23.98076923076923 0  C 24.747596153846153 0  25.404046474358978 0.31473214285714324  25.95012019230769 0.9441964285714297  C 26.49619391025641 1.5736607142857122  26.76923076923077 2.3303571428571446  26.76923076923077 3.214285714285715  L 26.76923076923077 7.714285714285715  L 28.44230769230769 7.714285714285715  C 28.60496794871795 7.714285714285715  28.73858173076923 7.77455357142857  28.843149038461537 7.895089285714285  C 28.947716346153847 8.015625  29 8.169642857142854  29 8.357142857142856  L 29 12.214285714285715  C 29 12.401785714285712  28.947716346153847 12.55580357142857  28.843149038461537 12.676339285714285  C 28.73858173076923 12.796875  28.60496794871795 12.857142857142856  28.44230769230769 12.857142857142856  L 26.76923076923077 12.857142857142856  L 26.76923076923077 15.42857142857143  L 28.44230769230769 15.42857142857143  C 28.60496794871795 15.42857142857143  28.73858173076923 15.488839285714285  28.843149038461537 15.609375  C 28.947716346153847 15.729910714285715  29 15.88392857142857  29 16.07142857142857  L 29 19.92857142857143  C 29 20.116071428571427  28.947716346153847 20.270089285714285  28.843149038461537 20.390625  C 28.73858173076923 20.511160714285715  28.60496794871795 20.57142857142857  28.44230769230769 20.57142857142857  L 26.76923076923077 20.57142857142857  L 26.76923076923077 23.14285714285714  L 28.44230769230769 23.14285714285714  C 28.60496794871795 23.14285714285714  28.73858173076923 23.203125  28.843149038461537 23.323660714285715  Z " fill-rule="nonzero" fill="#000000" stroke="none" transform="matrix(1 0 0 1 215 7 )" />
  </g>
</svg>