<?xml version="1.0" encoding="utf-8"?>
<svg version="1.1" xmlns:xlink="http://www.w3.org/1999/xlink" width="112px" height="27px" xmlns="http://www.w3.org/2000/svg">
  <defs>
    <mask fill="white" id="clip1">
      <path d="M 0 22  L 0 5  C 0 2.200000000000003  2.2000000000000455 0  5 0  L 55.091954022989626 0  L 107 0  C 109.79999999999995 0  112 2.200000000000003  112 5  L 112 22  C 112 24.799999999999997  109.79999999999995 27  107 27  L 5 27  C 2.2000000000000455 27  0 24.799999999999997  0 22  Z " fill-rule="evenodd" />
    </mask>
  </defs>
  <g transform="matrix(1 0 0 1 -611 -36 )">
    <path d="M 0 22  L 0 5  C 0 2.200000000000003  2.2000000000000455 0  5 0  L 55.091954022989626 0  L 107 0  C 109.79999999999995 0  112 2.200000000000003  112 5  L 112 22  C 112 24.799999999999997  109.79999999999995 27  107 27  L 5 27  C 2.2000000000000455 27  0 24.799999999999997  0 22  Z " fill-rule="nonzero" fill="#d9001b" stroke="none" transform="matrix(1 0 0 1 611 36 )" />
    <path d="M 0 22  L 0 5  C 0 2.200000000000003  2.2000000000000455 0  5 0  L 55.091954022989626 0  L 107 0  C 109.79999999999995 0  112 2.200000000000003  112 5  L 112 22  C 112 24.799999999999997  109.79999999999995 27  107 27  L 5 27  C 2.2000000000000455 27  0 24.799999999999997  0 22  Z " stroke-width="2" stroke="#797979" fill="none" transform="matrix(1 0 0 1 611 36 )" mask="url(#clip1)" />
  </g>
</svg>