<?xml version="1.0" encoding="utf-8"?>
<svg version="1.1" xmlns:xlink="http://www.w3.org/1999/xlink" width="37px" height="37px" xmlns="http://www.w3.org/2000/svg">
  <g transform="matrix(1 0 0 1 -8 -175 )">
    <path d="M 11.314732142857144 1.4659598214285707  C 13.599702380952381 0.4886532738095236  15.994791666666668 0  18.5 0  C 21.005208333333336 0  23.40029761904762 0.4886532738095236  25.685267857142858 1.4659598214285707  C 27.9702380952381 2.443266369047618  29.93861607142857 3.7578125  31.59040178571429 5.409598214285713  C 33.24218750000001 7.061383928571429  34.55673363095239 9.029761904761902  35.53404017857143 11.314732142857142  C 36.51134672619048 13.599702380952378  37 15.994791666666666  37 18.5  C 37 20.991443452380953  36.51478794642857 23.379650297619047  35.544363839285715 25.664620535714285  C 34.57393973214286 27.94959077380953  33.26283482142857 29.91796875  31.611049107142858 31.569754464285715  C 29.959263392857142 33.22154017857143  27.990885416666668 34.5395275297619  25.70591517857143 35.52371651785714  C 23.420944940476193 36.50790550595238  21.01897321428571 37  18.5 37  C 15.981026785714285 37  13.57905505952381 36.511346726190474  11.294084821428571 35.53404017857143  C 9.009114583333334 34.55673363095238  7.0441778273809526 33.2387462797619  5.399274553571428 31.580078125  C 3.7543712797619047 29.921409970238095  2.443266369047619 27.953031994047617  1.4659598214285714 25.67494419642857  C 0.4886532738095237 23.39685639880952  0 21.005208333333332  0 18.5  C 0 15.994791666666666  0.4886532738095237 13.599702380952378  1.4659598214285714 11.314732142857142  C 2.443266369047619 9.029761904761902  3.7578125 7.061383928571429  5.409598214285714 5.409598214285713  C 7.061383928571428 3.7578125  9.029761904761905 2.443266369047618  11.314732142857144 1.4659598214285707  Z M 24.962611607142858 21.142857142857142  C 28.26618303571429 21.142857142857142  30.37220982142857 23.39341517857143  31.28069196428571 27.89453125  C 33.33165922619048 25.072730654761905  34.35714285714286 21.941220238095237  34.35714285714286 18.5  C 34.35714285714286 16.35267857142857  33.93731398809524 14.301711309523807  33.09765625 12.347098214285712  C 32.257998511904766 10.392485119047619  31.129278273809533 8.706287202380949  29.71149553571429 7.288504464285713  C 28.29371279761905 5.870721726190476  26.607514880952383 4.742001488095236  24.65290178571429 3.90234375  C 22.698288690476193 3.0626860119047596  20.64732142857143 2.6428571428571415  18.5 2.6428571428571415  C 16.35267857142857 2.6428571428571415  14.30171130952381 3.0626860119047596  12.347098214285715 3.90234375  C 10.39248511904762 4.742001488095236  8.706287202380954 5.870721726190476  7.288504464285714 7.288504464285713  C 5.870721726190477 8.706287202380949  4.742001488095238 10.392485119047619  3.90234375 12.347098214285712  C 3.0626860119047623 14.301711309523807  2.642857142857143 16.35267857142857  2.642857142857143 18.5  C 2.642857142857143 21.941220238095237  3.668340773809524 25.072730654761905  5.719308035714286 27.89453125  C 6.627790178571428 23.39341517857143  8.733816964285715 21.142857142857142  12.037388392857144 21.142857142857142  C 13.84058779761905 22.904761904761905  15.994791666666668 23.785714285714285  18.5 23.785714285714285  C 21.005208333333336 23.785714285714285  23.159412202380953 22.904761904761905  24.962611607142858 21.142857142857142  Z M 24.105747767857142 20.14146205357143  C 25.654296875 18.59291294642857  26.42857142857143 16.724330357142858  26.42857142857143 14.535714285714288  C 26.42857142857143 12.347098214285712  25.654296875 10.478515625  24.105747767857142 8.929966517857142  C 22.55719866071429 7.381417410714287  20.68861607142857 6.6071428571428585  18.5 6.6071428571428585  C 16.31138392857143 6.6071428571428585  14.442801339285715 7.381417410714287  12.894252232142856 8.929966517857142  C 11.345703125 10.478515625  10.571428571428571 12.347098214285712  10.571428571428571 14.535714285714288  C 10.571428571428571 16.724330357142858  11.345703125 18.59291294642857  12.894252232142856 20.14146205357143  C 14.442801339285715 21.690011160714285  16.31138392857143 22.464285714285715  18.5 22.464285714285715  C 20.68861607142857 22.464285714285715  22.55719866071429 21.690011160714285  24.105747767857142 20.14146205357143  Z " fill-rule="nonzero" fill="#000000" stroke="none" transform="matrix(1 0 0 1 8 175 )" />
  </g>
</svg>