<?xml version="1.0" encoding="utf-8"?>
<svg version="1.1" xmlns:xlink="http://www.w3.org/1999/xlink" width="21px" height="27px" xmlns="http://www.w3.org/2000/svg">
  <g transform="matrix(1 0 0 1 -70 -411 )">
    <path d="M 19 24.448116325181758  L 19 2.2842035690680773  L 2.1 2.2842035690680773  L 2.1 24.448116325181758  L 9.039843750000001 17.202908129543953  L 10.5 15.686054196959681  L 11.96015625 17.202908129543953  L 19 24.448116325181758  Z M 1.903125 0  L 19.096875 0  C 19.348437500000003 0  19.5890625 0.05353602115003353  19.818749999999998 0.1606080634501006  C 20.1796875 0.31526768010574635  20.466796875 0.5591539986781217  20.680078124999998 0.8922670191672175  C 20.893359375 1.2253800396563104  21 1.5941837409120931  21 1.998678122934566  L 21 25.001321877065433  C 21 25.405816259087906  20.893359375 25.774619960343685  20.680078124999998 26.107732980832782  C 20.466796875 26.44084600132188  20.1796875 26.68473231989425  19.818749999999998 26.839391936549898  C 19.610937500000002 26.93456708526107  19.3703125 26.982154659616658  19.096875 26.982154659616658  C 18.571875000000002 26.982154659616658  18.117968750000003 26.791804362194316  17.73515625 26.411103767349637  L 10.5 18.844679444811632  L 3.26484375 26.411103767349637  C 2.87109375 26.803701255783213  2.4171875000000003 27  1.903125 27  C 1.6515625 27  1.4109375 26.946463978849966  1.1812500000000001 26.839391936549898  C 0.8203125 26.68473231989425  0.533203125 26.44084600132188  0.31992187499999997 26.107732980832782  C 0.106640625 25.774619960343685  0 25.405816259087906  0 25.001321877065433  L 0 1.998678122934566  C 0 1.5941837409120931  0.106640625 1.2253800396563104  0.31992187499999997 0.8922670191672175  C 0.533203125 0.5591539986781217  0.8203125 0.31526768010574635  1.1812500000000001 0.1606080634501006  C 1.4109375 0.05353602115003353  1.6515625 0  1.903125 0  Z " fill-rule="nonzero" fill="#000000" stroke="none" transform="matrix(1 0 0 1 70 411 )" />
  </g>
</svg>