<?xml version="1.0" encoding="utf-8"?>
<svg version="1.1" xmlns:xlink="http://www.w3.org/1999/xlink" width="27px" height="25px" xmlns="http://www.w3.org/2000/svg">
  <g transform="matrix(1 0 0 1 -123 -411 )">
    <path d="M 16.681640625 15.445963541666668  C 17.560546875 14.632161458333332  18 13.65017361111111  18 12.5  C 18 11.349826388888888  17.560546875 10.367838541666666  16.681640625 9.554036458333334  C 15.802734375000002 8.740234375  14.742187500000002 8.333333333333334  13.5 8.333333333333334  C 12.2578125 8.333333333333334  11.197265625 8.740234375  10.318359375 9.554036458333334  C 9.439453125 10.367838541666666  9 11.349826388888888  9 12.5  C 9 13.65017361111111  9.439453125 14.632161458333332  10.318359375 15.445963541666668  C 11.197265625 16.259765625  12.2578125 16.666666666666668  13.5 16.666666666666668  C 14.742187500000002 16.666666666666668  15.802734375000002 16.259765625  16.681640625 15.445963541666668  Z M 26.859375 10.343424479166666  C 26.953125 10.457356770833334  27 10.584852430555555  27 10.725911458333334  L 27 14.339192708333332  C 27 14.469401041666668  26.953125 14.594184027777779  26.859375 14.713541666666668  C 26.765625000000004 14.832899305555552  26.6484375 14.903428819444443  26.5078125 14.925130208333332  L 23.255859375 15.380859375  C 23.033203125000004 15.966796875  22.804687500000004 16.46050347222222  22.5703125 16.861979166666668  C 22.980468750000004 17.40451388888889  23.607421875 18.153211805555554  24.451171875 19.108072916666664  C 24.568359375 19.23828125  24.626953125 19.373914930555554  24.626953125 19.514973958333336  C 24.626953125 19.656032986111114  24.57421875 19.78081597222222  24.46875 19.889322916666664  C 24.15234375 20.290798611111114  23.572265625 20.876736111111114  22.728515625 21.647135416666664  C 21.884765625 22.41753472222222  21.333984375000004 22.802734375  21.076171875 22.802734375  C 20.935546875 22.802734375  20.783203125 22.75390625  20.619140625 22.65625  L 18.193359375 20.8984375  C 17.677734375 21.14800347222222  17.14453125 21.354166666666664  16.59375 21.516927083333336  C 16.40625 22.99262152777778  16.236328125 24.001736111111114  16.083984375 24.544270833333336  C 16.001953125 24.84809027777778  15.791015625 25  15.451171875 25  L 11.548828125 25  C 11.384765625000002 25  11.2412109375 24.953884548611114  11.1181640625 24.861653645833336  C 10.9951171875 24.769422743055554  10.927734375000002 24.65277777777778  10.916015625 24.51171875  L 10.423828125 21.516927083333336  C 9.849609375000002 21.34331597222222  9.322265625000002 21.142578125  8.841796875 20.914713541666664  L 6.36328125 22.65625  C 6.246093750000001 22.75390625  6.099609375 22.802734375  5.923828125 22.802734375  C 5.759765625 22.802734375  5.613281250000001 22.743055555555554  5.484375 22.623697916666664  C 4.0078125 21.38671875  3.041015625 20.475260416666664  2.583984375 19.889322916666664  C 2.5019531250000004 19.78081597222222  2.4609375 19.656032986111114  2.4609375 19.514973958333336  C 2.4609375 19.384765625  2.5078125000000004 19.259982638888886  2.6015625 19.140625  C 2.77734375 18.912760416666664  3.076171875 18.55197482638889  3.4980468749999996 18.058268229166668  C 3.9199218749999996 17.564561631944443  4.236328125 17.182074652777775  4.447265625 16.910807291666668  C 4.130859375 16.368272569444443  3.8906250000000004 15.831163194444443  3.7265625000000004 15.299479166666668  L 0.509765625 14.860026041666668  C 0.35742187500000006 14.838324652777779  0.234375 14.7705078125  0.140625 14.656575520833332  C 0.046875 14.542643229166668  0 14.415147569444443  0 14.274088541666668  L 0 10.660807291666666  C 0 10.530598958333334  0.046875 10.405815972222221  0.140625 10.286458333333334  C 0.234375 10.167100694444445  0.34570312500000006 10.096571180555555  0.474609375 10.074869791666666  L 3.744140625 9.619140625  C 3.908203125 9.120008680555555  4.13671875 8.62087673611111  4.4296875 8.121744791666666  C 3.9609375 7.503255208333334  3.3339843750000004 6.754557291666666  2.548828125 5.875651041666666  C 2.431640625 5.745442708333334  2.373046875 5.615234375  2.373046875 5.485026041666666  C 2.373046875 5.376519097222221  2.42578125 5.251736111111108  2.53125 5.110677083333334  C 2.8359375 4.720052083333334  3.4130859375000004 4.136827256944442  4.2626953125 3.3610026041666656  C 5.112304687500001 2.5851779513888866  5.666015625000001 2.197265625  5.923828125 2.197265625  C 6.076171875 2.197265625  6.228515625000001 2.251519097222221  6.380859375 2.3600260416666656  L 8.806640625 4.1015625  C 9.322265625000002 3.8519965277777763  9.855468750000002 3.6458333333333344  10.40625 3.4830729166666656  C 10.593750000000002 2.007378472222221  10.763671875 0.9982638888888867  10.916015625 0.45572916666666574  C 10.998046875 0.151909722222221  11.208984375 0  11.548828125 0  L 15.451171875 0  C 15.615234375000002 0  15.758789062499998 0.04611545138888673  15.881835937500002 0.13834635416666574  C 16.0048828125 0.23057725694444198  16.072265625 0.347222222222221  16.083984375 0.48828125  L 16.576171875 3.4830729166666656  C 17.150390625 3.6566840277777763  17.677734375 3.857421875  18.158203125 4.085286458333334  L 20.654296875 2.34375  C 20.759765625 2.24609375  20.900390625 2.197265625  21.076171875 2.197265625  C 21.228515625000004 2.197265625  21.375 2.251519097222221  21.515625 2.3600260416666656  C 23.02734375 3.6512586805555554  23.994140625 4.573567708333334  24.416015625 5.126953125  C 24.498046875000004 5.213758680555555  24.5390625 5.333116319444442  24.5390625 5.485026041666666  C 24.5390625 5.615234375  24.492187500000004 5.740017361111108  24.3984375 5.859375  C 24.22265625 6.087239583333334  23.923828125 6.448025173611108  23.501953125 6.941731770833334  C 23.080078125 7.435438368055555  22.763671875 7.817925347222221  22.552734375 8.089192708333334  C 22.857421875000004 8.631727430555555  23.09765625 9.163411458333332  23.2734375 9.684244791666666  L 26.490234375 10.139973958333334  C 26.642578125 10.161675347222221  26.765625000000004 10.229492187499996  26.859375 10.343424479166666  Z " fill-rule="nonzero" fill="#000000" stroke="none" transform="matrix(1 0 0 1 123 411 )" />
  </g>
</svg>