<?xml version="1.0" encoding="utf-8"?>
<svg version="1.1" xmlns:xlink="http://www.w3.org/1999/xlink" width="26px" height="25px" xmlns="http://www.w3.org/2000/svg">
  <g transform="matrix(1 0 0 1 -176 -411 )">
    <path d="M 24.104166666666668 18.67897727272727  C 25.368055555555554 19.010416666666664  26 19.41287878787879  26 19.886363636363637  L 26 23.295454545454547  C 26 23.768939393939394  25.368055555555554 24.171401515151516  24.104166666666668 24.50284090909091  C 22.84027777777778 24.834280303030305  21.305555555555557 25  19.5 25  L 6.5 25  C 4.694444444444445 25  3.1597222222222223 24.834280303030305  1.8958333333333335 24.50284090909091  C 0.6319444444444444 24.171401515151516  0 23.768939393939394  0 23.295454545454547  L 0 19.886363636363637  C 0 19.41287878787879  0.6319444444444444 19.010416666666664  1.8958333333333335 18.67897727272727  C 3.1597222222222223 18.347537878787882  4.694444444444445 18.181818181818183  6.5 18  L 19.5 18  C 21.305555555555557 18.181818181818183  22.84027777777778 18.347537878787882  24.104166666666668 18.67897727272727  Z M 24.104166666666668 9.588068181818182  C 25.368055555555554 9.919507575757573  26 10.321969696969695  26 10.795454545454545  L 26 14.204545454545453  C 26 14.678030303030305  25.368055555555554 15.080492424242422  24.104166666666668 15.411931818181818  C 22.84027777777778 15.74337121212121  21.305555555555557 15.909090909090908  19.5 16  L 6.5 16  C 4.694444444444445 15.909090909090908  3.1597222222222223 15.74337121212121  1.8958333333333335 15.411931818181818  C 0.6319444444444444 15.080492424242422  0 14.678030303030305  0 14.204545454545453  L 0 10.795454545454545  C 0 10.321969696969695  0.6319444444444444 9.919507575757573  1.8958333333333335 9.588068181818182  C 3.1597222222222223 9.256628787878787  4.694444444444445 9.090909090909092  6.5 9  L 19.5 9  C 21.305555555555557 9.090909090909092  22.84027777777778 9.256628787878787  24.104166666666668 9.588068181818182  Z M 24.104166666666668 0.49715909090909116  C 25.368055555555554 0.8285984848484834  26 1.231060606060605  26 1.704545454545456  L 26 5.113636363636365  C 26 5.58712121212121  25.368055555555554 5.989583333333331  24.104166666666668 6.321022727272727  C 22.84027777777778 6.652462121212118  21.305555555555557 6.8181818181818175  19.5 7  L 6.5 7  C 4.694444444444445 6.8181818181818175  3.1597222222222223 6.652462121212118  1.8958333333333335 6.321022727272727  C 0.6319444444444444 5.989583333333331  0 5.58712121212121  0 5.113636363636365  L 0 1.704545454545456  C 0 1.231060606060605  0.6319444444444444 0.8285984848484834  1.8958333333333335 0.49715909090909116  C 3.1597222222222223 0.16571969696969613  4.694444444444445 0  6.5 0  L 19.5 0  C 21.305555555555557 0  22.84027777777778 0.16571969696969613  24.104166666666668 0.49715909090909116  Z " fill-rule="nonzero" fill="#000000" stroke="none" transform="matrix(1 0 0 1 176 411 )" />
  </g>
</svg>