<?xml version="1.0" encoding="utf-8"?>
<svg version="1.1" xmlns:xlink="http://www.w3.org/1999/xlink" width="27px" height="26px" xmlns="http://www.w3.org/2000/svg">
  <g transform="matrix(1 0 0 1 -11 -411 )">
    <path d="M 19.916015625 15.48828125  C 20.138671875 15.70269097222222  20.25 15.95659722222222  20.25 16.25  C 20.25 16.543402777777775  20.138671875 16.797309027777775  19.916015625 17.01171875  C 19.693359375000004 17.226128472222225  19.429687500000004 17.333333333333336  19.125 17  L 7.875000000000001 17  C 7.570312500000001 17.333333333333336  7.306640625000001 17.226128472222225  7.083984375000001 17.01171875  C 6.861328125 16.797309027777775  6.75 16.543402777777775  6.75 16.25  C 6.75 15.95659722222222  6.861328125 15.70269097222222  7.083984375000001 15.48828125  C 7.306640625000001 15.273871527777775  7.570312500000001 15.166666666666664  7.875000000000001 15  L 19.125 15  C 19.429687500000004 15.166666666666664  19.693359375000004 15.273871527777775  19.916015625 15.48828125  Z M 10.5908203125 7.134765625  C 11.0302734375 7.557942708333332  11.25 8.068576388888888  11.25 8.666666666666668  C 11.25 9.264756944444443  11.0302734375 9.775390624999996  10.5908203125 10.198567708333332  C 10.1513671875 10.621744791666668  9.62109375 10.833333333333332  9 10.833333333333332  C 8.378906250000002 10.833333333333332  7.848632812500001 10.621744791666668  7.4091796875 10.198567708333332  C 6.969726562499999 9.775390624999996  6.75 9.264756944444443  6.75 8.666666666666668  C 6.75 8.068576388888888  6.969726562499999 7.557942708333332  7.4091796875 7.134765625  C 7.848632812500001 6.711588541666668  8.378906250000002 6.5  9 6.5  C 9.62109375 6.5  10.1513671875 6.711588541666668  10.5908203125 7.134765625  Z M 19.5908203125 7.134765625  C 20.0302734375 7.557942708333332  20.25 8.068576388888888  20.25 8.666666666666668  C 20.25 9.264756944444443  20.0302734375 9.775390624999996  19.5908203125 10.198567708333332  C 19.1513671875 10.621744791666668  18.62109375 10.833333333333332  18 10.833333333333332  C 17.378906250000004 10.833333333333332  16.8486328125 10.621744791666668  16.4091796875 10.198567708333332  C 15.969726562499998 9.775390624999996  15.750000000000002 9.264756944444443  15.750000000000002 8.666666666666668  C 15.750000000000002 8.068576388888888  15.969726562499998 7.557942708333332  16.4091796875 7.134765625  C 16.8486328125 6.711588541666668  17.378906250000004 6.5  18 6.5  C 18.62109375 6.5  19.1513671875 6.711588541666668  19.5908203125 7.134765625  Z M 23.853515625 17.206380208333336  C 24.451171875 15.869140625  24.75 14.46701388888889  24.75 13  C 24.75 11.53298611111111  24.451171875 10.130859375  23.853515625 8.793619791666668  C 23.255859375 7.456380208333332  22.4560546875 6.305338541666668  21.4541015625 5.340494791666668  C 20.4521484375 4.375651041666668  19.2568359375 3.60546875  17.8681640625 3.029947916666668  C 16.4794921875 2.454427083333332  15.023437500000002 2.166666666666668  13.5 2.166666666666668  C 11.9765625 2.166666666666668  10.5205078125 2.454427083333332  9.1318359375 3.029947916666668  C 7.743164062500001 3.60546875  6.5478515625 4.375651041666668  5.5458984375 5.340494791666668  C 4.5439453125 6.305338541666668  3.744140625 7.456380208333332  3.146484375 8.793619791666668  C 2.548828125 10.130859375  2.25 11.53298611111111  2.25 13  C 2.25 14.46701388888889  2.548828125 15.869140625  3.146484375 17.206380208333336  C 3.744140625 18.543619791666664  4.5439453125 19.694661458333332  5.5458984375 20.659505208333332  C 6.5478515625 21.624348958333332  7.743164062500001 22.39453125  9.1318359375 22.970052083333332  C 10.5205078125 23.545572916666668  11.9765625 23.833333333333332  13.5 23.833333333333332  C 15.023437500000002 23.833333333333332  16.4794921875 23.545572916666668  17.8681640625 22.970052083333332  C 19.2568359375 22.39453125  20.4521484375 21.624348958333332  21.4541015625 20.659505208333332  C 22.4560546875 19.694661458333332  23.255859375 18.543619791666664  23.853515625 17.206380208333336  Z M 25.189453125 6.474609375  C 26.396484374999996 8.46636284722222  27 10.641493055555552  27 13  C 27 15.358506944444445  26.396484374999996 17.533637152777775  25.189453125 19.525390625  C 23.982421875000004 21.51714409722222  22.3447265625 23.09418402777778  20.2763671875 24.256510416666668  C 18.208007812500004 25.418836805555557  15.94921875 26  13.5 26  C 11.05078125 26  8.7919921875 25.418836805555557  6.7236328125 24.256510416666668  C 4.6552734375 23.09418402777778  3.0175781250000004 21.51714409722222  1.8105468750000002 19.525390625  C 0.6035156249999999 17.533637152777775  0 15.358506944444445  0 13  C 0 10.641493055555552  0.6035156249999999 8.46636284722222  1.8105468750000002 6.474609375  C 3.0175781250000004 4.482855902777778  4.6552734375 2.9058159722222197  6.7236328125 1.7434895833333324  C 8.7919921875 0.5811631944444422  11.05078125 0  13.5 0  C 15.94921875 0  18.208007812500004 0.5811631944444422  20.2763671875 1.7434895833333324  C 22.3447265625 2.9058159722222197  23.982421875000004 4.482855902777778  25.189453125 6.474609375  Z " fill-rule="nonzero" fill="#000000" stroke="none" transform="matrix(1 0 0 1 11 411 )" />
  </g>
</svg>