<?xml version="1.0" encoding="utf-8"?>
<svg version="1.1" xmlns:xlink="http://www.w3.org/1999/xlink" width="38px" height="53px" xmlns="http://www.w3.org/2000/svg">
  <g transform="matrix(1 0 0 1 -543 -107 )">
    <path d="M 37.373263888888886 20.989783653846402  C 37.791087962962884 21.393229166666664  38 21.870993589743463  38 22.4230769230768  L 38 26.5  C 38 31.192708333333332  36.37818287037045 35.2749399038464  33.134548611111114 38.746694711538396  C 29.890914351851773 42.218449519230404  25.883101851851773 44.2091346153848  21.11111111111111 44.71875  L 21.11111111111111 48.9230769230768  L 29.555555555555557 48.9230769230768  C 30.127314814814895 48.9230769230768  30.622106481481563 49.12479967948693  31.039930555555557 49.528245192308006  C 31.457754629629548 49.93169070512826  31.666666666666668 50.40945512820507  31.666666666666668 50.961538461538396  C 31.666666666666668 51.51362179487174  31.457754629629548 51.99138621794853  31.039930555555557 52.394831730769596  C 30.622106481481563 52.798277243589865  30.127314814814895 53  29.555555555555557 53  L 8.444444444444445 53  C 7.872685185185105 53  7.377893518518438 52.798277243589865  6.960069444444444 52.394831730769596  C 6.542245370370451 51.99138621794853  6.333333333333333 51.51362179487174  6.333333333333333 50.961538461538396  C 6.333333333333333 50.40945512820507  6.542245370370451 49.93169070512826  6.960069444444444 49.528245192308006  C 7.377893518518438 49.12479967948693  7.872685185185105 48.9230769230768  8.444444444444445 48.9230769230768  L 16.88888888888889 48.9230769230768  L 16.88888888888889 44.71875  C 12.116898148148229 44.2091346153848  8.109085648148227 42.218449519230404  4.865451388888889 38.746694711538396  C 1.6218171296295496 35.2749399038464  0 31.192708333333332  0 26.5  L 0 22.4230769230768  C 0 21.870993589743463  0.20891203703711703 21.393229166666664  0.6267361111111112 20.989783653846402  C 1.0445601851851052 20.58633814102533  1.539351851851772 20.384615384615202  2.111111111111111 20.384615384615202  C 2.68287037037045 20.384615384615202  3.1776620370371167 20.58633814102533  3.595486111111111 20.989783653846402  C 4.013310185185105 21.393229166666664  4.222222222222222 21.870993589743463  4.222222222222222 22.4230769230768  L 4.222222222222222 26.5  C 4.222222222222222 30.428285256410135  5.6681134259260055 33.788561698718134  8.559895833333332 36.5808293269232  C 11.45167824074066 39.37309695512826  14.931712962962884 40.769230769230404  19 40.769230769230404  C 23.06828703703712 40.769230769230404  26.548321759259338 39.37309695512826  29.440104166666668 36.5808293269232  C 32.33188657407399 33.788561698718134  33.77777777777778 30.428285256410135  33.77777777777778 26.5  L 33.77777777777778 22.4230769230768  C 33.77777777777778 21.870993589743463  33.986689814814895 21.393229166666664  34.404513888888886 20.989783653846402  C 34.822337962962884 20.58633814102533  35.31712962962955 20.384615384615202  35.888888888888886 20.384615384615202  C 36.46064814814822 20.384615384615202  36.955439814814895 20.58633814102533  37.373263888888886 20.989783653846402  Z M 26.45486111111111 2.9939903846151994  C 28.521990740740662 4.989983974358665  29.555555555555557 7.389423076923201  29 10.192307692308002  L 29 26.5  C 29.555555555555557 29.302884615384798  28.521990740740662 31.70232371794853  26.45486111111111 33.698317307691994  C 24.387731481481563 35.69431089743627  21.902777777777775 36.692307692308006  19 36.692307692308006  C 16.09722222222222 36.692307692308006  13.612268518518439 35.69431089743627  11.545138888888888 33.698317307691994  C 9.47800925925934 31.70232371794853  8.444444444444445 29.302884615384798  9 26.5  L 9 10.192307692308002  C 8.444444444444445 7.389423076923201  9.47800925925934 4.989983974358665  11.545138888888888 2.9939903846151994  C 13.612268518518439 0.997996794871733  16.09722222222222 0  19 0  C 21.902777777777775 0  24.387731481481563 0.997996794871733  26.45486111111111 2.9939903846151994  Z " fill-rule="nonzero" fill="#000000" stroke="none" transform="matrix(1 0 0 1 543 107 )" />
  </g>
</svg>