<?xml version="1.0" encoding="utf-8"?>
<svg version="1.1" xmlns:xlink="http://www.w3.org/1999/xlink" width="44px" height="53px" xmlns="http://www.w3.org/2000/svg">
  <g transform="matrix(1 0 0 1 -597 -107 )">
    <path d="M 26.984375 32.50390625  C 29.302483974358825 29.711638621795558  30.4615384615386 26.351362179487108  30.4615384615386 22.423076923077335  C 30.4615384615386 18.494791666666664  29.302483974358825 15.134515224359113  26.984375 12.342247596153777  C 24.666266025641175 9.549979967948444  21.876602564102573 8.153846153846223  18.61538461538456 8.153846153846223  C 15.354166666666549 8.153846153846223  12.564503205128306 9.549979967948444  10.24639423076912 12.342247596153777  C 7.928285256410294 15.134515224359113  6.769230769230879 18.494791666666664  6.769230769230879 22.423076923077335  C 6.769230769230879 26.351362179487108  7.928285256410294 29.711638621795558  10.24639423076912 32.50390625  C 12.564503205128306 35.29617387820444  15.354166666666549 36.69230769230756  18.61538461538456 36.69230769230756  C 21.876602564102573 36.69230769230756  24.666266025641175 35.29617387820444  26.984375 32.50390625  Z M 43.021634615384556 46.05649038461511  C 43.673878205128304 46.84214743589778  44 47.797676282051555  44 48.92307692307734  C 44 50.027243589744  43.665064102563974 50.98277243589778  42.99519230769228 51.78966346153778  C 42.32532051282058 52.59655448717955  41.53205128205147 53  40.615384615384556 53  C 39.663461538461405 53  38.87019230769228 52.59655448717955  38.23557692307684 51.78966346153778  L 29.16586538461544 40.89663461538489  C 26.010416666666547 43.52964743589778  22.49358974358971 44.846153846153776  18.61538461538456 44.846153846153776  C 16.094551282051107 44.846153846153776  13.68389423076912 44.25691105769244  11.3834134615386 43.078425480768885  C 9.08293269230772 41.899939903846224  7.09975961538456 40.30739182692266  5.433894230769121 38.30078125  C 3.7680288461536815 36.29417067307734  2.445913461538599 33.90534855769244  1.4675480769231593 31.134314903846224  C 0.4891826923077198 28.36328125  0 25.459535256410668  0 22.423076923077335  C 0 19.386618589744  0.4891826923077198 16.48287259615378  1.4675480769231593 13.711838942307557  C 2.445913461538599 10.940805288462226  3.7680288461536815 8.551983173077335  5.433894230769121 6.545372596153777  C 7.09975961538456 4.538762019231113  9.08293269230772 2.946213942307555  11.3834134615386 1.76772836538489  C 13.68389423076912 0.5892427884622251  16.094551282051107 0  18.61538461538456 0  C 21.136217948718013 0  23.546875 0.5892427884622251  25.847355769230877 1.76772836538489  C 28.1478365384614 2.946213942307555  30.13100961538456 4.538762019231113  31.796875 6.545372596153777  C 33.462740384615444 8.551983173077335  34.78485576923088 10.940805288462226  35.76322115384632 13.711838942307557  C 36.741586538461405 16.48287259615378  37.23076923076912 19.386618589744  37.23076923076912 22.423076923077335  C 37.23076923076912 27.094551282051558  36.13782051282058 31.330729166666668  33.95192307692316 35.13161057692266  L 43.021634615384556 46.05649038461511  Z " fill-rule="nonzero" fill="#000000" stroke="none" transform="matrix(1 0 0 1 597 107 )" />
  </g>
</svg>