<?xml version="1.0" encoding="utf-8"?>
<svg version="1.1" xmlns:xlink="http://www.w3.org/1999/xlink" width="39px" height="43px" xmlns="http://www.w3.org/2000/svg">
  <g transform="matrix(1 0 0 1 -599 -102 )">
    <path d="M 23.91796875 26.37109375  C 25.97265624999987 24.105669070513375  27.00000000000012 21.379407051281994  27.00000000000012 18.192307692308027  C 27.00000000000012 15.005208333333332  25.97265624999987 12.278946314102676  23.91796875 10.01352163461533  C 21.86328125000013 7.748096955127982  19.39062500000001 6.615384615384671  16.499999999999954 6.615384615384671  C 13.609374999999895 6.615384615384671  11.136718750000089 7.748096955127982  9.082031249999902 10.01352163461533  C 7.027343750000033 12.278946314102676  6.000000000000098 15.005208333333332  6.000000000000098 18.192307692308027  C 6.000000000000098 21.379407051281994  7.027343750000033 24.105669070513375  9.082031249999902 26.37109375  C 11.136718750000089 28.636518429486625  13.609374999999895 29.76923076923066  16.499999999999954 29.76923076923066  C 19.39062500000001 29.76923076923066  21.86328125000013 28.636518429486625  23.91796875 26.37109375  Z M 38.13281249999995 37.36658653846132  C 38.710937500000085 38.00400641025669  39 38.779246794872016  39 39.69230769230803  C 39 40.588141025641356  38.703124999999886 41.36338141025669  38.10937499999997 42.018028846153285  C 37.515625000000064 42.67267628205134  36.81250000000016 43  35.99999999999995 43  C 35.15624999999988 43  34.45312499999997 42.67267628205134  33.89062499999992 42.018028846153285  L 25.85156250000005 33.18028846153868  C 23.054687499999893 35.31650641025669  19.937499999999968 36.38461538461533  16.499999999999954 36.38461538461533  C 14.265624999999845 36.38461538461533  12.128906249999902 35.90655048076934  10.089843750000123 34.95042067307664  C 8.050781250000023 33.99429086538467  6.292968749999951 32.70222355769197  4.816406249999903 31.07421875  C 3.339843749999854 29.446213942308027  2.167968750000122 27.50811298076934  1.300781250000073 25.259915865384674  C 0.43359375000002437 23.01171875  0 20.655849358974695  0 18.192307692308027  C 0 15.72876602564136  0.43359375000002437 13.37289663461533  1.300781250000073 11.124699519230658  C 2.167968750000122 8.876502403846711  3.339843749999854 6.9384014423080265  4.816406249999903 5.310396634615329  C 6.292968749999951 3.6823918269233555  8.050781250000023 2.3903245192306577  10.089843750000123 1.4341947115386844  C 12.128906249999902 0.4780649038467109  14.265624999999845 0  16.499999999999954 0  C 18.734375000000057 0  20.87109375 0.4780649038467109  22.910156250000096 1.4341947115386844  C 24.94921874999988 2.3903245192306577  26.70703124999995 3.6823918269233555  28.18359375 5.310396634615329  C 29.66015625000005 6.9384014423080265  30.832031250000096 8.876502403846711  31.699218750000146 11.124699519230658  C 32.56640624999988 13.37289663461533  32.99999999999991 15.72876602564136  32.99999999999991 18.192307692308027  C 32.99999999999991 21.982371794872016  32.031250000000064 25.419270833333336  30.093750000000075 28.503004807691973  L 38.13281249999995 37.36658653846132  Z " fill-rule="nonzero" fill="#000000" stroke="none" transform="matrix(1 0 0 1 599 102 )" />
  </g>
</svg>