<?xml version="1.0" encoding="utf-8"?>
<svg version="1.1" xmlns:xlink="http://www.w3.org/1999/xlink" width="19px" height="19px" xmlns="http://www.w3.org/2000/svg">
  <g transform="matrix(1 0 0 1 -219 -251 )">
    <path d="M 13.931919642857144 3.4386089425124204  C 14.596354166666668 4.499408563993374  14.928571428571429 5.654601372131535  14.928571428571429 6.904187366926898  C 14.928571428571429 8.15377336172226  14.596354166666668 9.308966169860419  13.931919642857144 10.369765791341377  C 13.26748511904762 11.43056541282233  12.360956101190478 12.268866808611307  11.212332589285715 12.884669978708304  C 10.063709077380953 13.500473148805296  8.81436011904762 13.808374733853798  7.464285714285714 13.808374733853798  C 6.85639880952381 13.808374733853798  6.234375 13.736456115448306  5.598214285714286 13.592618878637333  C 4.721726190476191 14.383723681097706  3.7392113095238098 14.959072628341612  2.650669642857143 15.318665720369056  C 2.396205357142857 15.399574166075231  2.092261904761905 15.471492784480718  1.7388392857142856 15.53442157558552  L 1.70703125 15.53442157558552  C 1.6292782738095242 15.53442157558552  1.556826636904762 15.498462266382777  1.4896763392857144 15.426543647977288  C 1.4225260416666667 15.354625029571801  1.3818824404761907 15.260231842914598  1.3677455357142856 15.143364088005677  C 1.3606770833333335 15.116394606103619  1.357142857142857 15.08717766737639  1.357142857142857 15.05571327182399  C 1.357142857142857 15.024248876271589  1.3589099702380956 14.995031937544358  1.3624441964285714 14.968062455642299  C 1.3659784226190477 14.941092973740242  1.373046875 14.914123491838184  1.3836495535714286 14.887154009936125  L 1.41015625 14.81973030518098  C 1.41015625 14.81973030518098  1.4225260416666667 14.795008280104094  1.447265625 14.745564229950318  C 1.4720052083333335 14.696120179796544  1.4861421130952381 14.673645611544833  1.4896763392857144 14.678140525195175  C 1.4932105654761907 14.682635438845516  1.5091145833333335 14.660160870593803  1.537388392857143 14.610716820440029  C 1.5656622023809526 14.561272770286253  1.579799107142857 14.541045658859712  1.579799107142857 14.550035486160397  C 1.615141369047619 14.49609652235628  1.6964285714285714 14.383723681097702  1.8236607142857144 14.21291696238467  C 1.950892857142857 14.042110243671633  2.042782738095238 13.909510290986516  2.099330357142857 13.815117104329312  C 2.1558779761904763 13.720723917672109  2.2353980654761907 13.590371421812158  2.337890625 13.424059616749467  C 2.4403831845238098 13.257747811686775  2.528738839285714 13.084693636148568  2.602957589285714 12.904897090134849  C 2.677176339285714 12.725100544121124  2.7496279761904763 12.527324343506034  2.8203125 12.311568488289566  C 1.9438244047619044 11.664300922640171  1.2546502976190477 10.868701206529453  0.7527901785714285 9.924769339957416  C 0.2509300595238095 8.98083747338538  0 7.973976815708539  0 6.904187366926898  C 0 5.654601372131535  0.3322172619047619 4.499408563993374  0.9966517857142857 3.4386089425124204  C 1.6610863095238098 2.377809321031463  2.5676153273809526 1.5395079252424866  3.716238839285714 0.923704755145494  C 4.864862351190476 0.3079015850484973  6.11421130952381 0  7.464285714285714 0  C 8.81436011904762 0  10.063709077380953 0.3079015850484973  11.212332589285715 0.923704755145494  C 12.360956101190478 1.5395079252424866  13.26748511904762 2.377809321031463  13.931919642857144 3.4386089425124204  Z M 18.204799107142858 7.2547906316536555  C 18.734933035714285 8.216702152827063  19 9.25053229240596  19 10.356281050390347  C 19 11.435060326472675  18.749069940476193 12.444168440974684  18.247209821428573 13.38360539389638  C 17.745349702380956 14.323042346818076  17.0561755952381 15.116394606103619  16.1796875 15.763662171753017  C 16.250372023809522 15.979418026969482  16.322823660714285 16.177194227584575  16.397042410714285 16.356990773598294  C 16.47126116071429 16.536787319612017  16.559616815476193 16.709841495150226  16.662109375 16.87615330021292  C 16.76460193452381 17.042465105275607  16.844122023809526 17.172817601135556  16.900669642857142 17.26721078779276  C 16.957217261904763 17.361603974449963  17.049107142857146 17.494203927135082  17.176339285714285 17.66501064584812  C 17.30357142857143 17.835817364561155  17.384858630952383 17.94819020581973  17.420200892857142 18.002129169623846  C 17.4272693452381 18.011118996924534  17.441406250000004 18.031346108351077  17.462611607142858 18.062810503903478  C 17.48381696428572 18.09427489945588  17.499720982142858 18.116749467707596  17.510323660714285 18.130234208658624  C 17.52092633928572 18.143718949609653  17.53506324404762 18.166193517861366  17.552734375 18.19765791341377  C 17.57040550595238 18.22912230896617  17.58277529761905 18.253844334043055  17.58984375 18.271823988644428  L 17.616350446428573 18.339247693399575  C 17.616350446428573 18.339247693399575  17.623418898809526 18.36621717530163  17.637555803571427 18.42015613910575  C 17.651692708333336 18.474095102909864  17.653459821428573 18.503312041637095  17.642857142857142 18.50780695528744  C 17.632254464285715 18.51230186893778  17.62872023809524 18.54151880766501  17.632254464285715 18.595457771469125  C 17.611049107142858 18.72131535367873  17.565104166666668 18.82020345398628  17.494419642857142 18.892122072391768  C 17.42373511904762 18.964040690797255  17.345982142857142 18.99550508634966  17.261160714285715 18.98651525904897  C 16.9077380952381 18.92358646794417  16.603794642857146 18.85166784953868  16.349330357142858 18.770759403832507  C 15.260788690476193 18.41116631180506  14.27827380952381 17.835817364561155  13.401785714285715 17.04471256210078  C 12.765625 17.188549798911758  12.143601190476193 17.260468417317245  11.535714285714285 17.260468417317245  C 9.62016369047619 17.260468417317245  7.952008928571428 16.667139815471966  6.53125 15.480482611781406  C 6.941220238095239 15.516441920984152  7.252232142857142 15.53442157558552  7.464285714285714 15.53442157558552  C 8.602306547619047 15.53442157558552  9.69438244047619 15.332150461320085  10.740513392857144 14.927608232789211  C 11.786644345238097 14.52306600425834  12.71968005952381 13.943222143364089  13.539620535714285 13.18807665010646  C 14.423177083333334 12.36101253844334  15.101748511904765 11.408090844570618  15.575334821428571 10.32931156848829  C 16.04892113095238 9.25053229240596  16.285714285714285 8.108824225218829  16.285714285714285 6.904187366926898  C 16.285714285714285 6.211970664774071  16.204427083333332 5.52874378992193  16.041852678571427 4.854506742370475  C 16.953683035714285 5.492784480719185  17.674665178571427 6.292879110480245  18.204799107142858 7.2547906316536555  Z " fill-rule="nonzero" fill="#000000" stroke="none" transform="matrix(1 0 0 1 219 251 )" />
  </g>
</svg>