<?xml version="1.0" encoding="utf-8"?>
<svg version="1.1" xmlns:xlink="http://www.w3.org/1999/xlink" width="25px" height="18px" xmlns="http://www.w3.org/2000/svg">
  <g transform="matrix(1 0 0 1 -262 -251 )">
    <path d="M 23.604910714285715 6.9161931818181825  C 24.135044642857146 6.5838068181818175  24.600074404761905 6.2130681818181825  25 5.803977272727272  L 25 15.954545454545455  C 25 16.517045454545453  24.781436011904763 16.998579545454547  24.344308035714285 17.399147727272727  C 23.907180059523814 17.799715909090907  23.381696428571434 18  22.767857142857142 18  L 2.232142857142857 18  C 1.6183035714285716 18  1.0928199404761907 17.799715909090907  0.6556919642857144 17.399147727272727  C 0.2185639880952382 16.998579545454547  0 16.517045454545453  0 15.954545454545455  L 0 5.803977272727272  C 0.4092261904761906 6.221590909090908  0.8789062500000002 6.592329545454543  1.4090401785714286 6.9161931818181825  C 4.775855654761905 9.012784090909092  7.087053571428571 10.482954545454545  8.342633928571429 11.326704545454545  C 8.872767857142858 11.684659090909092  9.302920386904763 11.963778409090907  9.633091517857142 12.1640625  C 9.963262648809526 12.364346590909088  10.402715773809526 12.568892045454545  10.951450892857142 12.777698863636365  C 11.500186011904763 12.986505681818182  12.01171875 13.090909090909092  12.486049107142858 13.090909090909092  L 12.5 13.090909090909092  L 12.513950892857142 13.090909090909092  C 12.988281250000004 13.090909090909092  13.499813988095239 12.986505681818182  14.048549107142858 12.777698863636365  C 14.59728422619048 12.568892045454545  15.03673735119048 12.364346590909088  15.366908482142858 12.1640625  C 15.697079613095239 11.963778409090907  16.127232142857142 11.684659090909092  16.657366071428573 11.326704545454545  C 18.238467261904763 10.278409090909092  20.554315476190478 8.808238636363637  23.604910714285715 6.9161931818181825  Z M 24.337332589285715 0.6008522727272718  C 24.779110863095237 1.001420454545453  25 1.4829545454545456  25 2.045454545454546  C 25 2.7187499999999973  24.772135416666668 3.3622159090909087  24.31640625 3.9758522727272716  C 23.860677083333336 4.589488636363637  23.293340773809526 5.113636363636363  22.614397321428573 5.548295454545454  C 19.117373511904763 7.772727272727272  16.941034226190478 9.157670454545455  16.085379464285715 9.703125  C 15.992373511904765 9.76278409090909  15.794735863095239 9.892755681818182  15.492466517857142 10.093039772727273  C 15.19019717261905 10.293323863636363  14.93908110119048 10.455255681818182  14.739118303571427 10.578835227272727  C 14.539155505952381 10.702414772727272  14.297340029761907 10.840909090909092  14.013671875 10.994318181818183  C 13.730003720238097 11.147727272727273  13.462611607142858 11.262784090909092  13.211495535714285 11.339488636363635  C 12.960379464285715 11.416193181818183  12.727864583333334 11.454545454545455  12.513950892857142 11.454545454545455  L 12.5 11.454545454545455  L 12.486049107142858 11.454545454545455  C 12.272135416666668 11.454545454545455  12.039620535714286 11.416193181818183  11.788504464285714 11.339488636363635  C 11.537388392857142 11.262784090909092  11.269996279761905 11.147727272727273  10.986328125 10.994318181818183  C 10.702659970238097 10.840909090909092  10.460844494047619 10.702414772727272  10.260881696428571 10.578835227272727  C 10.060918898809526 10.455255681818182  9.809802827380953 10.293323863636363  9.507533482142858 10.093039772727273  C 9.205264136904763 9.892755681818182  9.007626488095239 9.76278409090909  8.914620535714286 9.703125  C 8.068266369047619 9.157670454545455  6.849888392857142 8.379971590909092  5.259486607142857 7.370028409090908  C 3.669084821428571 6.360085227272727  2.7157738095238098 5.7528409090909065  2.3995535714285716 5.548295454545454  C 1.8229166666666667 5.1903409090909065  1.2788318452380956 4.698153409090908  0.7672991071428573 4.071732954545454  C 0.2557663690476191 3.4453125  0 2.8636363636363633  0 2.326704545454546  C 0 1.6619318181818175  0.19298735119047628 1.107954545454543  0.5789620535714287 0.6647727272727282  C 0.9649367559523812 0.2215909090909074  1.5159970238095242 0  2.232142857142857 0  L 22.767857142857142 0  C 23.372395833333336 0  23.895554315476193 0.2002840909090886  24.337332589285715 0.6008522727272718  Z " fill-rule="nonzero" fill="#000000" stroke="none" transform="matrix(1 0 0 1 262 251 )" />
  </g>
</svg>