<?xml version="1.0" encoding="utf-8"?>
<svg version="1.1" xmlns:xlink="http://www.w3.org/1999/xlink" width="30px" height="31px" xmlns="http://www.w3.org/2000/svg">
  <g transform="matrix(1 0 0 1 -260 -58 )">
    <path d="M 18.3984375 19.01171875  C 19.978966346153744 17.37850560897476  20.769230769230862 15.413060897435857  20.769230769230862 13.115384615384857  C 20.769230769230862 10.817708333333332  19.978966346153744 8.852263621794952  18.3984375 7.219050480769191  C 16.817908653846256 5.5858373397434296  14.915865384615392 4.769230769230809  12.692307692307656 4.769230769230809  C 10.46874999999992 4.769230769230809  8.5667067307693 5.5858373397434296  6.9861778846153095 7.219050480769191  C 5.405649038461564 8.852263621794952  4.6153846153846905 10.817708333333332  4.6153846153846905 13.115384615384857  C 4.6153846153846905 15.413060897435857  5.405649038461564 17.37850560897476  6.9861778846153095 19.01171875  C 8.5667067307693 20.64493189102524  10.46874999999992 21.46153846153838  12.692307692307656 21.46153846153838  C 14.915865384615392 21.46153846153838  16.817908653846256 20.64493189102524  18.3984375 19.01171875  Z M 29.332932692307654 26.938701923076763  C 29.777644230769297 27.39823717948738  30 27.957131410256572  30 28.61538461538486  C 30 29.26121794871819  29.771634615384528 29.82011217948738  29.314903846153825 30.292067307691905  C 28.858173076923126 30.764022435897477  28.317307692307818 31  27.692307692307654 31  C 27.043269230769138 31  26.502403846153825 30.764022435897477  26.06971153846148 30.292067307691905  L 19.885817307692346 23.920673076923237  C 17.73437499999992 25.46073717948738  15.336538461538437 26.23076923076919  12.692307692307656 26.23076923076919  C 10.973557692307573 26.23076923076919  9.329927884615309 25.88611778846162  7.761418269230863 25.196814903845954  C 6.192908653846172 24.50751201923081  4.840745192307654 23.57602163461514  3.70492788461531 22.40234375  C 2.5691105769229647 21.22866586538486  1.667668269230863 19.83143028846162  1.0006009615385176 18.21063701923081  C 0.3335336538461726 16.58984375  0 14.891426282051523  0 13.115384615384857  C 0 11.339342948718189  0.3335336538461726 9.64092548076919  1.0006009615385176 8.020132211538382  C 1.667668269230863 6.399338942308094  2.5691105769229647 5.002103365384857  3.70492788461531 3.8284254807691904  C 4.840745192307654 2.654747596154047  6.192908653846172 1.7232572115383813  7.761418269230863 1.0339543269232376  C 9.329927884615309 0.3446514423080939  10.973557692307573 0  12.692307692307656 0  C 14.411057692307736 0  16.0546875 0.3446514423080939  17.623197115384688 1.0339543269232376  C 19.191706730769138 1.7232572115383813  20.543870192307654 2.654747596154047  21.6796875 3.8284254807691904  C 22.815504807692346 5.002103365384857  23.716947115384688 6.399338942308094  24.384014423077033 8.020132211538382  C 25.051081730769138 9.64092548076919  25.384615384615312 11.339342948718189  25.384615384615312 13.115384615384857  C 25.384615384615312 15.84775641025657  24.639423076923126 18.325520833333336  23.14903846153852 20.54867788461514  L 29.332932692307654 26.938701923076763  Z " fill-rule="nonzero" fill="#000000" stroke="none" transform="matrix(1 0 0 1 260 58 )" />
  </g>
</svg>