<?xml version="1.0" encoding="utf-8"?>
<svg version="1.1" xmlns:xlink="http://www.w3.org/1999/xlink" width="23px" height="26px" xmlns="http://www.w3.org/2000/svg">
  <g transform="matrix(1 0 0 1 -176 -410 )">
    <path d="M 22.62065972222222 10.296875  C 22.87355324074074 10.494791666666664  23 10.729166666666663  23 11.000000000000002  L 23 13  C 23 15.302083333333332  22.018373842592595 17.3046875  20.05512152777778 19.0078125  C 18.091869212962965 20.7109375  15.666087962962964 21.6875  12.777777777777779 21.9375  L 12.777777777777779 24  L 17.88888888888889 24  C 18.234953703703702 24  18.53443287037037 24.098958333333332  18.78732638888889 24.296875  C 19.04021990740741 24.494791666666668  19.16666666666667 24.729166666666668  19.166666666666668 25  C 19.16666666666667 25.270833333333332  19.04021990740741 25.505208333333332  18.78732638888889 25.703125  C 18.53443287037037 25.901041666666668  18.234953703703702 26  17.88888888888889 26  L 5.111111111111111 26  C 4.765046296296297 26  4.46556712962963 25.901041666666668  4.212673611111111 25.703125  C 3.959780092592592 25.505208333333332  3.833333333333333 25.270833333333332  3.833333333333333 25  C 3.833333333333333 24.729166666666668  3.959780092592592 24.494791666666668  4.212673611111111 24.296875  C 4.46556712962963 24.098958333333332  4.765046296296297 24  5.111111111111111 24  L 10.222222222222221 24  L 10.222222222222221 21.9375  C 7.333912037037037 21.6875  4.908130787037037 20.7109375  2.9448784722222223 19.0078125  C 0.9816261574074073 17.3046875  0 15.302083333333332  0 13  L 0 11.000000000000002  C 0 10.729166666666663  0.12644675925925927 10.494791666666664  0.3793402777777778 10.296875  C 0.6322337962962963 10.098958333333332  0.9317129629629631 10  1.2777777777777777 10  C 1.6238425925925928 10  1.9233217592592593 10.098958333333332  2.1762152777777777 10.296875  C 2.4291087962962963 10.494791666666664  2.5555555555555554 10.729166666666663  2.5555555555555554 11.000000000000002  L 2.5555555555555554 13  C 2.5555555555555554 14.92708333333333  3.430700231481482 16.57552083333333  5.180989583333333 17.9453125  C 6.931278935185185 19.315104166666664  9.03761574074074 20  11.5 20  C 13.96238425925926 20  16.068721064814813 19.315104166666664  17.819010416666668 17.9453125  C 19.56929976851852 16.57552083333333  20.444444444444443 14.92708333333333  20.444444444444443 13  L 20.444444444444443 11.000000000000002  C 20.444444444444443 10.729166666666663  20.570891203703706 10.494791666666664  20.82378472222222 10.296875  C 21.07667824074074 10.098958333333332  21.37615740740741 10  21.72222222222222 10  C 22.06828703703704 10  22.367766203703706 10.098958333333332  22.62065972222222 10.296875  Z M 16.01215277777778 1.4687499999999991  C 17.263310185185187 2.447916666666665  17.88888888888889 3.6249999999999987  17.88888888888889 5  L 17.88888888888889 13  C 17.88888888888889 14.375  17.263310185185187 15.552083333333332  16.01215277777778 16.53125  C 14.76099537037037 17.510416666666668  13.256944444444443 18  11.5 18  C 9.743055555555557 18  8.239004629629632 17.510416666666668  6.987847222222221 16.53125  C 5.736689814814816 15.552083333333332  5.111111111111111 14.375  5.111111111111111 13  L 5.111111111111111 5  C 5.111111111111111 3.6249999999999987  5.736689814814816 2.447916666666665  6.987847222222221 1.4687499999999991  C 8.239004629629632 0.4895833333333359  9.743055555555557 0  11.5 0  C 13.256944444444443 0  14.76099537037037 0.4895833333333359  16.01215277777778 1.4687499999999991  Z " fill-rule="nonzero" fill="#000000" stroke="none" transform="matrix(1 0 0 1 176 410 )" />
  </g>
</svg>