<?xml version="1.0" encoding="utf-8"?>
<svg version="1.1" xmlns:xlink="http://www.w3.org/1999/xlink" width="41px" height="32px" xmlns="http://www.w3.org/2000/svg">
  <g transform="matrix(1 0 0 1 -740 -115 )">
    <path d="M 13.784877232142858 11.447916666666668  C 14.356863839285714 11.96875  14.642857142857142 12.597222222222221  14.642857142857142 13.333333333333332  C 14.642857142857142 14.069444444444443  14.356863839285714 14.697916666666668  13.784877232142858 15.21875  C 13.212890625 15.739583333333332  12.522693452380953 16  11.714285714285714 16  C 10.905877976190478 16  10.215680803571429 15.739583333333332  9.643694196428571 15.21875  C 9.071707589285715 14.697916666666668  8.785714285714285 14.069444444444443  8.785714285714285 13.333333333333332  C 8.785714285714285 12.597222222222221  9.071707589285715 11.96875  9.643694196428571 11.447916666666668  C 10.215680803571429 10.927083333333332  10.905877976190478 10.666666666666668  11.714285714285714 10.666666666666668  C 12.522693452380953 10.666666666666668  13.212890625 10.927083333333332  13.784877232142858 11.447916666666668  Z M 22.570591517857142 11.447916666666668  C 23.142578125 11.96875  23.428571428571427 12.597222222222221  23.428571428571427 13.333333333333332  C 23.428571428571427 14.069444444444443  23.142578125 14.697916666666668  22.570591517857142 15.21875  C 21.998604910714285 15.739583333333332  21.30840773809524 16  20.5 16  C 19.691592261904763 16  19.001395089285715 15.739583333333332  18.429408482142858 15.21875  C 17.857421875 14.697916666666668  17.57142857142857 14.069444444444443  17.57142857142857 13.333333333333332  C 17.57142857142857 12.597222222222221  17.857421875 11.96875  18.429408482142858 11.447916666666668  C 19.001395089285715 10.927083333333332  19.691592261904763 10.666666666666668  20.5 10.666666666666668  C 21.30840773809524 10.666666666666668  21.998604910714285 10.927083333333332  22.570591517857142 11.447916666666668  Z M 31.356305803571427 11.447916666666668  C 31.928292410714285 11.96875  32.214285714285715 12.597222222222221  32.214285714285715 13.333333333333332  C 32.214285714285715 14.069444444444443  31.928292410714285 14.697916666666668  31.356305803571427 15.21875  C 30.784319196428573 15.739583333333332  30.094122023809526 16  29.285714285714285 16  C 28.47730654761905 16  27.787109375 15.739583333333332  27.215122767857142 15.21875  C 26.643136160714285 14.697916666666668  26.357142857142858 14.069444444444443  26.357142857142858 13.333333333333332  C 26.357142857142858 12.597222222222221  26.643136160714285 11.96875  27.215122767857142 11.447916666666668  C 27.787109375 10.927083333333332  28.47730654761905 10.666666666666668  29.285714285714285 10.666666666666668  C 30.094122023809526 10.666666666666668  30.784319196428573 10.927083333333332  31.356305803571427 11.447916666666668  Z M 29.228515625 4.114583333333332  C 26.521112351190478 3.1493055555555536  23.611607142857142 2.666666666666668  20.5 2.666666666666668  C 17.388392857142858 2.666666666666668  14.478887648809526 3.1493055555555536  11.771484375 4.114583333333332  C 9.064081101190476 5.079861111111111  6.913411458333334 6.381944444444443  5.319475446428571 8.020833333333332  C 3.7255394345238098 9.659722222222218  2.9285714285714284 11.430555555555554  2.9285714285714284 13.333333333333332  C 2.9285714285714284 14.88888888888889  3.473865327380953 16.37152777777778  4.564453125 17.78125  C 5.6550409226190474 19.19097222222222  7.191778273809525 20.40972222222222  9.174665178571429 21.4375  L 11.165178571428571 22.479166666666664  L 10.547433035714286 24.479166666666668  C 10.181361607142858 25.743055555555557  9.647507440476192 26.9375  8.945870535714285 28.0625  C 11.264322916666668 27.1875  13.361607142857142 26  15.237723214285714 24.5  L 16.22154017857143 23.708333333333336  L 17.525669642857142 23.833333333333336  C 18.578125 23.944444444444443  19.569568452380953 24  20.5 24  C 23.611607142857142 24  26.521112351190478 23.517361111111107  29.228515625 22.552083333333336  C 31.935918898809526 21.58680555555555  34.08658854166667 20.28472222222222  35.68052455357143 18.645833333333336  C 37.27446056547619 17.006944444444443  38.07142857142857 15.23611111111111  38.07142857142857 13.333333333333332  C 38.07142857142857 11.430555555555554  37.27446056547619 9.659722222222218  35.68052455357143 8.020833333333332  C 34.08658854166667 6.381944444444443  31.935918898809526 5.079861111111111  29.228515625 4.114583333333332  Z M 39.375558035714285 8.15625  C 40.4585193452381 9.802083333333332  41 11.527777777777775  41 13.333333333333332  C 41 15.75  40.08482142857143 17.982638888888886  38.254464285714285 20.03125  C 36.42410714285714 22.079861111111107  33.937872023809526 23.697916666666664  30.795758928571427 24.885416666666668  C 27.653645833333336 26.072916666666668  24.22172619047619 26.666666666666668  20.5 26.666666666666668  C 19.432291666666668 26.666666666666668  18.326450892857142 26.61111111111111  17.18247767857143 26.5  C 14.162388392857142 28.930555555555557  10.65420386904762 30.61111111111111  6.657924107142857 31.541666666666668  C 5.910528273809525 31.73611111111111  5.041108630952381 31.88888888888889  4.049665178571429 32  L 3.935267857142857 32  C 3.7064732142857144 32  3.5005580357142856 31.927083333333332  3.3175223214285716 31.78125  C 3.134486607142857 31.635416666666668  3.0124627976190483 31.444444444444443  2.951450892857143 31.208333333333332  L 2.951450892857143 31.1875  C 2.905691964285715 31.131944444444446  2.9018787202380953 31.048611111111114  2.9400111607142856 30.9375  C 2.9781436011904767 30.82638888888889  2.993396577380953 30.756944444444443  2.9857700892857144 30.729166666666668  C 2.9781436011904767 30.70138888888889  3.0124627976190483 30.635416666666668  3.0887276785714284 30.53125  L 3.2260044642857144 30.34375  C 3.2260044642857144 30.34375  3.2793898809523814 30.284722222222225  3.3861607142857144 30.166666666666668  C 3.4929315476190483 30.04861111111111  3.553943452380953 29.98611111111111  3.5691964285714284 29.979166666666668  C 3.6759672619047623 29.868055555555557  3.912388392857143 29.628472222222225  4.278459821428571 29.260416666666668  C 4.64453125 28.89236111111111  4.907645089285714 28.628472222222225  5.067801339285714 28.46875  C 5.227957589285714 28.309027777777775  5.464378720238096 28.034722222222225  5.777064732142857 27.645833333333332  C 6.0897507440476195 27.256944444444443  6.337611607142857 26.902777777777775  6.520647321428571 26.583333333333332  C 6.703683035714286 26.26388888888889  6.909598214285714 25.854166666666668  7.138392857142857 25.354166666666668  C 7.3671875 24.854166666666668  7.565476190476191 24.32638888888889  7.733258928571429 23.770833333333336  C 5.338541666666667 22.53472222222222  3.450985863095238 21.006944444444443  2.070591517857143 19.1875  C 0.6901971726190476 17.36805555555555  0 15.416666666666668  0 13.333333333333332  C 0 11.527777777777775  0.5414806547619047 9.802083333333332  1.6244419642857142 8.15625  C 2.7074032738095237 6.510416666666668  4.1640625 5.090277777777775  5.994419642857143 3.895833333333332  C 7.824776785714286 2.7013888888888857  10.005952380952381 1.7534722222222179  12.537946428571429 1.0520833333333321  C 15.069940476190478 0.35069444444444287  17.723958333333336 0  20.5 0  C 23.276041666666668 0  25.930059523809526 0.35069444444444287  28.462053571428573 1.0520833333333321  C 30.994047619047624 1.7534722222222179  33.175223214285715 2.7013888888888857  35.00558035714286 3.895833333333332  C 36.83593750000001 5.090277777777775  38.29259672619048 6.510416666666668  39.375558035714285 8.15625  Z " fill-rule="nonzero" fill="#000000" stroke="none" transform="matrix(1 0 0 1 740 115 )" />
  </g>
</svg>