<?xml version="1.0" encoding="utf-8"?>
<svg version="1.1" xmlns:xlink="http://www.w3.org/1999/xlink" width="35px" height="45px" xmlns="http://www.w3.org/2000/svg">
  <g transform="matrix(1 0 0 1 -845 -97 )">
    <path d="M 34.767578125 32.5341796875  C 34.922526041666664 34.00878906249999  35 35.576171875  35 37.236328125  C 35 39.365234375  34.43033854166667 41.19140625  33.291015625 42.71484375  C 32.151692708333336 44.23828125  30.779947916666668 45  29.17578125 45  L 5.82421875 45  C 4.220052083333333 45  2.848307291666667 44.23828125  1.7089843750000002 42.71484375  C 0.5696614583333335 41.19140625  0 39.365234375  0 37.236328125  C 0 35.576171875  0.07747395833333351 34.00878906249999  0.2324218750000002 32.5341796875  C 0.38736979166666685 31.059570312499993  0.6744791666666669 29.5751953125  1.0937500000000002 28.0810546875  C 1.5130208333333337 26.5869140625  2.0462239583333335 25.3076171875  2.693359375 24.243164062500004  C 3.340494791666667 23.178710937499996  4.197265625 22.3095703125  5.263671875 21.6357421875  C 6.330078125 20.9619140625  7.555989583333334 20.625  8.94140625 20.625  C 11.329427083333334 23.124999999999996  14.182291666666668 24.375000000000004  17.5 24.375000000000004  C 20.81770833333334 24.375000000000004  23.670572916666668 23.124999999999996  26.05859375 20.625  C 27.444010416666668 20.625  28.669921875 20.9619140625  29.736328125 21.6357421875  C 30.802734375 22.3095703125  31.659505208333336 23.178710937499996  32.306640625 24.243164062500004  C 32.95377604166667 25.3076171875  33.486979166666664 26.5869140625  33.90625 28.0810546875  C 34.325520833333336 29.5751953125  34.612630208333336 31.059570312499993  34.767578125 32.5341796875  Z M 24.923828125 3.2958984375  C 26.974609375 5.4931640625  28 8.144531250000002  28 11.25  C 28 14.355468749999998  26.974609375 17.0068359375  24.923828125 19.2041015625  C 22.873046875 21.4013671875  20.3984375 22.5  17.5 22.5  C 14.6015625 22.5  12.126953125 21.4013671875  10.076171875 19.2041015625  C 8.025390625 17.0068359375  7 14.355468749999998  7 11.25  C 7 8.144531250000002  8.025390625 5.4931640625  10.076171875 3.2958984375  C 12.126953125 1.0986328125  14.6015625 0  17.5 0  C 20.3984375 0  22.873046875 1.0986328125  24.923828125 3.2958984375  Z " fill-rule="nonzero" fill="#000000" stroke="none" transform="matrix(1 0 0 1 845 97 )" />
  </g>
</svg>