<?xml version="1.0" encoding="utf-8"?>
<svg version="1.1" xmlns:xlink="http://www.w3.org/1999/xlink" width="27px" height="28px" xmlns="http://www.w3.org/2000/svg">
  <g transform="matrix(1 0 0 1 -608 -8 )">
    <path d="M 26.363636363636363 20.929292929292927  C 26.78787878787879 21.369248035914698  27 21.903479236812565  27 22.531986531986533  C 27 23.160493827160497  26.78787878787879 23.694725028058357  26.363636363636363 24.134680134680135  L 23.272727272727273 27.34006734006734  C 22.84848484848485 27.780022446689113  22.333333333333332 28  21.727272727272727 28  C 21.121212121212125 28  20.60606060606061 27.780022446689113  20.181818181818183 27.34006734006734  L 13.5 20.410774410774412  L 6.818181818181818 27.34006734006734  C 6.3939393939393945 27.780022446689113  5.878787878787879 28  5.2727272727272725 28  C 4.666666666666667 28  4.151515151515152 27.780022446689113  3.7272727272727275 27.34006734006734  L 0.6363636363636364 24.134680134680135  C 0.21212121212121232 23.694725028058357  0 23.160493827160497  0 22.531986531986533  C 0 21.903479236812565  0.21212121212121232 21.369248035914698  0.6363636363636364 20.929292929292927  L 7.3181818181818175 14  L 0.6363636363636364 7.070707070707069  C 0.21212121212121232 6.630751964085295  0 6.09652076318743  0 5.468013468013468  C 0 4.839506172839506  0.21212121212121232 4.3052749719416346  0.6363636363636364 3.8653198653198664  L 3.7272727272727275 0.65993265993266  C 4.151515151515152 0.21997755331088564  4.666666666666667 0  5.2727272727272725 0  C 5.878787878787879 0  6.3939393939393945 0.21997755331088564  6.818181818181818 0.65993265993266  L 13.5 7.58922558922559  L 20.181818181818183 0.65993265993266  C 20.60606060606061 0.21997755331088564  21.121212121212125 0  21.727272727272727 0  C 22.333333333333332 0  22.84848484848485 0.21997755331088564  23.272727272727273 0.65993265993266  L 26.363636363636363 3.8653198653198664  C 26.78787878787879 4.3052749719416346  27 4.839506172839506  27 5.468013468013468  C 27 6.09652076318743  26.78787878787879 6.630751964085295  26.363636363636363 7.070707070707069  L 19.68181818181818 14  L 26.363636363636363 20.929292929292927  Z " fill-rule="nonzero" fill="#000000" stroke="none" transform="matrix(1 0 0 1 608 8 )" />
  </g>
</svg>