<?xml version="1.0" encoding="utf-8"?>
<svg version="1.1" xmlns:xlink="http://www.w3.org/1999/xlink" width="39px" height="28px" xmlns="http://www.w3.org/2000/svg">
  <g transform="matrix(1 0 0 1 -262 -851 )">
    <path d="M 11.420824295010847 8.315151515151516  L 8.544468546637743 17.30909090909091  L 11.437744034707158 17.30909090909091  L 11.420824295010847 8.315151515151516  Z M 24.99045553145336 18.632727272727273  C 25.599566160520606 17.343030303030304  25.904121475054232 15.781818181818185  25.904121475054232 13.94909090909091  C 25.904121475054232 11.98060606060606  25.619305856832973 10.396767676767675  25.049674620390455 9.197575757575757  C 24.480043383947944 7.998383838383834  23.653796095444683 7.398787878787873  22.570932754880694 7.39878787878788  L 21 7.39878787878788  L 21 20.56727272727273  L 22.53709327548807 20.56727272727273  C 23.56355748373102 20.56727272727273  24.381344902386115 19.922424242424242  24.99045553145336 18.632727272727273  Z M 16.02299349240781 0.33939393939393847  C 16.135791757049894 0.56565656565656  16.19219088937093 0.8371717171717132  16.19219088937093 1.1539393939393952  L 16.209110629067244 26.812121212121212  C 16.209110629067247 27.128888888888888  16.155531453362258 27.400404040404037  16.048373101952276 27.62666666666667  C 15.9412147505423 27.85292929292929  15.808676789587851 27.966060606060605  15.650759219088936 27.966060606060605  L 11.996095444685468 27.966060606060605  C 11.83817787418655 27.966060606060605  11.705639913232105 27.85292929292929  11.598481561822126 27.62666666666667  C 11.491323210412148 27.400404040404037  11.437744034707158 27.128888888888888  11.437744034707158 26.812121212121212  L 11.437744034707158 24.707878787878787  L 6.51409978308026 24.707878787878787  L 5.5835140997830806 27.456969696969697  C 5.470715835140998 27.796363636363637  5.312798264642083 27.966060606060605  5.109761388286334 27.966060606060605  L 0.5921908893709327 27.966060606060605  C 0.35531453362255966 27.966060606060605  0.18329718004338394 27.762424242424242  0.07613882863340564 27.355151515151515  C -0.03101952277657267 26.947878787878786  -0.011279826464208248 26.55191919191919  0.13535791757049892 26.167272727272728  L 9.542733188720174 0.4751515151515151  C 9.644251626898047 0.1583838383838332  9.79652928416486 0  9.999566160520608 0  L 15.616919739696314 0  C 15.77483731019523 0  15.91019522776573 0.11313131313131075  16.02299349240781 0.33939393939393847  Z M 28.052928416485898 3.6993939393939383  C 29.47418655097614 6.165656565656562  30.184815618221258 9.582222222222219  30.184815618221258 13.94909090909091  C 30.184815618221258 18.315959595959598  29.477006507592193 21.743838383838376  28.061388286334058 24.232727272727274  C 26.645770065075926 26.72161616161616  24.815618221258138 27.966060606060605  22.570932754880694 27.966060606060605  L 18.002603036876355 27.966060606060605  C 17.84468546637744 27.966060606060605  17.709327548806943 27.85292929292929  17.59652928416486 27.62666666666667  C 17.48373101952278 27.400404040404037  17.427331887201735 27.128888888888888  18 26.812121212121212  L 18 1.1539393939393952  C 17.427331887201735 0.8371717171717132  17.48373101952278 0.56565656565656  17.59652928416486 0.33939393939393847  C 17.709327548806943 0.11313131313131075  17.84468546637744 0  18.002603036876355 0  L 22.53709327548807 0  C 24.79305856832972 0  26.631670281995664 1.2331313131313117  28.052928416485898 3.6993939393939383  Z M 32.807375271149674 13.100606060606061  L 32.82429501084599 13.983030303030302  C 32.82429501084599 14.23191919191919  32.821475054229936 14.56  32.81583514099783 14.967272727272727  C 32.81019522776573 15.374545454545455  32.765075921908895 16.18343434343434  32.68047722342733 17.393939393939394  C 32.595878524945775 18.604444444444443  32.474620390455534 19.758383838383832  32.31670281995662 20.855757575757575  C 32.1587852494577 21.953131313131312  31.90780911062907 23.17494949494949  31.563774403470717 24.52121212121212  C 31.219739696312363 25.867474747474745  30.805206073752714 27.027070707070703  30.320173535791756 28  L 29.457266811279826 28  C 29.885900216919744 26.98181818181818  30.260954446854665 25.799595959595955  30.582429501084597 24.453333333333333  C 30.903904555314533 23.107070707070704  31.137960954446854 21.84  31.284598698481563 20.652121212121212  C 31.43123644251627 19.46424242424242  31.54967462039046 18.355555555555554  31.63991323210412 17.326060606060604  C 31.73015184381779 16.296565656565654  31.780911062906725 15.476363636363637  31.792190889370932 14.865454545454545  L 31.80911062906724 13.94909090909091  C 31.80911062906724 13.768080808080807  31.806290672451194 13.513535353535353  31.80065075921909 13.185454545454547  C 31.79501084598699 12.857373737373736  31.75271149674621 12.178585858585857  31.673752711496746 11.149090909090908  C 31.59479392624729 10.119595959595959  31.481995661605207 9.084444444444443  31.335357917570498 8.043636363636363  C 31.188720173535796 7.002828282828281  30.957483731019522 5.741414141414134  30.641648590021692 4.259393939393939  C 30.325813449023865 2.7773737373737335  29.953579175704995 1.3688888888888853  29.524945770065074 0.03393939393939416  L 30.252494577006505 0.03393939393939416  C 30.71496746203905 1.0973737373737351  31.121041214750544 2.307878787878787  31.470715835140997 3.665454545454544  C 31.82039045553146 5.023030303030304  32.077006507592195 6.2844444444444445  32.24056399132321 7.449696969696971  C 32.40412147505423 8.614949494949492  32.533839479392626 9.701010101010098  32.62971800433839 10.707878787878789  C 32.72559652928417 11.714747474747472  32.78481561822126 12.512323232323233  32.807375271149674 13.100606060606061  Z M 35.92060737527115 13.100606060606061  L 35.93752711496746 13.983030303030302  C 35.93752711496746 14.23191919191919  35.934707158351415 14.56  35.929067245119306 14.967272727272727  C 35.923427331887204 15.374545454545455  35.87830802603037 16.18343434343434  35.793709327548804 17.393939393939394  C 35.70911062906725 18.604444444444443  35.58785249457701 19.758383838383832  35.42993492407809 20.855757575757575  C 35.27201735357918 21.953131313131312  35.018221258134496 23.17494949494949  34.668546637744036 24.52121212121212  C 34.318872017353584 25.867474747474745  33.901518438177874 27.027070707070703  33.41648590021692 28  L 32.55357917570499 28  C 32.9822125813449 26.98181818181818  33.35726681127982 25.799595959595955  33.67874186550976 24.453333333333333  C 34.00021691973969 23.107070707070704  34.23427331887202 21.84  34.380911062906726 20.652121212121212  C 34.52754880694143 19.46424242424242  34.64598698481562 18.355555555555554  34.73622559652929 17.326060606060604  C 34.82646420824295 16.296565656565654  34.87722342733189 15.476363636363637  34.888503253796095 14.865454545454545  L 34.90542299349241 13.94909090909091  C 34.90542299349241 13.768080808080807  34.90260303687636 13.513535353535353  34.89696312364425 13.185454545454547  C 34.89132321041215 12.857373737373736  34.849023861171375 12.178585858585857  34.77006507592191 11.149090909090908  C 34.69110629067245 10.119595959595959  34.58112798264642 9.084444444444443  34.44013015184382 8.043636363636363  C 34.29913232104122 7.002828282828281  34.070715835141 5.741414141414134  33.75488069414317 4.259393939393939  C 33.439045553145334 2.7773737373737335  33.06681127982647 1.3688888888888853  32.63817787418655 0.03393939393939416  L 33.36572668112798 0.03393939393939416  C 33.82819956616052 1.0973737373737351  34.23427331887202 2.307878787878787  34.58394793926247 3.665454545454544  C 34.93362255965293 5.023030303030304  35.19023861171367 6.2844444444444445  35.353796095444686 7.449696969696971  C 35.51735357917571 8.614949494949492  35.647071583514105 9.701010101010098  35.74295010845987 10.707878787878789  C 35.83882863340564 11.714747474747472  35.89804772234274 12.512323232323233  35.92060737527115 13.100606060606061  Z M 38.966160520607374 13.100606060606061  L 39 13.983030303030302  C 39 14.23191919191919  38.99718004338395 14.56  38.99154013015185 14.967272727272727  C 38.985900216919745 15.374545454545455  38.9407809110629 16.18343434343434  38.856182212581345 17.393939393939394  C 38.77158351409978 18.604444444444443  38.65032537960955 19.758383838383832  38.49240780911063 20.855757575757575  C 38.33449023861172 21.953131313131312  38.08351409978308 23.17494949494949  37.73947939262473 24.52121212121212  C 37.39544468546639 25.867474747474745  36.98091106290673 27.027070707070703  36.49587852494577 28  L 35.63297180043384 28  C 36.06160520607376 26.98181818181818  36.433839479392624 25.799595959595955  36.74967462039046 24.453333333333333  C 37.06550976138829 23.107070707070704  37.296746203904554 21.84  37.44338394793926 20.652121212121212  C 37.59002169197397 19.46424242424242  37.70845986984816 18.355555555555554  37.79869848156182 17.326060606060604  C 37.888937093275494 16.296565656565654  37.939696312364426 15.476363636363637  37.950976138828636 14.865454545454545  L 37.96789587852494 13.94909090909091  C 37.96789587852494 13.768080808080807  37.9650759219089 13.513535353535353  37.95943600867679 13.185454545454547  C 37.95379609544469 12.857373737373736  37.91149674620391 12.178585858585857  37.83253796095445 11.149090909090908  C 37.75357917570499 10.119595959595959  37.64360086767896 9.084444444444443  37.50260303687635 8.043636363636363  C 37.36160520607376 7.002828282828281  37.13318872017354 5.741414141414134  36.8173535791757 4.259393939393939  C 36.501518438177875 2.7773737373737335  36.12928416485901 1.3688888888888853  35.70065075921909 0.03393939393939416  L 36.42819956616052 0.03393939393939416  C 36.89067245119306 1.0973737373737351  37.296746203904554 2.307878787878787  37.64642082429501 3.665454545454544  C 37.99609544468547 5.023030303030304  38.25271149674621 6.2844444444444445  38.41626898047723 7.449696969696971  C 38.57982646420825 8.614949494949492  38.70954446854664 9.701010101010098  38.80542299349241 10.707878787878789  C 38.90130151843818 11.714747474747472  38.95488069414317 12.512323232323233  38.966160520607374 13.100606060606061  Z " fill-rule="nonzero" fill="#000000" stroke="none" transform="matrix(1 0 0 1 262 851 )" />
  </g>
</svg>