<?xml version="1.0" encoding="utf-8"?>
<svg version="1.1" xmlns:xlink="http://www.w3.org/1999/xlink" width="39px" height="28px" xmlns="http://www.w3.org/2000/svg">
  <g transform="matrix(1 0 0 1 -214 -851 )">
    <path d="M 7.508370535714286 20.73815461346633  C 7.508370535714286 20.85453034081463  7.435825892857143 20.91271820448878  7.290736607142857 20.91271820448878  C 7.261718750000001 20.91271820448878  7.218191964285715 20.90108063175395  7.16015625 20.87780548628429  C 5.912388392857143 20.214463840399006  4.6900111607142865 19.370739817123855  3.4930245535714284 18.346633416458854  C 2.296037946428571 17.322527015793845  1.2840401785714286 16.275145469659183  0.45703125 15.204488778054863  C 0.15234375 14.855361596009976  0 14.453865336658353  0 14  C 0 13.895261845386532  0.01450892857142857 13.784704904405652  0.04352678571428571 13.668329177057355  C 0.07254464285714286 13.55195344970906  0.10156250000000001 13.447215295095592  0.13058035714285712 13.354114713216957  C 0.1595982142857143 13.261014131338321  0.21037946428571433 13.156275976724853  0.28292410714285715 13.03990024937656  C 0.35546875 12.923524522028261  0.41713169642857145 12.830423940149625  0.46791294642857145 12.760598503740649  C 0.5186941964285715 12.690773067331673  0.5948660714285715 12.591853699085618  0.6964285714285714 12.463840399002493  C 0.7979910714285716 12.335827098919369  0.8705357142857143 12.248545303408145  0.9140625 12.201995012468828  C 0.9575892857142857 12.15544472152951  1.044642857142857 12.065253532834578  1.1752232142857144 11.93142144638404  C 1.3058035714285716 11.7975893599335  1.3856026785714288 11.713216957605985  1.4146205357142858 11.678304239401497  C 4.084263392857143 8.757273482959267  7.36328125 6.633416458852868  11.251674107142858 5.306733167082293  C 9.655691964285715 3.0024937655860344  8.857700892857144 1.7747298420615114  8.857700892857144 1.6234413965087273  C 8.857700892857144 1.4023275145469638  8.981026785714286 1.2335827098919356  9.227678571428571 1.1172069825436397  C 10.910714285714286 0.3724023275145445  11.839285714285714 0  12.013392857142858 0  C 12.274553571428571 0  12.477678571428573 0.09310058187863612  12.622767857142858 0.2793017456359115  L 15.321428571428571 4.276807980049874  C 16.65625 4.055694098088111  18.049107142857142 3.9451371571072333  19.5 3.9451371571072333  C 23.359375 3.9451371571072333  26.96847098214286 4.745220282626764  30.327287946428573 6.345386533665835  C 33.68610491071429 7.945552784704902  36.43191964285714 10.09559434746467  38.56473214285714 12.795511221945137  C 38.854910714285715 13.156275976724853  39 13.557772236076476  39 14  C 39 14.442227763923524  38.854910714285715 14.843724023275144  38.56473214285714 15.204488778054863  C 37.244419642857146 16.85702410640066  35.65931919642858 18.332086450540313  33.80943080357142 19.629675810473813  C 31.959542410714285 20.927265170407313  29.93917410714286 21.94846217788861  27.748325892857142 22.693266832917708  C 29.344308035714292 24.997506234413965  30.142299107142858 26.225270157938485  30.142299107142858 26.376558603491272  C 30.142299107142858 26.609310058187862  30.018973214285715 26.778054862842893  29.772321428571427 26.88279301745636  C 28.089285714285715 27.627597672485457  27.16796875 28  27.008370535714285 28  C 26.73270089285715 28  26.52232142857143 27.906899418121363  26.377232142857142 27.720698254364088  L 23.678571428571427 23.723192019950126  L 22.285714285714285 21.64588528678304  L 12.622767857142858 7.331670822942644  L 12.775111607142858 7.2094763092269325  C 11.933593750000002 7.488778054862843  11.215401785714286 7.762261014131337  10.620535714285714 8.029925187032418  C 10.6640625 8.088113050706564  11.585379464285715 9.449709060681627  13.384486607142858 12.114713216957606  C 15.18359375 14.779717373233584  16.946428571428573 17.392352452202825  18.67299107142857 19.952618453865338  C 20.39955357142857 22.512884455527846  21.262834821428573 23.810473815461346  21.262834821428573 23.845386533665835  C 21.262834821428573 23.92684954280964  21.197544642857142 23.979218620116377  21.066964285714285 24.002493765586035  C 20.878348214285715 24.037406483790523  20.356026785714285 24.05486284289277  19.5 24.05486284289277  C 18.67299107142857 24.05486284289277  18.23772321428571 24.014131338320865  18.19419642857143 23.93266832917706  L 8.270089285714285 9.251870324189527  C 7.704241071428571 9.577722360764751  7.109375000000001 9.973399833748958  6.485491071428571 10.438902743142146  C 6.833705357142857 10.939318370739818  8.386160714285715 13.22901080631754  11.142857142857142 17.30798004987531  C 13.899553571428575 21.386949293433084  15.277901785714286 23.449709060681627  15.277901785714286 23.496259351620946  C 15.277901785714286 23.612635078969245  15.19810267857143 23.67082294264339  15.038504464285714 23.67082294264339  C 14.835379464285717 23.67082294264339  14.236886160714288 23.542809642560265  13.243024553571429 23.286783042394013  C 12.249162946428573 23.030756442227762  11.723214285714288 22.867830423940152  11.665178571428571 22.798004987531172  L 9.358258928571429 19.359102244389025  L 4.483258928571428 12.149625935162094  C 3.844866071428572 12.76641729010806  3.279017857142857 13.383208645054033  2.7857142857142856 14  C 2.8147321428571432 14.034912718204488  2.9453125000000004 14.18038237738986  3.177455357142857 14.436408977556109  C 3.4095982142857144 14.69243557772236  3.5764508928571432 14.890274314214464  3.678013392857143 15.029925187032418  L 7.508370535714286 20.73815461346633  Z M 28.227120535714285 16.38279301745636  C 27.545200892857146 17.482543640897756  26.58761160714286 18.399002493765586  25.354352678571427 19.13216957605985  L 26.420758928571427 20.720698254364088  C 30.381696428571427 19.428927680798004  33.64620535714286 17.188694929343303  36.214285714285715 14  C 33.60267857142858 10.776392352452202  30.272879464285715 8.512884455527844  26.224888392857142 7.2094763092269325  C 27.19698660714286 7.954280964256024  27.944196428571427 8.818370739817121  28.466517857142858 9.801745635910224  C 28.988839285714285 10.785120532003324  29.25 11.812136325852038  29.25 12.882793017456361  C 29.25 14.116375727348295  28.909040178571434 15.283042394014965  28.227120535714285 16.38279301745636  Z M 18.760044642857142 7.820448877805488  C 18.556919642857146 7.9833748960931  18.455357142857142 8.1812136325852  18.455357142857142 8.413965087281795  C 18.455357142857142 8.646716541978387  18.556919642857146 8.844555278470487  18.760044642857142 9.007481296758103  C 18.963169642857146 9.170407315045718  19.20982142857143 9.251870324189527  19.5 9.251870324189527  C 20.747767857142858 9.251870324189527  21.814174107142858 9.606816292601827  22.69921875 10.316708229426434  C 23.584263392857146 11.026600166251038  24.026785714285715 11.881961762261014  24.026785714285715 12.882793017456361  C 24.026785714285715 13.11554447215295  24.128348214285715 13.313383208645053  24.331473214285715 13.476309226932669  C 24.534598214285715 13.63923524522028  24.781250000000004 13.720698254364088  25.071428571428573 13.720698254364088  C 25.36160714285715 13.720698254364088  25.60825892857143 13.63923524522028  25.811383928571427 13.476309226932669  C 26.014508928571434 13.313383208645053  26.116071428571427 13.11554447215295  26.116071428571427 12.882793017456361  C 26.116071428571427 11.41645885286783  25.470424107142858 10.165419783873647  24.179129464285715 9.129675810473815  C 22.887834821428573 8.09393183707398  21.328125 7.5760598503740635  19.5 7.5760598503740635  C 19.20982142857143 7.5760598503740635  18.963169642857146 7.657522859517869  18.760044642857142 7.820448877805488  Z M 26.377232142857142 7.331670822942644  L 26.420758928571427 7.2793017456359115  L 26.224888392857142 7.2094763092269325  L 26.377232142857142 7.331670822942644  Z " fill-rule="nonzero" fill="#000000" stroke="none" transform="matrix(1 0 0 1 214 851 )" />
  </g>
</svg>