<?xml version="1.0" encoding="utf-8"?>
<svg version="1.1" xmlns:xlink="http://www.w3.org/1999/xlink" width="45px" height="28px" xmlns="http://www.w3.org/2000/svg">
  <g transform="matrix(1 0 0 1 -105 -851 )">
    <path d="M 14.853515625 18.575520833333332  C 16.245117187500004 18.575520833333332  17.04345703125 17.730902777777775  17.24853515625 16.041666666666668  L 21.796875 16.041666666666668  C 21.591796875 17.961805555555557  20.870361328125004 19.471788194444443  19.632568359375 20.571614583333332  C 18.394775390625 21.67144097222222  16.82373046875 22.221354166666664  14.91943359375 22.221354166666664  C 12.54638671875 22.221354166666664  10.682373046875 21.516493055555554  9.327392578125 20.106770833333332  C 7.972412109375001 18.697048611111107  7.294921875 16.776909722222218  7.294921875 14.346354166666668  C 7.294921875 11.988715277777779  7.97607421875 10.095920138888888  9.33837890625 8.66796875  C 10.70068359375 7.240017361111109  12.407226562500002 6.526041666666666  14.4580078125 6.526041666666666  C 16.6259765625 6.526041666666666  18.3251953125 7.0546875  19.5556640625 8.111979166666666  C 20.7861328125 9.169270833333334  21.49658203125 10.670138888888888  21.68701171875 12.614583333333334  L 17.2265625 12.614583333333334  C 17.1533203125 11.836805555555554  16.893310546875 11.235243055555554  16.446533203125 10.809895833333334  C 15.999755859375002 10.384548611111109  15.40283203125 10.171875  14.65576171875 10.171875  C 13.82080078125 10.171875  13.172607421875 10.539496527777779  12.711181640625 11.274739583333334  C 12.249755859375 12.009982638888888  12.01904296875 13.088541666666666  12.01904296875 14.510416666666668  C 12.01904296875 15.09375  12.055664062500002 15.604166666666668  12.12890625 16.041666666666668  C 12.2021484375 16.479166666666668  12.333984375 16.901475694444443  12.5244140625 17.30859375  C 12.714843750000002 17.715711805555557  13.0078125 18.028645833333332  13.4033203125 18.247395833333332  C 13.798828125 18.466145833333332  14.2822265625 18.575520833333332  14.853515625 18.575520833333332  Z M 32.156982421875 17.8828125  C 32.559814453125 17.421006944444443  32.80517578125 16.807291666666668  32.89306640625 16.041666666666668  L 37.41943359375 16.041666666666668  C 37.21435546875001 17.961805555555557  36.49658203125001 19.471788194444443  35.26611328125 20.571614583333332  C 34.03564453125 21.67144097222222  32.46826171875 22.221354166666664  30.56396484375 22.221354166666664  C 28.19091796875 22.221354166666664  26.326904296875 21.516493055555554  24.971923828125 20.106770833333332  C 23.616943359375004 18.697048611111107  22.939453125 16.776909722222218  22.939453125 14.346354166666668  C 22.939453125 11.988715277777779  23.62060546875 10.095920138888888  24.98291015625 8.66796875  C 26.34521484375 7.240017361111109  28.0517578125 6.526041666666666  30.1025390625 6.526041666666666  C 32.2705078125 6.526041666666666  33.9697265625 7.0546875  35.2001953125 8.111979166666666  C 36.43066406250001 9.169270833333334  37.14111328125 10.670138888888888  37.33154296875 12.614583333333334  L 32.84912109375 12.614583333333334  C 32.79052734375 11.836805555555554  32.5341796875 11.235243055555554  32.080078125 10.809895833333334  C 31.625976562500004 10.384548611111109  31.032714843750004 10.171875  30.30029296875 10.171875  C 29.46533203125 10.171875  28.817138671875 10.539496527777779  28.355712890625 11.274739583333334  C 27.894287109375 12.009982638888888  27.66357421875 13.088541666666666  27.66357421875 14.510416666666668  C 27.66357421875 15.09375  27.7001953125 15.604166666666668  27.7734375 16.041666666666668  C 27.846679687500004 16.479166666666668  27.978515625000004 16.901475694444443  28.1689453125 17.30859375  C 28.359375 17.715711805555557  28.648681640625004 18.028645833333332  29.036865234375 18.247395833333332  C 29.425048828125 18.466145833333332  29.90478515625 18.575520833333332  30.47607421875 18.575520833333332  C 31.19384765625 18.575520833333332  31.754150390625 18.344618055555557  32.156982421875 17.8828125  Z M 40.45166015625 19.505208333333332  C 40.67138671875 18.302083333333332  40.78125 16.424479166666668  40.78125 13.872395833333334  C 40.78125 11.356770833333334  40.667724609375 9.491319444444443  40.440673828125 8.276041666666666  C 40.213623046875 7.0607638888888875  39.7705078125 6.082465277777775  39.111328125 5.341145833333334  C 39.0234375 5.243923611111109  38.924560546875 5.158854166666666  38.814697265625 5.0859375  C 38.704833984375 5.013020833333334  38.54736328125 4.921875  38.34228515625 4.8125  C 38.13720703125001 4.703125  38.02001953125 4.636284722222221  37.99072265625 4.611979166666666  C 36.73095703125 3.8463541666666656  31.625976562500004 3.4635416666666656  22.67578125 3.4635416666666656  C 13.5205078125 3.4635416666666656  8.3203125 3.8463541666666656  7.0751953125 4.611979166666666  C 7.001953125 4.660590277777775  6.873779296875001 4.73046875  6.690673828125 4.821614583333334  C 6.507568359375 4.912760416666666  6.353759765625 4.997829861111109  6.229248046875 5.076822916666666  C 6.104736328125001 5.155815972222221  5.99853515625 5.243923611111109  5.91064453125 5.341145833333334  C 5.25146484375 6.0703125  4.81201171875 7.039496527777775  4.59228515625 8.248697916666666  C 4.37255859375 9.457899305555554  4.2626953125 11.332465277777779  4.2626953125 13.872395833333334  C 4.2626953125 16.400173611111114  4.37255859375 18.268663194444443  4.59228515625 19.477864583333332  C 4.81201171875 20.687065972222218  5.25146484375 21.662326388888886  5.91064453125 22.403645833333336  C 5.99853515625 22.500868055555554  6.1083984375 22.592013888888886  6.240234375 22.677083333333336  C 6.3720703125 22.76215277777778  6.522216796875001 22.84722222222222  6.690673828125 22.932291666666664  C 6.859130859375 23.017361111111114  6.9873046875 23.09027777777778  7.0751953125 23.151041666666664  C 7.719726562500001 23.552083333333336  9.473876953125 23.849826388888886  12.337646484375 24.044270833333336  C 15.201416015625 24.23871527777778  18.6474609375 24.3359375  22.67578125 24.3359375  C 31.611328125 24.3359375  36.71630859375 23.94097222222222  37.99072265625 23.151041666666664  C 38.06396484375 23.102430555555554  38.18847656250001 23.03559027777778  38.3642578125 22.950520833333336  C 38.54003906250001 22.865451388888886  38.690185546875 22.780381944444446  38.814697265625 22.6953125  C 38.939208984375 22.610243055555554  39.0380859375 22.513020833333336  39.111328125 22.403645833333336  C 39.78515625 21.674479166666664  40.23193359375 20.708333333333332  40.45166015625 19.505208333333332  Z M 0 0  L 45 0  L 45 28  L 0 28  L 0 0  Z " fill-rule="nonzero" fill="#000000" stroke="none" transform="matrix(1 0 0 1 105 851 )" />
  </g>
</svg>