<?xml version="1.0" encoding="utf-8"?>
<svg version="1.1" xmlns:xlink="http://www.w3.org/1999/xlink" width="33px" height="28px" xmlns="http://www.w3.org/2000/svg">
  <g transform="matrix(1 0 0 1 -66 -851 )">
    <path d="M 18.231026785714285 10.5234375  C 19.041294642857142 11.205729166666664  19.446428571428573 12.03125  19.446428571428573 13  C 19.446428571428573 13.270833333333332  19.56305803571429 13.50520833333333  19.796316964285715 13.703125  C 20.029575892857142 13.901041666666668  20.305803571428573 14  20.625 14  C 20.944196428571434 14  21.22042410714286 13.901041666666668  21.453683035714285 13.703125  C 21.686941964285715 13.50520833333333  21.803571428571427 13.270833333333332  21.803571428571427 13  C 21.803571428571427 11.479166666666664  21.171316964285715 10.182291666666664  19.906808035714285 9.109375  C 18.64229910714286 8.03645833333333  17.11383928571429 7.500000000000002  15.321428571428571 7.500000000000002  C 13.529017857142858 7.500000000000002  12.000558035714286 8.03645833333333  10.736049107142858 9.109375  C 9.471540178571429 10.182291666666664  8.839285714285715 11.479166666666664  8.839285714285714 13  C 8.839285714285715 13.270833333333332  8.955915178571429 13.50520833333333  9.189174107142858 13.703125  C 9.422433035714286 13.901041666666668  9.698660714285717 14  10.017857142857142 14  C 10.337053571428571 14  10.613281250000002 13.901041666666668  10.846540178571429 13.703125  C 11.079799107142858 13.50520833333333  11.196428571428571 13.270833333333332  11.196428571428571 13  C 11.196428571428571 12.03125  11.6015625 11.205729166666664  12.411830357142858 10.5234375  C 13.222098214285714 9.84114583333333  14.191964285714286 9.5  15.321428571428571 9.5  C 16.450892857142858 9.5  17.42075892857143 9.84114583333333  18.231026785714285 10.5234375  Z M 19.492466517857142 4.710937500000002  C 18.184988839285715 4.236979166666664  16.813058035714285 4.000000000000002  15.376674107142858 4.000000000000002  C 13.940290178571429 4.000000000000002  12.568359375 4.236979166666664  11.260881696428571 4.710937500000002  C 9.953404017857142 5.184895833333332  8.823939732142856 5.825520833333333  7.872488839285714 6.6328125  C 6.921037946428572 7.4401041666666625  6.166015625 8.3984375  5.607421875 9.507812499999998  C 5.048828125000001 10.617187500000002  4.76953125 11.78125  4.76953125 13  C 4.76953125 13.270833333333332  4.886160714285715 13.50520833333333  5.119419642857143 13.703125  C 5.352678571428572 13.901041666666668  5.628906250000001 14  5.948102678571429 14  C 6.2672991071428585 14  6.5435267857142865 13.901041666666668  6.776785714285714 13.703125  C 7.010044642857144 13.50520833333333  7.126674107142858 13.270833333333332  7.126674107142857 13  C 7.126674107142858 11.072916666666664  7.933872767857143 9.424479166666666  9.548270089285714 8.0546875  C 11.162667410714286 6.684895833333334  13.10546875 6  15.376674107142858 6  C 17.647879464285715 6  19.590680803571434 6.684895833333334  21.205078125 8.0546875  C 22.819475446428573 9.424479166666666  23.626674107142858 11.072916666666664  23.626674107142858 13  C 23.626674107142858 13.572916666666668  23.516183035714285 14.111979166666666  23.295200892857142 14.6171875  C 23.07421875 15.122395833333332  22.844029017857142 15.510416666666664  22.604631696428573 15.78125  C 22.365234375 16.052083333333332  22.000000000000004 16.427083333333332  21.508928571428573 16.90625  C 21.09151785714286 17.3125  20.772321428571427 17.640625  20.551339285714285 17.890625  C 20.330357142857142 18.140625  20.063337053571427 18.486979166666664  19.750279017857142 18.9296875  C 19.437220982142858 19.37239583333333  19.210100446428573 19.846354166666664  19.068917410714285 20.3515625  C 18.927734375 20.856770833333332  18.857142857142858 21.40625  18.857142857142858 22  C 18.857142857142858 23.104166666666668  18.396763392857142 24.046875  17.476004464285715 24.828125  C 16.555245535714285 25.609375  15.44419642857143 26  14.142857142857142 26  C 13.823660714285717 26  13.547433035714286 26.098958333333332  13.314174107142858 26.296875  C 13.080915178571429 26.494791666666668  12.964285714285714 26.729166666666668  12.964285714285714 27  C 12.964285714285714 27.270833333333332  13.080915178571429 27.505208333333332  13.314174107142858 27.703125  C 13.547433035714286 27.901041666666668  13.823660714285717 28  14.142857142857142 28  C 16.094866071428573 28  17.76143973214286 27.4140625  19.142578125 26.2421875  C 20.523716517857142 25.0703125  21.214285714285715 23.65625  21.214285714285715 22  C 21.214285714285715 21.572916666666668  21.260323660714285 21.1875  21.352399553571427 20.84375  C 21.444475446428573 20.5  21.60714285714286 20.16666666666667  21.840401785714285 19.84375  C 22.073660714285715 19.520833333333336  22.279296875 19.260416666666664  22.457310267857142 19.0625  C 22.63532366071429 18.864583333333336  22.91462053571429 18.583333333333332  23.295200892857142 18.21875  C 23.724888392857146 17.791666666666664  24.050223214285715 17.455729166666664  24.271205357142858 17.2109375  C 24.4921875 16.96614583333333  24.76227678571429 16.614583333333332  25.081473214285715 16.15625  C 25.400669642857146 15.697916666666666  25.630859375 15.210937499999998  25.772042410714285 14.6953125  C 25.913225446428573 14.1796875  25.983816964285715 13.61458333333333  25.983816964285715 13  C 25.983816964285715 11.78125  25.704520089285715 10.617187500000002  25.145926339285715 9.507812499999998  C 24.587332589285715 8.3984375  23.832310267857142 7.4401041666666625  22.880859375 6.6328125  C 21.92940848214286 5.825520833333333  20.799944196428573 5.184895833333332  19.492466517857142 4.710937500000002  Z M 0.22098214285714285 24.28125  L 10.883370535714286 15.234375  L 15.045200892857142 18.765625  L 4.3828125 27.8125  C 4.235491071428571 27.9375  4.057477678571429 28  3.8487723214285716 28  C 3.640066964285714 28  3.4620535714285716 27.9375  3.314732142857143 27.8125  L 0.22098214285714285 25.1875  C 0.07366071428571429 25.0625  0 24.911458333333332  0 24.734375  C 0 24.557291666666668  0.07366071428571429 24.40625  0.22098214285714285 24.28125  Z M 29.151227678571427 0  C 29.35993303571429 0  29.537946428571427 0.06250000000000133  29.685267857142858 0.1875000000000009  L 32.779017857142854 2.812500000000001  C 32.926339285714285 2.9375000000000004  33 3.088541666666664  33 3.2656250000000004  C 33 3.442708333333331  32.926339285714285 3.5989583333333326  32.779017857142854 3.7343749999999996  L 28.48828125 7.374999999999998  L 28.009486607142858 7.765625  L 26.702008928571427 8.875  C 25.891741071428573 7.281250000000002  24.694754464285715 5.937499999999999  23.111049107142858 4.843749999999999  L 24.786830357142858 3.421874999999999  L 28.598772321428573 0.1875000000000009  C 28.758370535714292 0.06250000000000133  28.942522321428577 0  29.151227678571427 0  Z " fill-rule="nonzero" fill="#000000" stroke="none" transform="matrix(1 0 0 1 66 851 )" />
  </g>
</svg>