<?xml version="1.0" encoding="utf-8"?>
<svg version="1.1" xmlns:xlink="http://www.w3.org/1999/xlink" width="39px" height="43px" xmlns="http://www.w3.org/2000/svg">
  <g transform="matrix(1 0 0 1 -181 -729 )">
    <path d="M 15.366406249999999 19.548978365384617  C 16.510677083333334 18.093249198717945  17.88854166666667 17.36538461538461  19.5 17.365384615384617  C 21.11145833333334 17.36538461538461  22.48932291666667 18.093249198717945  23.63359375 19.548978365384617  C 24.777864583333336 21.00470753205128  25.35 22.75761217948718  25.35 24.807692307692307  C 25.35 26.857772435897434  24.777864583333336 28.61067708333333  23.63359375 30.06640625  C 22.48932291666667 31.522135416666664  21.11145833333334 32.25  19.5 32.25  C 17.88854166666667 32.25  16.510677083333334 31.522135416666664  15.366406249999999 30.06640625  C 14.222135416666669 28.61067708333333  13.649999999999999 26.857772435897434  13.649999999999999 24.807692307692307  C 13.649999999999999 22.75761217948718  14.222135416666669 21.00470753205128  15.366406249999999 19.548978365384617  Z M 29.25 6.615384615384616  L 33.800000000000004 6.615384615384616  C 35.23541666666667 6.615384615384616  36.46093750000001 7.261418269230768  37.4765625 8.553485576923078  C 38.4921875 9.845552884615385  39.00000000000001 11.404647435897434  39 13.230769230769232  L 39 36.38461538461539  C 39.00000000000001 38.21073717948718  38.4921875 39.76983173076923  37.4765625 41.06189903846154  C 36.46093750000001 42.35396634615385  35.23541666666667 43  33.800000000000004 43  L 5.2 43  C 3.7645833333333334 43  2.5390625 42.35396634615385  1.5234375 41.06189903846154  C 0.5078125 39.76983173076923  0 38.21073717948718  0 36.38461538461539  L 0 13.230769230769232  C 0 11.404647435897434  0.5078125 9.845552884615385  1.5234375 8.553485576923078  C 2.5390625 7.261418269230768  3.7645833333333334 6.615384615384616  5.2 6.615384615384616  L 9.75 6.615384615384616  L 10.7859375 3.100961538461537  C 11.043229166666668 2.2568108974358965  11.513802083333335 1.5289463141025617  12.19765625 0.917367788461537  C 12.88151041666667 0.3057892628205171  13.582291666666668 0  14.299999999999999 0  L 24.7 0  C 25.417708333333337 0  26.118489583333336 0.3057892628205171  26.802343750000002 0.917367788461537  C 27.48619791666667 1.5289463141025617  27.956770833333334 2.2568108974358965  28.214062499999997 3.100961538461537  L 29.25 6.615384615384616  Z M 13.07109375 32.98647836538461  C 14.851822916666668 35.251903044871796  16.994791666666668 36.38461538461539  19.5 36.38461538461539  C 22.005208333333336 36.38461538461539  24.148177083333334 35.251903044871796  25.928906249999997 32.98647836538461  C 27.709635416666668 30.721053685897434  28.599999999999998 27.994791666666664  28.599999999999998 24.807692307692307  C 28.599999999999998 21.62059294871795  27.709635416666668 18.89433092948718  25.928906249999997 16.62890625  C 24.148177083333334 14.363481570512818  22.005208333333336 13.230769230769232  19.5 13.230769230769232  C 16.994791666666668 13.230769230769232  14.851822916666668 14.363481570512818  13.07109375 16.62890625  C 11.290364583333334 18.89433092948718  10.4 21.62059294871795  10.4 24.807692307692307  C 10.4 27.994791666666664  11.290364583333334 30.721053685897434  13.07109375 32.98647836538461  Z " fill-rule="nonzero" fill="#000000" stroke="none" transform="matrix(1 0 0 1 181 729 )" />
  </g>
</svg>