<?xml version="1.0" encoding="utf-8"?>
<svg version="1.1" xmlns:xlink="http://www.w3.org/1999/xlink" width="39px" height="42px" xmlns="http://www.w3.org/2000/svg">
  <g transform="matrix(1 0 0 1 -179 -731 )">
    <path d="M 15.366406249999999 19.094350961538463  C 16.510677083333334 17.67247596153846  17.88854166666667 16.961538461538456  19.5 16.961538461538463  C 21.11145833333334 16.961538461538456  22.48932291666667 17.67247596153846  23.63359375 19.094350961538463  C 24.777864583333336 20.51622596153846  25.35 22.228365384615383  25.35 24.23076923076923  C 25.35 26.233173076923073  24.777864583333336 27.945312499999996  23.63359375 29.3671875  C 22.48932291666667 30.7890625  21.11145833333334 31.5  19.5 31.5  C 17.88854166666667 31.5  16.510677083333334 30.7890625  15.366406249999999 29.3671875  C 14.222135416666669 27.945312499999996  13.649999999999999 26.233173076923073  13.649999999999999 24.23076923076923  C 13.649999999999999 22.228365384615383  14.222135416666669 20.51622596153846  15.366406249999999 19.094350961538463  Z M 29.25 6.461538461538462  L 33.800000000000004 6.461538461538462  C 35.23541666666667 6.461538461538462  36.46093750000001 7.092548076923077  37.4765625 8.35456730769231  C 38.4921875 9.616586538461538  39.00000000000001 11.139423076923075  39 12.923076923076923  L 39 35.53846153846154  C 39.00000000000001 37.32211538461539  38.4921875 38.84495192307693  37.4765625 40.10697115384615  C 36.46093750000001 41.36899038461539  35.23541666666667 42  33.800000000000004 42  L 5.2 42  C 3.7645833333333334 42  2.5390625 41.36899038461539  1.5234375 40.10697115384615  C 0.5078125 38.84495192307693  0 37.32211538461539  0 35.53846153846154  L 0 12.923076923076923  C 0 11.139423076923075  0.5078125 9.616586538461538  1.5234375 8.35456730769231  C 2.5390625 7.092548076923077  3.7645833333333334 6.461538461538462  5.2 6.461538461538462  L 9.75 6.461538461538462  L 10.7859375 3.0288461538461524  C 11.043229166666668 2.2043269230769225  11.513802083333335 1.4933894230769207  12.19765625 0.8960336538461524  C 12.88151041666667 0.2986778846153888  13.582291666666668 0  14.299999999999999 0  L 24.7 0  C 25.417708333333337 0  26.118489583333336 0.2986778846153888  26.802343750000002 0.8960336538461524  C 27.48619791666667 1.4933894230769207  27.956770833333334 2.2043269230769225  28.214062499999997 3.0288461538461524  L 29.25 6.461538461538462  Z M 13.07109375 32.21935096153846  C 14.851822916666668 34.43209134615385  16.994791666666668 35.53846153846154  19.5 35.53846153846154  C 22.005208333333336 35.53846153846154  24.148177083333334 34.43209134615385  25.928906249999997 32.21935096153846  C 27.709635416666668 30.006610576923073  28.599999999999998 27.34375  28.599999999999998 24.23076923076923  C 28.599999999999998 21.117788461538463  27.709635416666668 18.454927884615383  25.928906249999997 16.2421875  C 24.148177083333334 14.029447115384613  22.005208333333336 12.923076923076923  19.5 12.923076923076923  C 16.994791666666668 12.923076923076923  14.851822916666668 14.029447115384613  13.07109375 16.2421875  C 11.290364583333334 18.454927884615383  10.4 21.117788461538463  10.4 24.23076923076923  C 10.4 27.34375  11.290364583333334 30.006610576923073  13.07109375 32.21935096153846  Z " fill-rule="nonzero" fill="#000000" stroke="none" transform="matrix(1 0 0 1 179 731 )" />
  </g>
</svg>