<?xml version="1.0" encoding="utf-8"?>
<svg version="1.1" xmlns:xlink="http://www.w3.org/1999/xlink" width="24px" height="17px" xmlns="http://www.w3.org/2000/svg">
  <g transform="matrix(1 0 0 1 -48 -417 )">
    <path d="M 23.47767857142857 0.4914062500000004  C 23.825892857142858 0.6419270833333327  24 0.9031249999999996  24 1.2749999999999992  L 24 15.725000000000001  C 24 16.096875  23.825892857142858 16.358072916666668  23.47767857142857 16.50859375  C 23.361607142857146 16.55286458333333  23.250000000000004 16.575  23.142857142857142 16.575  C 22.901785714285715 16.575  22.70089285714286 16.490885416666668  22.54017857142857 16.32265625  L 17.142857142857142 10.970312499999999  L 17.142857142857142 13.175  C 17.142857142857142 14.228645833333331  16.765625 15.129557291666668  16.011160714285715 15.877734375  C 15.256696428571429 16.62591145833333  14.348214285714288 17  13.285714285714286 17  L 3.8571428571428577 17  C 2.7946428571428577 17  1.8861607142857144 16.62591145833333  1.1316964285714286 15.877734375  C 0.37723214285714285 15.129557291666668  0 14.228645833333331  0 13.175  L 0 3.8249999999999997  C 0 2.771354166666664  0.37723214285714285 1.8704427083333326  1.1316964285714286 1.1222656250000003  C 1.8861607142857144 0.3740885416666643  2.7946428571428577 0  3.8571428571428577 0  L 13.285714285714286 0  C 14.348214285714288 0  15.256696428571429 0.3740885416666643  16.011160714285715 1.1222656250000003  C 16.765625 1.8704427083333326  17.142857142857142 2.771354166666664  17.142857142857142 3.8249999999999997  L 17.142857142857142 6.016406249999999  L 22.54017857142857 0.6773437499999992  C 22.70089285714286 0.5091145833333327  22.901785714285715 0.4250000000000004  23.142857142857142 0.4250000000000004  C 23.250000000000004 0.4250000000000004  23.361607142857146 0.4471354166666639  23.47767857142857 0.4914062500000004  Z " fill-rule="nonzero" fill="#000000" stroke="none" transform="matrix(1 0 0 1 48 417 )" />
  </g>
</svg>