<?xml version="1.0" encoding="utf-8"?>
<svg version="1.1" xmlns:xlink="http://www.w3.org/1999/xlink" width="29px" height="28px" xmlns="http://www.w3.org/2000/svg">
  <g transform="matrix(1 0 0 1 -368 -851 )">
    <path d="M 13.167567567567568 11.118795315114335  C 13.481081081081081 10.723182747722621  13.922322322322323 10.525376464026772  14.49129129129129 10.525376464026772  C 14.862862862862862 10.525376464026772  15.205405405405404 10.619074177356387  15.518918918918919 10.806469604015616  L 19.385585585585584 13.117679866146123  C 20.093893893893895 13.534114147611078  20.732532532532534 14.039040713887339  21.3015015015015 14.632459564974901  L 23.844444444444445 17.287228109314  C 24.30890890890891 17.7661275329987  24.477277277277278 18.317902955939765  24.34954954954955 18.9425543781372  L 23.095495495495495 25.39208031232571  C 23.025825825825823 25.725227737497676  22.854554554554557 26.00371816322737  22.581681681681683 26.227551589514782  C 22.30880880880881 26.45138501580219  21.98658658658659 26.58412344301915  21.615015015015015 26.62576687116564  L 12.436036036036036 27.50027886224205  L 6.305105105105105 28  L 6.148348348348348 28  C 5.6954954954954955 28  5.303603603603603 27.854248001487264  4.972672672672672 27.562744004461795  C 4.641741741741742 27.271240007436326  4.476276276276276 26.917270868191117  4.476276276276276 26.500836586726155  C 4.476276276276276 26.11563487637107  4.633033033033033 25.78248745119911  4.946546546546546 25.501394311210262  C 5.26006006006006 25.22030117122142  5.637437437437438 25.053727458635432  6.078678678678679 25.001673173452314  L 10.607207207207207 24.50195203569437  L 2.804204204204204 24.50195203569437  C 2.3281281281281285 24.50195203569437  1.9246246246246246 24.345789180145008  1.5936936936936936 24.033463469046293  C 1.2627627627627627 23.721137757947574  1.108908908908909 23.351552333147424  1.1321321321321323 22.924707194645844  C 1.1553553553553555 22.518683770217514  1.3411411411411411 22.180330916527236  1.6894894894894894 21.909648633575014  C 2.037837837837838 21.638966350622795  2.4384384384384385 21.503625209146684  2.8912912912912914 21.503625209146684  L 10.58978978978979 21.488008923591746  L 1.5153153153153154 20.48856664807585  C 1.0392392392392393 20.436512362892735  0.6560560560560561 20.24391150771519  0.36576576576576575 19.910764082543224  C 0.07547547547547545 19.577616657371255  -0.03483483483483484 19.197620375534484  0.034834834834834835 18.770775237032908  C 0.1045045045045045 18.406395240751067  0.3048048048048048 18.10708310094813  0.6357357357357357 17.872838817624093  C 0.9666666666666667 17.638594534300058  1.346946946946947 17.521472392638035  1.7765765765765766 17.521472392638035  L 1.9507507507507509 17.521472392638035  L 10.328528528528528 18.45844952593419  L 4.215015015015015 16.99051868377022  C 3.773773773773774 16.88641011340398  3.413813813813814 16.670384829894033  3.135135135135135 16.342442833240376  C 2.8564564564564563 16.014500836586727  2.751951951951952 15.657928983082357  2.8216216216216217 15.272727272727272  C 2.8912912912912914 14.897936419408813  3.082882882882883 14.593418851087563  3.3963963963963963 14.359174567763523  C 3.7099099099099098 14.124930284439486  4.06986986986987 14.007808142777467  4.476276276276276 14.007808142777467  C 4.545945945945946 14.007808142777467  4.662062062062062 14.01821899981409  4.824624624624625 14.039040713887339  L 12.627627627627628 15.538204127161183  L 16.407207207207207 16.11600669269381  C 16.41881881881882 16.11600669269381  16.43623623623624 16.118609406952963  16.45945945945946 16.12381483547128  C 16.482682682682682 16.129020263989588  16.5001001001001 16.131622978248746  16.511711711711712 16.131622978248746  C 16.77877877877878 16.131622978248746  16.955855855855855 16.01189812232757  17.042942942942943 15.772448410485222  C 17.13003003003003 15.53299869864287  17.057457457457456 15.345603271983641  16.825225225225225 15.210262130507529  L 13.585585585585585 13.258226436140548  C 13.17917917917918 13.018776724298196  12.935335335335337 12.688232013385388  12.854054054054055 12.26659230340212  C 12.772772772772774 11.844952593418851  12.877277277277278 11.462353597322922  13.167567567567568 11.118795315114335  Z M 12.314114114114114 12.352481873954266  C 12.418618618618618 12.914668153931958  12.737937937937938 13.357129577988472  13.272072072072072 13.679866146123814  L 16.511711711711712 15.631901840490798  L 12.714714714714715 15.05409927495817  L 12.627627627627628 15.0228667038483  L 12.0006006006006 14.429447852760736  L 7.855255255255255 10.33798103736754  C 7.843643643643645 10.327570180330914  7.829129129129129 10.309351180516824  7.8117117117117125 10.283324037925265  C 7.7942942942942945 10.257296895333702  7.77977977977978 10.239077895519612  7.7681681681681685 10.228667038482989  C 7.48948948948949 9.905930470347649  7.382082082082082 9.541550474065811  7.445945945945946 9.13552704963748  C 7.509809809809811 8.729503625209146  7.727527527527529 8.396356200037179  8.099099099099098 8.136084774121583  C 8.45905905905906 7.8966350622792305  8.853853853853854 7.805540063208774  9.283483483483485 7.862799776910208  C 9.713113113113115 7.920059490611635  10.084684684684685 8.094441345975087  10.398198198198198 8.385945343000559  L 12.871471471471471 10.68153931957613  C 12.84824824824825 10.69195017661275  12.81921921921922 10.710169176426843  12.784384384384385 10.736196319018404  C 12.749549549549549 10.762223461609963  12.726326326326328 10.785647889942368  12.714714714714715 10.806469604015616  C 12.343143143143145 11.274958170663693  12.20960960960961 11.790295593976577  12.314114114114114 12.352481873954266  Z M 28.198798798798798 5.535973229224762  C 28.523923923923928 5.832682654768545  28.6980980980981 6.184049079754599  28.72132132132132 6.590072504182933  L 28.98258258258258 10.744004461795873  C 29.029029029029033 11.503997025469417  28.965165165165168 12.269195017661275  28.79099099099099 13.039598438371444  L 27.954954954954957 16.459564974902396  C 27.815615615615616 17.07380554006321  27.42662662662663 17.526677821156348  26.787987987987986 17.818181818181817  L 24.941741741741744 18.661461238148352  C 24.96496496496497 18.01598810187767  24.738538538538542 17.448596393381667  24.262462462462462 16.959286112660347  L 21.71951951951952 14.304517568321248  C 21.104104104104106 13.66945528908719  20.424824824824825 13.133296151701058  19.68168168168168 12.696040156162857  L 15.815015015015017 10.384829894032347  C 15.420220220220223 10.145380182189994  14.97897897897898 10.025655326268824  14.49129129129129 10.025655326268824  C 13.8990990990991 10.025655326268824  13.38818818818819 10.218256181446364  12.958558558558558 10.603457891801451  L 8.865465465465466 5.731176798661462  C 8.575175175175175 5.387618516452872  8.470670670670671 5.005019520356942  8.551951951951953 4.5833798103736765  C 8.633233233233234 4.161740100390408  8.871271271271272 3.8311953894775956  9.266066066066067 3.591745677635249  C 9.64924924924925 3.3627068228295225  10.064364364364366 3.2898308235731535  10.51141141141141 3.3731176798661453  C 10.958458458458459 3.456404536159137  11.32132132132132 3.664621676891612  11.600000000000001 3.9977691020635793  L 16.233033033033035 9.494701617401006  L 11.66966966966967 2.3892916899051855  C 11.425825825825825 2.0249116936233467  11.364864864864865 1.6345045547499524  11.486786786786787 1.2180702732849964  C 11.608708708708708 0.8016359918200404  11.884484484484485 0.49451570923963173  12.314114114114114 0.29670942554378277  C 12.720520520520521 0.1093139988845504  13.14144144144144 0.07808142777467886  13.576876876876875 0.20301171221416503  C 14.012312312312314 0.3279419966536543  14.346146146146147 0.5673917084960007  14.578378378378378 0.9213608477412167  L 18.775975975975975 7.480200780814278  L 16.407207207207207 2.217512548800892  C 16.233033033033035 1.8531325525190532  16.20690690690691 1.4679308421639718  16.32882882882883 1.0619074177356387  C 16.45075075075075 0.6558839933073055  16.70910910910911 0.3643799962818357  17.103903903903905 0.18739542665922926  C 17.533533533533536 -0.01041085703662592  17.974774774774776 -0.04164342814649746  18.42762762762763 0.09369771332961463  C 18.880480480480482 0.2290388548057236  19.205605605605605 0.49451570923963173  19.403003003003 0.8901282766313452  L 22.764564564564566 7.370886781929728  L 24.523723723723723 10.431678750697154  C 24.616616616616618 10.587841606246515  24.75015015015015 10.678936605316972  24.924324324324324 10.704963747908533  C 25.098498498498497 10.730990890500092  25.255255255255257 10.69195017661275  25.394594594594597 10.587841606246515  C 25.533933933933934 10.483733035880274  25.5977977977978 10.348391894404163  25.586186186186186 10.181818181818182  L 25.377177177177177 6.6837702175125475  C 25.353953953953955 6.256925079010966  25.504904904904908 5.88733965421082  25.83003003003003 5.5750139431121015  C 26.155155155155153 5.262688232013386  26.555755755755758 5.101319947945712  27.03183183183183 5.09090909090909  C 27.484684684684687 5.09090909090909  27.873673673673675 5.239263803680982  28.198798798798798 5.535973229224762  Z " fill-rule="nonzero" fill="#000000" stroke="none" transform="matrix(1 0 0 1 368 851 )" />
  </g>
</svg>