<?xml version="1.0" encoding="utf-8"?>
<svg version="1.1" xmlns:xlink="http://www.w3.org/1999/xlink" width="19px" height="19px" xmlns="http://www.w3.org/2000/svg">
  <defs>
    <filter x="48px" y="417px" width="19px" height="19px" filterUnits="userSpaceOnUse" id="filter2">
      <feOffset dx="1" dy="1" in="SourceAlpha" result="shadowOffsetInner" />
      <feGaussianBlur stdDeviation="2.5" in="shadowOffsetInner" result="shadowGaussian" />
      <feComposite in2="shadowGaussian" operator="atop" in="SourceAlpha" result="shadowComposite" />
      <feColorMatrix type="matrix" values="0 0 0 0 0  0 0 0 0 0  0 0 0 0 0  0 0 0 0.6980392156862745 0  " in="shadowComposite" />
    </filter>
    <g id="widget3">
      <path d="M 56.5 421  C 59.02 421  61 422.98  61 425.5  C 61 428.02  59.02 430  56.5 430  C 53.98 430  52 428.02  52 425.5  C 52 422.98  53.98 421  56.5 421  Z " fill-rule="nonzero" fill="#d9001b" stroke="none" />
      <path d="M 56.5 421.5  C 58.74 421.5  60.5 423.26  60.5 425.5  C 60.5 427.74  58.74 429.5  56.5 429.5  C 54.26 429.5  52.5 427.74  52.5 425.5  C 52.5 423.26  54.26 421.5  56.5 421.5  Z " stroke-width="1" stroke="#ffffff" fill="none" />
    </g>
  </defs>
  <g transform="matrix(1 0 0 1 -48 -417 )">
    <use xlink:href="#widget3" filter="url(#filter2)" />
    <use xlink:href="#widget3" />
  </g>
</svg>