<?xml version="1.0" encoding="utf-8"?>
<svg version="1.1" xmlns:xlink="http://www.w3.org/1999/xlink" width="38px" height="43px" xmlns="http://www.w3.org/2000/svg">
  <g transform="matrix(1 0 0 1 -292 -729 )">
    <path d="M 35 3.5786736020806256  L 35 14.314694408322497  C 36.03497023809524 14.314694408322497  36.67466517857143 14.664174252275682  37.204799107142854 15.363133940182054  C 37.734933035714285 16.062093628088427  38 16.905504984828784  38 17.893368010403123  C 38 18.881231035977457  37.734933035714285 19.724642392717815  37.204799107142854 20.423602080624185  C 36.67466517857143 21.122561768530556  36.03497023809524 21.472041612483743  35 21.472041612483743  L 35 32.20806241872562  C 35.285714285714285 33.17728651928912  35.0171130952381 34.016038144776765  34.479910714285715 34.724317295188555  C 33.942708333333336 35.432596445600346  33.30654761904762 35.78673602080624  32.57142857142857 35.78673602080624  C 26.67633928571429 29.319029042045944  20.936755952380956 25.777633289986994  15.352678571428571 25.162548764629392  C 14.532738095238097 25.51668833983528  13.889508928571429 26.13177286519289  13.422991071428571 27.00780234070221  C 12.956473214285715 27.883831816211526  12.737351190476193 28.82043779800606  12.765625 29.817620286085827  C 12.79389880952381 30.81480277416558  13.076636904761905 31.676853055916773  13.613839285714285 32.403771131339404  C 13.331101190476193 33.018855656697006  13.168526785714285 33.62928045080191  13.126116071428571 34.2350455136541  C 13.083705357142856 34.840810576506286  13.126116071428571 35.38133940182055  13.253348214285715 35.85663198959688  C 13.380580357142856 36.331924577373215  13.617373511904765 36.84449501517122  13.963727678571429 37.3943433029909  C 14.310081845238097 37.94419159081058  14.64936755952381 38.41016471608149  14.981584821428571 38.79226267880364  C 15.313802083333334 39.174360641525794  15.748511904761905 39.644993498049416  16.285714285714285 40.20416124837451  C 15.87574404761905 41.285218899003034  15.087611607142856 42.05873428695275  13.921316964285715 42.52470741222367  C 12.755022321428571 42.99068053749458  11.563988095238097 43.09785435630689  10.348214285714285 42.846228868660596  C 9.132440476190478 42.5946033810143  8.199404761904763 42.07737321196359  7.549107142857142 41.29453836150845  C 7.45014880952381 40.86584308625921  7.241629464285714 40.05039011703511  6.923549107142858 38.84817945383615  C 6.60546875 37.64596879063719  6.379278273809525 36.76527958387516  6.244977678571428 36.20611183355006  C 6.110677083333334 35.646944083224966  5.948102678571428 34.81751192024274  5.757254464285714 33.71781534460338  C 5.56640625 32.61811876896402  5.460379464285714 31.676853055916773  5.439174107142858 30.89401820546164  C 5.417968750000001 30.1111833550065  5.442708333333334 29.193216298222797  5.513392857142858 28.140117035110535  C 5.584077380952382 27.087017771998266  5.739583333333334 26.05721716514954  5.979910714285714 25.05071521456437  L 3.392857142857143 25.05071521456437  C 2.459821428571429 25.05071521456437  1.6610863095238098 24.612700476809707  0.9966517857142857 23.73667100130039  C 0.3322172619047619 22.860641525791067  0 21.807542262678805  0 20.57737321196359  L 0 15.209362808842652  C 0 13.97919375812744  0.3322172619047619 12.926094495015167  0.9966517857142857 12.05006501950585  C 1.6610863095238098 11.174035543996528  2.459821428571429 10.736020806241871  3.392857142857143 11  L 13.571428571428571 11  C 19.720982142857142 10.736020806241871  26.054315476190478 7.157347204161246  32.57142857142857 0  C 33.30654761904762 0  33.942708333333336 0.3541395752058907  34.479910714285715 1.0624187256176865  C 35.0171130952381 1.7706978760294725  35.285714285714285 2.609449501517119  35 3.5786736020806256  Z M 16.285714285714285 21.667750325097533  C 21.61532738095238 22.450585175552664  27.04389880952381 25.6285218899003  32 31.201560468140443  L 32 4.52925877763329  C 27.0014880952381 10.158214130905936  21.572916666666668 13.354789770264409  16.285714285714285 14.118985695708714  L 16.285714285714285 21.667750325097533  Z " fill-rule="nonzero" fill="#000000" stroke="none" transform="matrix(1 0 0 1 292 729 )" />
  </g>
</svg>