<?xml version="1.0" encoding="utf-8"?>
<svg version="1.1" xmlns:xlink="http://www.w3.org/1999/xlink" width="14px" height="20px" xmlns="http://www.w3.org/2000/svg">
  <g transform="matrix(1 0 0 1 -47 -370 )">
    <path d="M 12.6 18.109715796430933  L 12.6 2  L 1.4000000000000001 2  L 1.4000000000000001 18.109715796430933  L 6.0265625 12.742894910773298  L 7 11.619299405155319  L 7.973437500000001 12.742894910773298  L 12.6 18.109715796430933  Z M 1.26875 0  L 12.731250000000001 0  C 12.898958333333335 0  13.059375000000001 0.0396563119629878  13.2125 0.1189689358889634  C 13.453125 0.23353161489314544  13.64453125 0.414188147168979  13.78671875 0.6609385327164574  C 13.928906249999999 0.9076889182639336  14 1.180876845120069  14 1.4805023132848638  L 14 18.519497686715138  C 14 18.819123154879932  13.928906249999999 19.092311081736064  13.78671875 19.339061467283543  C 13.64453125 19.58581185283102  13.453125 19.76646838510685  13.2125 19.881031064111035  C 13.073958333333335 19.95153117426746  12.913541666666667 19.98678122934567  12.731250000000001 19.98678122934567  C 12.38125 19.98678122934567  12.078645833333335 19.845781009032827  11.823437499999999 19.56378056840714  L 7 13.95902181097158  L 2.1765624999999997 19.56378056840714  C 1.9140625 19.85459352280238  1.6114583333333334 20  1.26875 20  C 1.1010416666666667 20  0.9406249999999999 19.960343688037014  0.7875 19.881031064111035  C 0.546875 19.76646838510685  0.35546875 19.58581185283102  0.21328125 19.339061467283543  C 0.07109375 19.092311081736064  0 18.819123154879932  0 18.519497686715138  L 0 1.4805023132848638  C 0 1.180876845120069  0.07109375 0.9076889182639336  0.21328125 0.6609385327164574  C 0.35546875 0.414188147168979  0.546875 0.23353161489314544  0.7875 0.1189689358889634  C 0.9406249999999999 0.0396563119629878  1.1010416666666667 0  1.26875 0  Z " fill-rule="nonzero" fill="#000000" stroke="none" transform="matrix(1 0 0 1 47 370 )" />
  </g>
</svg>