<?xml version="1.0" encoding="utf-8"?>
<svg version="1.1" xmlns:xlink="http://www.w3.org/1999/xlink" width="18px" height="19px" xmlns="http://www.w3.org/2000/svg">
  <g transform="matrix(1 0 0 1 -8 -370 )">
    <path d="M 13.27734375 11.318359375  C 13.42578125 11.475043402777775  13.5 11.660590277777775  13.5 11.875  C 13.5 12.08940972222222  13.42578125 12.27495659722222  13.27734375 12.431640625  C 13.128906250000002 12.58832465277778  12.953125000000002 12.666666666666668  12.75 12.666666666666668  L 5.25 12.666666666666668  C 5.046875000000001 12.666666666666668  4.871093750000001 12.58832465277778  4.72265625 12.431640625  C 4.57421875 12.27495659722222  4.5 12.08940972222222  4.5 11.875  C 4.5 11.660590277777775  4.57421875 11.475043402777775  4.72265625 11.318359375  C 4.871093750000001 11.16167534722222  5.046875000000001 11.083333333333332  5.25 11.083333333333332  L 12.75 11.083333333333332  C 12.953125000000002 11.083333333333332  13.128906250000002 11.16167534722222  13.27734375 11.318359375  Z M 7.060546875 5.2138671875  C 7.353515625 5.523111979166666  7.5 5.89626736111111  7.5 6.333333333333334  C 7.5 6.770399305555554  7.353515625 7.143554687499998  7.060546875 7.452799479166666  C 6.767578125 7.762044270833334  6.4140625 7.916666666666666  6 7.916666666666666  C 5.585937500000001 7.916666666666666  5.232421875 7.762044270833334  4.939453125 7.452799479166666  C 4.646484375 7.143554687499998  4.5 6.770399305555554  4.5 6.333333333333334  C 4.5 5.89626736111111  4.646484375 5.523111979166666  4.939453125 5.2138671875  C 5.232421875 4.904622395833334  5.585937500000001 4.75  6 4.75  C 6.4140625 4.75  6.767578125 4.904622395833334  7.060546875 5.2138671875  Z M 13.060546875 5.2138671875  C 13.353515625 5.523111979166666  13.5 5.89626736111111  13.5 6.333333333333334  C 13.5 6.770399305555554  13.353515625 7.143554687499998  13.060546875 7.452799479166666  C 12.767578125 7.762044270833334  12.414062500000002 7.916666666666666  12 7.916666666666666  C 11.585937500000002 7.916666666666666  11.232421875 7.762044270833334  10.939453125 7.452799479166666  C 10.646484375 7.143554687499998  10.5 6.770399305555554  10.5 6.333333333333334  C 10.5 5.89626736111111  10.646484375 5.523111979166666  10.939453125 5.2138671875  C 11.232421875 4.904622395833334  11.585937500000002 4.75  12 4.75  C 12.414062500000002 4.75  12.767578125 4.904622395833334  13.060546875 5.2138671875  Z M 15.90234375 12.573893229166668  C 16.30078125 11.5966796875  16.5 10.572048611111112  16.5 9.5  C 16.5 8.427951388888888  16.30078125 7.4033203125  15.90234375 6.426106770833334  C 15.50390625 5.448893229166666  14.970703125 4.607747395833334  14.302734375 3.902669270833334  C 13.634765625 3.197591145833334  12.837890625 2.634765625  11.912109375 2.214192708333334  C 10.986328125 1.793619791666666  10.015625 1.583333333333334  9 1.583333333333334  C 7.984375 1.583333333333334  7.013671875 1.793619791666666  6.087890625 2.214192708333334  C 5.162109375 2.634765625  4.365234375 3.197591145833334  3.697265625 3.902669270833334  C 3.029296875 4.607747395833334  2.49609375 5.448893229166666  2.09765625 6.426106770833334  C 1.69921875 7.4033203125  1.5 8.427951388888888  1.5 9.5  C 1.5 10.572048611111112  1.69921875 11.5966796875  2.09765625 12.573893229166668  C 2.49609375 13.551106770833332  3.029296875 14.392252604166666  3.697265625 15.097330729166666  C 4.365234375 15.802408854166666  5.162109375 16.365234375  6.087890625 16.785807291666664  C 7.013671875 17.206380208333336  7.984375 17.416666666666664  9 17.416666666666664  C 10.015625 17.416666666666664  10.986328125 17.206380208333336  11.912109375 16.785807291666664  C 12.837890625 16.365234375  13.634765625 15.802408854166666  14.302734375 15.097330729166666  C 14.970703125 14.392252604166666  15.50390625 13.551106770833332  15.90234375 12.573893229166668  Z M 16.79296875 4.7314453125  C 17.597656249999996 6.186957465277776  18 7.776475694444442  18 9.5  C 18 11.223524305555555  17.597656249999996 12.81304253472222  16.79296875 14.2685546875  C 15.988281250000002 15.724066840277779  14.896484375 16.87651909722222  13.517578125 17.725911458333336  C 12.138671875000002 18.575303819444446  10.6328125 19  9 19  C 7.367187500000001 19  5.861328125 18.575303819444446  4.482421875 17.725911458333336  C 3.1035156250000004 16.87651909722222  2.01171875 15.724066840277779  1.20703125 14.2685546875  C 0.40234374999999994 12.81304253472222  0 11.223524305555555  0 9.5  C 0 7.776475694444442  0.40234374999999994 6.186957465277776  1.20703125 4.7314453125  C 2.01171875 3.275933159722222  3.1035156250000004 2.123480902777776  4.482421875 1.274088541666666  C 5.861328125 0.4246961805555539  7.367187500000001 0  9 0  C 10.6328125 0  12.138671875000002 0.4246961805555539  13.517578125 1.274088541666666  C 14.896484375 2.123480902777776  15.988281250000002 3.275933159722222  16.79296875 4.7314453125  Z " fill-rule="nonzero" fill="#000000" stroke="none" transform="matrix(1 0 0 1 8 370 )" />
  </g>
</svg>