<?xml version="1.0" encoding="utf-8"?>
<svg version="1.1" xmlns:xlink="http://www.w3.org/1999/xlink" width="26px" height="31px" xmlns="http://www.w3.org/2000/svg">
  <g transform="matrix(1 0 0 1 -4 -104 )">
    <path d="M 7.950892857142858 1.2282366071428568  C 9.55654761904762 0.4094122023809522  11.239583333333334 0  13 0  C 14.760416666666668 0  16.443452380952383 0.4094122023809522  18.049107142857142 1.2282366071428568  C 19.65476190476191 2.047061011904761  21.037946428571427 3.1484375  22.198660714285715 4.53236607142857  C 23.359375000000004 5.916294642857143  24.283110119047624 7.565476190476188  24.969866071428573 9.479910714285714  C 25.656622023809526 11.394345238095235  26 13.401041666666666  26 15.5  C 26 17.587425595238095  25.659040178571427 19.588355654761905  24.977120535714285 21.502790178571427  C 24.295200892857142 23.417224702380956  23.373883928571427 25.06640625  22.213169642857142 26.450334821428573  C 21.052455357142858 27.834263392857142  19.669270833333336 28.938523065476186  18.063616071428573 29.76311383928571  C 16.45796130952381 30.587704613095237  14.770089285714285 31  13 31  C 11.229910714285714 31  9.542038690476192 30.590587797619047  7.936383928571428 29.771763392857142  C 6.330729166666667 28.952938988095237  4.9499627976190474 27.848679315476186  3.794084821428571 26.458984375  C 2.638206845238095 25.06928943452381  1.716889880952381 23.420107886904763  1.0301339285714286 21.511439732142858  C 0.34337797619047616 19.60277157738095  0 17.598958333333332  0 15.5  C 0 13.401041666666666  0.34337797619047616 11.394345238095235  1.0301339285714286 9.479910714285714  C 1.716889880952381 7.565476190476188  2.640625 5.916294642857143  3.801339285714286 4.53236607142857  C 4.962053571428571 3.1484375  6.345238095238096 2.047061011904761  7.950892857142858 1.2282366071428568  Z M 17.541294642857142 17.71428571428571  C 19.862723214285715 17.71428571428571  21.342633928571427 19.599888392857142  21.981026785714285 23.37109375  C 23.422247023809526 21.00688244047619  24.142857142857142 18.383184523809522  24.142857142857142 15.5  C 24.142857142857142 13.700892857142856  23.847842261904763 11.98251488095238  23.2578125 10.34486607142857  C 22.66778273809524 8.707217261904761  21.87462797619048 7.294456845238092  20.878348214285715 6.10658482142857  C 19.882068452380956 4.9187127976190474  18.69717261904762 3.973028273809522  17.323660714285715 3.26953125  C 15.950148809523812 2.5660342261904745  14.508928571428571 2.2142857142857135  13 2.2142857142857135  C 11.491071428571429 2.2142857142857135  10.049851190476192 2.5660342261904745  8.676339285714286 3.26953125  C 7.302827380952381 3.973028273809522  6.117931547619048 4.9187127976190474  5.121651785714286 6.10658482142857  C 4.125372023809525 7.294456845238092  3.332217261904762 8.707217261904761  2.7421875 10.34486607142857  C 2.1521577380952386 11.98251488095238  1.857142857142857 13.700892857142856  1.857142857142857 15.5  C 1.857142857142857 18.383184523809522  2.5777529761904763 21.00688244047619  4.018973214285714 23.37109375  C 4.657366071428571 19.599888392857142  6.137276785714286 17.71428571428571  8.458705357142858 17.71428571428571  C 9.725818452380954 19.19047619047619  11.239583333333334 19.928571428571427  13 19.928571428571427  C 14.760416666666668 19.928571428571427  16.274181547619047 19.19047619047619  17.541294642857142 17.71428571428571  Z M 16.939174107142858 16.875279017857142  C 18.02734375 15.577845982142856  18.571428571428573 14.012276785714286  18.571428571428573 12.17857142857143  C 18.571428571428573 10.34486607142857  18.02734375 8.779296875  16.939174107142858 7.4818638392857135  C 15.851004464285715 6.18443080357143  14.537946428571429 5.5357142857142865  13 5.5357142857142865  C 11.462053571428571 5.5357142857142865  10.148995535714286 6.18443080357143  9.060825892857142 7.4818638392857135  C 7.97265625 8.779296875  7.428571428571428 10.34486607142857  7.428571428571428 12.17857142857143  C 7.428571428571428 14.012276785714286  7.97265625 15.577845982142856  9.060825892857142 16.875279017857142  C 10.148995535714286 18.172712053571427  11.462053571428571 18.821428571428573  13 18.821428571428573  C 14.537946428571429 18.821428571428573  15.851004464285715 18.172712053571427  16.939174107142858 16.875279017857142  Z " fill-rule="nonzero" fill="#000000" stroke="none" transform="matrix(1 0 0 1 4 104 )" />
  </g>
</svg>