<?xml version="1.0" encoding="utf-8"?>
<svg version="1.1" xmlns:xlink="http://www.w3.org/1999/xlink" width="18px" height="18px" xmlns="http://www.w3.org/2000/svg">
  <g transform="matrix(1 0 0 1 -81 -370 )">
    <path d="M 11.12109375 11.121093750000002  C 11.70703125 10.535156249999998  12 9.828125  12 9  C 12 8.171874999999998  11.70703125 7.464843749999999  11.12109375 6.878906250000001  C 10.53515625 6.29296875  9.828125000000002 6.000000000000001  9 6.000000000000001  C 8.171875 6.000000000000001  7.46484375 6.29296875  6.87890625 6.878906250000001  C 6.29296875 7.464843749999999  6 8.171874999999998  6 9  C 6 9.828125  6.29296875 10.535156249999998  6.87890625 11.121093750000002  C 7.46484375 11.70703125  8.171875 12.000000000000002  9 12.000000000000002  C 9.828125000000002 12.000000000000002  10.53515625 11.70703125  11.12109375 11.121093750000002  Z M 17.90625 7.447265624999999  C 17.96875 7.529296875000001  18 7.62109375  18 7.722656250000001  L 18 10.324218749999998  C 18 10.417968750000002  17.96875 10.5078125  17.90625 10.593750000000002  C 17.84375 10.679687499999998  17.765625 10.730468749999998  17.671875 10.746093749999998  L 15.50390625 11.07421875  C 15.355468750000002 11.49609375  15.203125000000002 11.8515625  15.046875 12.140625000000002  C 15.320312500000002 12.53125  15.73828125 13.070312499999998  16.30078125 13.7578125  C 16.37890625 13.8515625  16.41796875 13.94921875  16.41796875 14.05078125  C 16.41796875 14.152343750000002  16.3828125 14.2421875  16.3125 14.3203125  C 16.1015625 14.609375000000002  15.71484375 15.031250000000002  15.15234375 15.5859375  C 14.58984375 16.140625  14.222656250000002 16.41796875  14.05078125 16.41796875  C 13.95703125 16.41796875  13.855468750000002 16.3828125  13.74609375 16.3125  L 12.12890625 15.046875  C 11.78515625 15.2265625  11.429687500000002 15.375  11.0625 15.4921875  C 10.937500000000002 16.5546875  10.82421875 17.28125  10.72265625 17.671875  C 10.66796875 17.890625  10.52734375 18  10.30078125 18  L 7.69921875 18  C 7.589843750000001 18  7.494140625 17.966796875  7.412109375 17.900390625  C 7.330078125 17.833984375  7.285156250000001 17.75  7.27734375 17.6484375  L 6.94921875 15.4921875  C 6.566406250000001 15.3671875  6.214843750000001 15.22265625  5.89453125 15.05859375  L 4.2421875 16.3125  C 4.1640625 16.3828125  4.06640625 16.41796875  3.94921875 16.41796875  C 3.83984375 16.41796875  3.7421875000000004 16.375  3.65625 16.2890625  C 2.671875 15.3984375  2.02734375 14.7421875  1.72265625 14.3203125  C 1.6679687500000002 14.2421875  1.640625 14.152343750000002  1.640625 14.05078125  C 1.640625 13.95703125  1.6718750000000002 13.867187499999998  1.734375 13.78125  C 1.8515625 13.6171875  2.05078125 13.357421875  2.33203125 13.001953125000002  C 2.61328125 12.646484374999998  2.82421875 12.371093749999996  2.96484375 12.175781250000002  C 2.75390625 11.785156249999998  2.5937500000000004 11.398437499999998  2.484375 11.015625000000002  L 0.33984375 10.699218750000002  C 0.23828125000000003 10.68359375  0.15625 10.634765625  0.09375 10.552734374999998  C 0.03125 10.470703125000002  0 10.378906249999998  0 10.277343750000002  L 0 7.675781249999999  C 0 7.582031250000001  0.03125 7.492187499999999  0.09375 7.406250000000001  C 0.15625 7.3203125  0.23046875000000003 7.26953125  0.31640625 7.253906249999999  L 2.49609375 6.92578125  C 2.60546875 6.56640625  2.7578125 6.20703125  2.953125 5.847656249999999  C 2.640625 5.402343750000001  2.22265625 4.863281249999999  1.69921875 4.230468749999999  C 1.62109375 4.136718750000001  1.58203125 4.04296875  1.58203125 3.949218749999999  C 1.58203125 3.871093749999999  1.6171875 3.7812499999999973  1.6875 3.679687500000001  C 1.890625 3.398437500000001  2.275390625 2.9785156249999982  2.841796875 2.419921874999999  C 3.4082031250000004 1.8613281249999984  3.7773437500000004 1.58203125  3.94921875 1.58203125  C 4.05078125 1.58203125  4.152343750000001 1.6210937499999991  4.25390625 1.6992187499999993  L 5.87109375 2.953125  C 6.214843750000001 2.773437499999999  6.570312500000001 2.625000000000001  6.9375 2.507812499999999  C 7.062500000000001 1.4453124999999991  7.17578125 0.7187499999999984  7.27734375 0.32812499999999933  C 7.332031250000001 0.10937499999999911  7.472656250000001 0  7.69921875 0  L 10.30078125 0  C 10.410156250000002 0  10.505859375 0.033203124999998446  10.587890625 0.09960937499999933  C 10.669921875 0.16601562499999822  10.71484375 0.2499999999999991  10.72265625 0.3515625  L 11.05078125 2.507812499999999  C 11.43359375 2.632812499999999  11.78515625 2.77734375  12.10546875 2.941406250000001  L 13.76953125 1.6875  C 13.83984375 1.6171875  13.93359375 1.58203125  14.05078125 1.58203125  C 14.152343750000002 1.58203125  14.25 1.6210937499999991  14.34375 1.6992187499999993  C 15.3515625 2.62890625  15.99609375 3.292968750000001  16.27734375 3.69140625  C 16.33203125 3.75390625  16.359375 3.8398437499999982  16.359375 3.949218749999999  C 16.359375 4.04296875  16.328125000000004 4.132812499999997  16.265625 4.21875  C 16.1484375 4.382812500000001  15.94921875 4.642578124999997  15.66796875 4.998046875000001  C 15.38671875 5.353515625  15.17578125 5.628906249999999  15.03515625 5.824218750000001  C 15.238281250000002 6.21484375  15.3984375 6.597656249999998  15.515625 6.972656249999999  L 17.66015625 7.300781250000001  C 17.76171875 7.316406249999999  17.84375 7.365234374999998  17.90625 7.447265624999999  Z " fill-rule="nonzero" fill="#000000" stroke="none" transform="matrix(1 0 0 1 81 370 )" />
  </g>
</svg>