<?xml version="1.0" encoding="utf-8"?>
<svg version="1.1" xmlns:xlink="http://www.w3.org/1999/xlink" width="24px" height="29px" xmlns="http://www.w3.org/2000/svg">
  <g transform="matrix(1 0 0 1 -171 -17 )">
    <path d="M 16.767857142857142 25.51255580357143  C 18.24107142857143 24.568545386904766  19.45089285714286 23.287388392857142  20.39732142857143 21.66908482142857  C 20.20089285714286 19.996837797619047  19.810267857142858 18.607793898809522  19.22544642857143 17.501953125  C 18.640625 16.396112351190478  17.81696428571429 15.756882440476188  16.754464285714285 15.58426339285714  C 16.15625 16.382626488095234  15.444196428571429 17.005673363095234  14.61830357142857 17.453404017857142  C 13.792410714285717 17.901134672619047  12.919642857142858 18.125  12 18.125  C 11.080357142857142 18.125  10.207589285714286 17.901134672619047  9.381696428571429 17.453404017857142  C 8.555803571428573 17.005673363095234  7.84375 16.382626488095234  7.245535714285715 15.58426339285714  C 6.1830357142857135 15.756882440476188  5.359375 16.396112351190478  4.774553571428571 17.501953125  C 4.189732142857143 18.607793898809522  3.7991071428571432 19.996837797619047  3.6026785714285716 21.66908482142857  C 4.549107142857143 23.287388392857142  5.758928571428571 24.568545386904766  7.232142857142857 25.51255580357143  C 8.705357142857142 26.456566220238095  10.294642857142858 26.92857142857143  12 26.92857142857143  C 13.705357142857144 26.92857142857143  15.294642857142858 26.456566220238095  16.767857142857142 25.51255580357143  Z M 15.636160714285714 14.750837053571429  C 16.640625 13.537109375  17.142857142857142 12.072544642857144  17.142857142857142 10.357142857142856  C 17.142857142857142 8.641741071428571  16.640625 7.177176339285714  15.636160714285714 5.963448660714286  C 14.63169642857143 4.749720982142856  13.419642857142858 4.142857142857144  12 4.142857142857144  C 10.580357142857142 4.142857142857144  9.368303571428571 4.749720982142856  8.363839285714285 5.963448660714286  C 7.359375 7.177176339285714  6.857142857142857 8.641741071428571  6.857142857142857 10.357142857142856  C 6.857142857142857 12.072544642857144  7.359375 13.537109375  8.363839285714285 14.750837053571429  C 9.368303571428571 15.96456473214286  10.580357142857142 16.57142857142857  12 16.57142857142857  C 13.419642857142858 16.57142857142857  14.63169642857143 15.96456473214286  15.636160714285714 14.750837053571429  Z M 23.049107142857142 8.868303571428571  C 23.683035714285715 10.659226190476188  24 12.536458333333332  24 14.5  C 24 16.463541666666664  23.683035714285715 18.33807663690476  23.049107142857142 20.123604910714285  C 22.415178571428577 21.90913318452381  21.564732142857146 23.451915922619047  20.497767857142858 24.751953125  C 19.430803571428573 26.05199032738095  18.15625 27.08500744047619  16.674107142857142 27.851004464285715  C 15.191964285714288 28.617001488095237  13.63392857142857 29  12 29  C 10.375 29  8.821428571428573 28.617001488095237  7.339285714285715 27.851004464285715  C 5.857142857142858 27.08500744047619  4.580357142857142 26.0546875  3.5089285714285716 24.760044642857142  C 2.4375 23.465401785714285  1.5848214285714286 21.922619047619047  0.9508928571428571 20.13169642857143  C 0.3169642857142857 18.34077380952381  0 16.463541666666664  0 14.5  C 0 12.536458333333332  0.3169642857142857 10.659226190476188  0.9508928571428571 8.868303571428571  C 1.5848214285714286 7.07738095238095  2.4375 5.534598214285714  3.5089285714285716 4.239955357142856  C 4.580357142857142 2.9453125  5.857142857142858 1.9149925595238089  7.339285714285715 1.1489955357142851  C 8.821428571428573 0.38299851190476175  10.375 0  12 0  C 13.625 0  15.17857142857143 0.38299851190476175  16.660714285714285 1.1489955357142851  C 18.142857142857146 1.9149925595238089  19.419642857142858 2.9453125  20.49107142857143 4.239955357142856  C 21.562500000000004 5.534598214285714  22.415178571428577 7.07738095238095  23.049107142857142 8.868303571428571  Z " fill-rule="nonzero" fill="#000000" stroke="none" transform="matrix(1 0 0 1 171 17 )" />
  </g>
</svg>