<?xml version="1.0" encoding="utf-8"?>
<svg version="1.1" xmlns:xlink="http://www.w3.org/1999/xlink" width="17px" height="18px" xmlns="http://www.w3.org/2000/svg">
  <g transform="matrix(1 0 0 1 -149 -370 )">
    <path d="M 15.760416666666668 13.448863636363635  C 16.586805555555554 13.687499999999996  17 13.977272727272727  17 14.318181818181817  L 17 16.772727272727273  C 17 17.113636363636363  16.586805555555554 17.40340909090909  15.760416666666668 17.642045454545453  C 14.934027777777779 17.88068181818182  13.930555555555557 18  12.75 18  L 4.25 18  C 3.0694444444444446 18  2.0659722222222223 17.88068181818182  1.2395833333333335 17.642045454545453  C 0.4131944444444444 17.40340909090909  0 17.113636363636363  0 16.772727272727273  L 0 14.318181818181817  C 0 13.977272727272727  0.4131944444444444 13.687499999999996  1.2395833333333335 13.448863636363635  C 2.0659722222222223 13.210227272727275  3.0694444444444446 13.090909090909092  4.25 13.090909090909092  L 12.75 13.090909090909092  C 13.930555555555557 13.090909090909092  14.934027777777779 13.210227272727275  15.760416666666668 13.448863636363635  Z M 15.760416666666668 6.903409090909092  C 16.586805555555554 7.1420454545454515  17 7.431818181818182  17 7.772727272727272  L 17 10.227272727272727  C 17 10.568181818181818  16.586805555555554 10.857954545454545  15.760416666666668 11.096590909090908  C 14.934027777777779 11.335227272727272  13.930555555555557 11.454545454545455  12.75 11.454545454545455  L 4.25 11.454545454545455  C 3.0694444444444446 11.454545454545455  2.0659722222222223 11.335227272727272  1.2395833333333335 11.096590909090908  C 0.4131944444444444 10.857954545454545  0 10.568181818181818  0 10.227272727272727  L 0 7.772727272727272  C 0 7.431818181818182  0.4131944444444444 7.1420454545454515  1.2395833333333335 6.903409090909092  C 2.0659722222222223 6.664772727272727  3.0694444444444446 6.545454545454546  4.25 6.545454545454546  L 12.75 6.545454545454546  C 13.930555555555557 6.545454545454546  14.934027777777779 6.664772727272727  15.760416666666668 6.903409090909092  Z M 15.760416666666668 0.35795454545454564  C 16.586805555555554 0.5965909090909081  17 0.8863636363636356  17 1.2272727272727282  L 17 3.6818181818181825  C 17 4.022727272727272  16.586805555555554 4.312499999999998  15.760416666666668 4.551136363636363  C 14.934027777777779 4.789772727272726  13.930555555555557 4.909090909090908  12.75 4.909090909090908  L 4.25 4.909090909090908  C 3.0694444444444446 4.909090909090908  2.0659722222222223 4.789772727272726  1.2395833333333335 4.551136363636363  C 0.4131944444444444 4.312499999999998  0 4.022727272727272  0 3.6818181818181825  L 0 1.2272727272727282  C 0 0.8863636363636356  0.4131944444444444 0.5965909090909081  1.2395833333333335 0.35795454545454564  C 2.0659722222222223 0.11931818181818121  3.0694444444444446 0  4.25 0  L 12.75 0  C 13.930555555555557 0  14.934027777777779 0.11931818181818121  15.760416666666668 0.35795454545454564  Z " fill-rule="nonzero" fill="#000000" stroke="none" transform="matrix(1 0 0 1 149 370 )" />
  </g>
</svg>