<?xml version="1.0" encoding="utf-8"?>
<svg version="1.1" xmlns:xlink="http://www.w3.org/1999/xlink" width="15px" height="18px" xmlns="http://www.w3.org/2000/svg">
  <g transform="matrix(1 0 0 1 -116 -370 )">
    <path d="M 14.752604166666666 7.128605769230769  C 14.917534722222223 7.265624999999998  15 7.427884615384613  15 7.615384615384617  L 15 9  C 15 10.59375  14.35980902777778 11.98016826923077  13.079427083333334 13.159254807692308  C 11.79904513888889 14.338341346153845  10.21701388888889 15.014423076923077  8.333333333333334 15.1875  L 8.333333333333334 16.615384615384617  L 11.666666666666666 16.615384615384617  C 11.89236111111111 16.615384615384617  12.08767361111111 16.68389423076923  12.252604166666666 16.82091346153846  C 12.417534722222223 16.957932692307693  12.500000000000002 17.12019230769231  12.5 17.307692307692307  C 12.500000000000002 17.495192307692307  12.417534722222223 17.657451923076923  12.252604166666666 17.794471153846153  C 12.08767361111111 17.931490384615387  11.89236111111111 18  11.666666666666666 18  L 3.333333333333333 18  C 3.107638888888889 18  2.9123263888888893 17.931490384615387  2.747395833333333 17.794471153846153  C 2.5824652777777777 17.657451923076923  2.5 17.495192307692307  2.5 17.307692307692307  C 2.5 17.12019230769231  2.5824652777777777 16.957932692307693  2.747395833333333 16.82091346153846  C 2.9123263888888893 16.68389423076923  3.107638888888889 16.615384615384617  3.333333333333333 16.615384615384617  L 6.666666666666666 16.615384615384617  L 6.666666666666666 15.1875  C 4.782986111111112 15.014423076923077  3.200954861111111 14.338341346153845  1.9205729166666667 13.159254807692308  C 0.6401909722222222 11.98016826923077  0 10.59375  0 9  L 0 7.615384615384617  C 0 7.427884615384613  0.08246527777777778 7.265624999999998  0.24739583333333334 7.128605769230769  C 0.4123263888888889 6.991586538461538  0.607638888888889 6.9230769230769225  0.8333333333333333 6.9230769230769225  C 1.059027777777778 6.9230769230769225  1.254340277777778 6.991586538461538  1.4192708333333333 7.128605769230769  C 1.5842013888888888 7.265624999999998  1.6666666666666665 7.427884615384613  1.6666666666666665 7.615384615384617  L 1.6666666666666665 9  C 1.6666666666666665 10.334134615384613  2.2374131944444446 11.475360576923075  3.37890625 12.423677884615383  C 4.520399305555555 13.37199519230769  5.894097222222222 13.846153846153845  7.5 13.846153846153845  C 9.105902777777779 13.846153846153845  10.479600694444445 13.37199519230769  11.62109375 12.423677884615383  C 12.762586805555557 11.475360576923075  13.333333333333332 10.334134615384613  13.333333333333332 9  L 13.333333333333332 7.615384615384617  C 13.333333333333332 7.427884615384613  13.415798611111112 7.265624999999998  13.580729166666666 7.128605769230769  C 13.745659722222223 6.991586538461538  13.940972222222223 6.9230769230769225  14.166666666666666 6.9230769230769225  C 14.392361111111114 6.9230769230769225  14.587673611111112 6.991586538461538  14.752604166666666 7.128605769230769  Z M 10.442708333333334 1.0168269230769225  C 11.258680555555555 1.6947115384615374  11.666666666666666 2.5096153846153837  11.666666666666666 3.4615384615384612  L 11.666666666666666 9  C 11.666666666666666 9.951923076923077  11.258680555555555 10.766826923076922  10.442708333333334 11.444711538461538  C 9.62673611111111 12.122596153846153  8.645833333333332 12.461538461538462  7.5 12.461538461538462  C 6.354166666666668 12.461538461538462  5.37326388888889 12.122596153846153  4.557291666666666 11.444711538461538  C 3.741319444444445 10.766826923076922  3.333333333333333 9.951923076923077  3.333333333333333 9  L 3.333333333333333 3.4615384615384612  C 3.333333333333333 2.5096153846153837  3.741319444444445 1.6947115384615374  4.557291666666666 1.0168269230769225  C 5.37326388888889 0.3389423076923095  6.354166666666668 0  7.5 0  C 8.645833333333332 0  9.62673611111111 0.3389423076923095  10.442708333333334 1.0168269230769225  Z " fill-rule="nonzero" fill="#000000" stroke="none" transform="matrix(1 0 0 1 116 370 )" />
  </g>
</svg>