<?xml version="1.0" encoding="utf-8"?>
<svg version="1.1" xmlns:xlink="http://www.w3.org/1999/xlink" width="16px" height="15px" xmlns="http://www.w3.org/2000/svg">
  <g transform="matrix(1 0 0 1 -45 -292 )">
    <path d="M 15.965909090909092 11.622869318181818  C 15.988636363636363 11.672585227272727  16 11.747159090909088  16 11.84659090909091  C 16 12.038352272727272  15.962121212121213 12.288707386363637  15.886363636363637 12.59765625  C 15.810606060606062 12.906605113636363  15.731060606060607 13.149857954545453  15.647727272727273 13.327414772727272  C 15.488636363636363 13.682528409090908  15.026515151515154 14.058948863636363  14.261363636363637 14.456676136363637  C 13.549242424242426 14.818892045454545  12.84469696969697 15  12.147727272727273 15  C 11.943181818181818 15  11.742424242424244 14.987571022727272  11.545454545454545 14.962713068181818  C 11.34848484848485 14.937855113636365  11.13068181818182 14.89346590909091  10.892045454545455 14.829545454545455  C 10.653409090909092 14.765625  10.475378787878789 14.714133522727273  10.357954545454545 14.675071022727273  C 10.240530303030305 14.636008522727272  10.030303030303031 14.563210227272727  9.727272727272727 14.456676136363637  C 9.424242424242426 14.350142045454545  9.238636363636365 14.28622159090909  9.170454545454545 14.264914772727273  C 8.428030303030305 14.016335227272728  7.765151515151516 13.72159090909091  7.181818181818182 13.380681818181818  C 6.21969696969697 12.819602272727272  5.21969696969697 12.052556818181818  4.181818181818182 11.079545454545455  C 3.143939393939394 10.106534090909088  2.325757575757576 9.169034090909092  1.7272727272727273 8.267045454545455  C 1.3636363636363635 7.720170454545454  1.0492424242424243 7.09872159090909  0.7840909090909091 6.402698863636364  C 0.7613636363636364 6.338778409090907  0.6931818181818182 6.164772727272726  0.5795454545454546 5.880681818181818  C 0.4659090909090909 5.596590909090908  0.3882575757575758 5.39950284090909  0.3465909090909091 5.289417613636364  C 0.30492424242424243 5.179332386363635  0.25 5.012428977272727  0.18181818181818182 4.788707386363636  C 0.11363636363636363 4.564985795454543  0.0662878787878788 4.360795454545453  0.03977272727272727 4.176136363636364  C 0.013257575757575756 3.991477272727271  0 3.8032670454545454  0 3.611505681818181  C 0 2.95809659090909  0.19318181818181818 2.2975852272727257  0.5795454545454546 1.6299715909090906  C 1.003787878787879 0.9126420454545431  1.4053030303030303 0.4794034090909094  1.7840909090909092 0.3302556818181812  C 1.9734848484848486 0.25213068181818066  2.2329545454545454 0.17755681818181657  2.5625 0.1065340909090906  C 2.8920454545454546 0.03551136363636298  3.159090909090909 0  3.3636363636363638 0  C 3.46969696969697 0  3.5492424242424248 0.010653409090909394  3.602272727272727 0.031960227272726516  C 3.7386363636363638 0.07457386363636409  3.9393939393939394 0.34446022727272707  4.204545454545454 0.8416193181818188  C 4.287878787878788 0.9765624999999978  4.401515151515152 1.168323863636362  4.545454545454546 1.4169034090909094  C 4.6893939393939394 1.6654829545454537  4.821969696969697 1.8909801136363642  4.943181818181818 2.093394886363636  C 5.0643939393939394 2.295809659090909  5.181818181818182 2.4857954545454537  5.295454545454546 2.6633522727272734  C 5.318181818181818 2.691761363636362  5.384469696969697 2.7805397727272734  5.494318181818182 2.9296875  C 5.604166666666668 3.0788352272727266  5.685606060606061 3.2049005681818175  5.738636363636363 3.3078835227272734  C 5.791666666666667 3.4108664772727257  5.818181818181818 3.512073863636362  5.818181818181818 3.611505681818181  C 5.818181818181818 3.753551136363635  5.7102272727272725 3.9311079545454546  5.494318181818182 4.144176136363636  C 5.278409090909091 4.357244318181818  5.043560606060606 4.5525568181818175  4.7897727272727275 4.730113636363636  C 4.535984848484849 4.907670454545452  4.301136363636363 5.095880681818182  4.0852272727272725 5.294744318181818  C 3.8693181818181817 5.493607954545454  3.7613636363636362 5.656960227272727  3.7613636363636362 5.784801136363636  C 3.7613636363636362 5.848721590909091  3.7803030303030307 5.928622159090909  3.8181818181818183 6.024502840909091  C 3.8560606060606064 6.120383522727273  3.888257575757576 6.1931818181818175  3.914772727272727 6.242897727272727  C 3.9412878787878793 6.292613636363635  3.9943181818181817 6.377840909090909  4.073863636363637 6.498579545454545  C 4.153409090909091 6.619318181818182  4.196969696969697 6.686789772727273  4.204545454545454 6.700994318181818  C 4.78030303030303 7.67400568181818  5.4393939393939394 8.508522727272727  6.181818181818182 9.204545454545455  C 6.924242424242425 9.90056818181818  7.81439393939394 10.518465909090908  8.852272727272727 11.058238636363637  C 8.867424242424242 11.065340909090907  8.93939393939394 11.106178977272728  9.068181818181818 11.18075284090909  C 9.196969696969697 11.255326704545455  9.287878787878789 11.305042613636362  9.340909090909092 11.329900568181818  C 9.393939393939394 11.354758522727272  9.471590909090908 11.38494318181818  9.573863636363637 11.420454545454545  C 9.676136363636363 11.455965909090908  9.761363636363637 11.47372159090909  9.829545454545455 11.47372159090909  C 9.965909090909092 11.47372159090909  10.140151515151516 11.372514204545455  10.352272727272727 11.170099431818182  C 10.56439393939394 10.96768465909091  10.765151515151517 10.747514204545453  10.954545454545455 10.509588068181818  C 11.143939393939394 10.27166193181818  11.352272727272727 10.051491477272728  11.579545454545455 9.849076704545455  C 11.806818181818182 9.646661931818182  11.996212121212123 9.545454545454545  12.147727272727273 9.545454545454545  C 12.25378787878788 9.545454545454545  12.361742424242426 9.570312499999998  12.471590909090908 9.62002840909091  C 12.581439393939394 9.669744318181817  12.715909090909092 9.746093749999998  12.875 9.849076704545455  C 13.034090909090908 9.952059659090907  13.12878787878788 10.014204545454545  13.159090909090908 10.035511363636363  C 13.34848484848485 10.142045454545455  13.551136363636363 10.25213068181818  13.767045454545455 10.365767045454545  C 13.982954545454545 10.479403409090907  14.22348484848485 10.60369318181818  14.488636363636363 10.738636363636363  C 14.75378787878788 10.873579545454545  14.958333333333336 10.980113636363635  15.102272727272727 11.058238636363637  C 15.632575757575758 11.30681818181818  15.920454545454545 11.49502840909091  15.965909090909092 11.622869318181818  Z " fill-rule="nonzero" fill="#000000" stroke="none" transform="matrix(1 0 0 1 45 292 )" />
  </g>
</svg>