<?xml version="1.0" encoding="utf-8"?>
<svg version="1.1" xmlns:xlink="http://www.w3.org/1999/xlink" width="18px" height="19px" xmlns="http://www.w3.org/2000/svg">
  <g transform="matrix(1 0 0 1 -414 -764 )">
    <path d="M 17.77734375 0.23502604166666596  C 17.92578125 0.39171006944444187  18 0.5772569444444419  18 0.791666666666666  L 18 18.208333333333336  C 18 18.422743055555554  17.92578125 18.608289930555554  17.77734375 18.764973958333336  C 17.628906250000004 18.92165798611111  17.453125000000004 19  17.25 19  L 0.75 19  C 0.546875 19  0.37109375 18.92165798611111  0.22265625 18.764973958333336  C 0.07421875 18.608289930555554  0 18.422743055555554  0 18.208333333333336  L 0 0.791666666666666  C 0 0.5772569444444419  0.07421875 0.39171006944444187  0.22265625 0.23502604166666596  C 0.37109375 0.07834201388888795  0.546875 0  0.75 0  L 17.25 0  C 17.453125000000004 0  17.628906250000004 0.07834201388888795  17.77734375 0.23502604166666596  Z " fill-rule="nonzero" fill="#ffff00" stroke="none" transform="matrix(1 0 0 1 414 764 )" />
  </g>
</svg>