<?xml version="1.0" encoding="utf-8"?>
<svg version="1.1" xmlns:xlink="http://www.w3.org/1999/xlink" width="39px" height="35px" xmlns="http://www.w3.org/2000/svg">
  <g transform="matrix(1 0 0 1 -738 -7 )">
    <path d="M 38.08080808080808 26.16161616161616  C 38.69360269360269 26.711560044893375  39 27.379349046015708  39 28.164983164983166  C 39 28.95061728395062  38.69360269360269 29.61840628507295  38.08080808080808 30.168350168350166  L 33.61616161616161 34.17508417508417  C 33.00336700336701 34.725028058361396  32.25925925925926 35  31.383838383838384 35  C 30.508417508417512 35  29.76430976430977 34.725028058361396  29.151515151515152 34.17508417508417  L 19.5 25.513468013468017  L 9.84848484848485 34.17508417508417  C 9.235690235690237 34.725028058361396  8.491582491582491 35  7.616161616161616 35  C 6.740740740740741 35  5.996632996632997 34.725028058361396  5.383838383838384 34.17508417508417  L 0.9191919191919192 30.168350168350166  C 0.30639730639730667 29.61840628507295  0 28.95061728395062  0 28.164983164983166  C 0 27.379349046015708  0.30639730639730667 26.711560044893375  0.9191919191919192 26.16161616161616  L 10.570707070707071 17.5  L 0.9191919191919192 8.838383838383837  C 0.30639730639730667 8.288439955106618  0 7.6206509539842875  0 6.835016835016835  C 0 6.049382716049382  0.30639730639730667 5.381593714927043  0.9191919191919192 4.831649831649833  L 5.383838383838384 0.824915824915825  C 5.996632996632997 0.27497194163860705  6.740740740740741 0  7.616161616161616 0  C 8.491582491582491 0  9.235690235690237 0.27497194163860705  9.84848484848485 0.824915824915825  L 19.5 9.486531986531988  L 29.151515151515152 0.824915824915825  C 29.76430976430977 0.27497194163860705  30.508417508417512 0  31.383838383838384 0  C 32.25925925925926 0  33.00336700336701 0.27497194163860705  33.61616161616161 0.824915824915825  L 38.08080808080808 4.831649831649833  C 38.69360269360269 5.381593714927043  39 6.049382716049382  39 6.835016835016835  C 39 7.6206509539842875  38.69360269360269 8.288439955106618  38.08080808080808 8.838383838383837  L 28.429292929292927 17.5  L 38.08080808080808 26.16161616161616  Z " fill-rule="nonzero" fill="#000000" stroke="none" transform="matrix(1 0 0 1 738 7 )" />
  </g>
</svg>