<?xml version="1.0" encoding="utf-8"?>
<svg version="1.1" xmlns:xlink="http://www.w3.org/1999/xlink" width="35px" height="39px" xmlns="http://www.w3.org/2000/svg">
  <g transform="matrix(1 0 0 1 -73 -736 )">
    <path d="M 34.42274305555556 15.4453125  C 34.80758101851852 15.742187499999996  35 16.093749999999996  35 16.500000000000004  L 35 19.5  C 35 22.953125  33.50622106481482 25.95703125  30.518663194444446 28.51171875  C 27.531105324074076 31.066406249999996  23.839699074074076 32.53125  19.444444444444446 32.90625  L 19.444444444444446 36  L 27.22222222222222 36  C 27.74884259259259 36  28.20457175925926 36.1484375  28.58940972222222 36.4453125  C 28.97424768518519 36.7421875  29.16666666666667 37.09375  29.166666666666668 37.5  C 29.16666666666667 37.90625  28.97424768518519 38.2578125  28.58940972222222 38.5546875  C 28.20457175925926 38.85156250000001  27.74884259259259 39  27.22222222222222 39  L 7.777777777777778 39  C 7.251157407407407 39  6.795428240740741 38.85156250000001  6.410590277777778 38.5546875  C 6.025752314814814 38.2578125  5.833333333333333 37.90625  5.833333333333333 37.5  C 5.833333333333333 37.09375  6.025752314814814 36.7421875  6.410590277777778 36.4453125  C 6.795428240740741 36.1484375  7.251157407407407 36  7.777777777777778 36  L 15.555555555555555 36  L 15.555555555555555 32.90625  C 11.160300925925926 32.53125  7.4688946759259265 31.066406249999996  4.481336805555555 28.51171875  C 1.4937789351851851 25.95703125  0 22.953125  0 19.5  L 0 16.500000000000004  C 0 16.093749999999996  0.19241898148148148 15.742187499999996  0.5772569444444444 15.4453125  C 0.9620949074074074 15.1484375  1.4178240740740744 14.999999999999998  1.9444444444444444 14.999999999999998  C 2.471064814814815 14.999999999999998  2.9267939814814814 15.1484375  3.311631944444444 15.4453125  C 3.6964699074074074 15.742187499999996  3.888888888888889 16.093749999999996  3.888888888888889 16.500000000000004  L 3.888888888888889 19.5  C 3.888888888888889 22.390624999999996  5.220630787037038 24.863281249999996  7.884114583333333 26.917968749999996  C 10.54759837962963 28.972656249999996  13.752893518518519 29.999999999999996  17.5 29.999999999999996  C 21.247106481481485 29.999999999999996  24.45240162037037 28.972656249999996  27.115885416666668 26.917968749999996  C 29.779369212962965 24.863281249999996  31.11111111111111 22.390624999999996  31.11111111111111 19.5  L 31.11111111111111 16.500000000000004  C 31.11111111111111 16.093749999999996  31.303530092592595 15.742187499999996  31.688368055555554 15.4453125  C 32.07320601851852 15.1484375  32.52893518518519 14.999999999999998  33.05555555555556 14.999999999999998  C 33.58217592592593 14.999999999999998  34.037905092592595 15.1484375  34.42274305555556 15.4453125  Z M 24.366319444444446 2.2031249999999987  C 26.27025462962963 3.671874999999998  27.22222222222222 5.437499999999998  27 7.499999999999999  L 27 19.5  C 27.22222222222222 21.5625  26.27025462962963 23.328124999999996  24.366319444444446 24.796875  C 22.46238425925926 26.265625  20.17361111111111 27  17.5 27  C 14.826388888888891 27  12.537615740740744 26.265625  10.633680555555555 24.796875  C 8.729745370370372 23.328124999999996  7.777777777777778 21.5625  8 19.5  L 8 7.499999999999999  C 7.777777777777778 5.437499999999998  8.729745370370372 3.671874999999998  10.633680555555555 2.2031249999999987  C 12.537615740740744 0.7343750000000039  14.826388888888891 0  17.5 0  C 20.17361111111111 0  22.46238425925926 0.7343750000000039  24.366319444444446 2.2031249999999987  Z " fill-rule="nonzero" fill="#000000" stroke="none" transform="matrix(1 0 0 1 73 736 )" />
  </g>
</svg>