<?xml version="1.0" encoding="utf-8"?>
<svg version="1.1" xmlns:xlink="http://www.w3.org/1999/xlink" width="41px" height="39px" xmlns="http://www.w3.org/2000/svg">
  <g transform="matrix(1 0 0 1 -70 -736 )">
    <path d="M 7.209117221418235 19.5  C 7.209117221418235 20.328125  7.357452966714906 21.2109375  7.654124457308249 22.1484375  L 4.657742402315485 24.515624999999996  C 3.8270622286541247 22.90625  3.4117221418234442 21.234375  3.4117221418234442 19.5  L 3.4117221418234442 16.500000000000004  C 3.4117221418234442 16.093749999999996  3.599614085865895 15.742187499999996  3.975397973950796 15.4453125  C 4.3511818620356975 15.1484375  4.796189097925712 14.999999999999998  5.310419681620839 14.999999999999998  C 5.8246502653159675 14.999999999999998  6.269657501205982 15.1484375  6.645441389290883 15.4453125  C 7.021225277375784 15.742187499999996  7.209117221418235 16.093749999999996  7.209117221418235 16.500000000000004  L 7.209117221418235 19.5  Z M 41 7.499999999999999  C 41 7.7031249999999964  40.90110950313556 7.8828124999999964  40.70332850940666 8.0390625  L 29.993487698986975 16.500000000000004  L 29.993487698986975 19.5  C 29.993487698986975 21.5625  29.063917028461173 23.328124999999996  27.20477568740955 24.796875  C 25.345634346357937 26.265625  23.110709117221415 27  20.5 27  C 19.412204534491078 27  18.334298118668595 26.851562500000004  17.266280752532563 26.554687500000004  L 14.41823444283647 28.804687500000004  C 16.336710082006753 29.601562500000004  18.36396526772793 29.999999999999996  20.5 29.999999999999996  C 24.158948383984566 29.999999999999996  27.288832609744333 28.972656249999996  29.889652677279308 26.917968749999996  C 32.49047274481428 24.863281249999996  33.79088277858177 22.390624999999996  33.79088277858177 19.5  L 33.79088277858177 16.500000000000004  C 33.79088277858177 16.093749999999996  33.97877472262422 15.742187499999996  34.35455861070912 15.4453125  C 34.730342498794016 15.1484375  35.17534973468403 14.999999999999998  35.689580318379164 14.999999999999998  C 36.203810902074295 14.999999999999998  36.64881813796431 15.1484375  37.0246020260492 15.4453125  C 37.400385914134105 15.742187499999996  37.58827785817655 16.093749999999996  37.58827785817655 16.500000000000004  L 37.58827785817655 19.5  C 37.58827785817655 22.953125  36.12964302942596 25.95703125  33.21237337192475 28.51171875  C 30.295103714423544 31.066406249999996  26.690545103714424 32.53125  22.398697539797393 32.90625  L 22.398697539797393 36  L 29.993487698986975 36  C 30.50771828268211 36  30.952725518572123 36.1484375  31.32850940665702 36.4453125  C 31.704293294741923 36.7421875  31.892185238784368 37.09375  31.892185238784368 37.5  C 31.892185238784368 37.90625  31.704293294741923 38.2578125  31.32850940665702 38.5546875  C 30.952725518572123 38.85156250000001  30.50771828268211 39  29.993487698986975 39  L 11.006512301013025 39  C 10.492281717317896 39  10.047274481427884 38.85156250000001  9.671490593342982 38.5546875  C 9.29570670525808 38.2578125  9.10781476121563 37.90625  9.10781476121563 37.5  C 9.10781476121563 37.09375  9.29570670525808 36.7421875  9.671490593342982 36.4453125  C 10.047274481427884 36.1484375  10.492281717317896 36  11.006512301013025 36  L 18.601302460202607 36  L 18.601302460202607 32.90625  C 16.129040038591416 32.703125  13.805113362276893 32.0703125  11.629522431259044 31.0078125  L 4.094066570188134 36.9609375  C 3.896285576459238 37.1171875  3.668837433671009 37.1953125  3.4117221418234442 37.1953125  C 3.1546068499758806 37.1953125  2.927158707187651 37.1171875  2.7293777134587556 36.9609375  L 0.29667149059334297 35.0390625  C 0.09889049686444773 34.88281249999999  0 34.703125  0 34.5  C 0 34.296875  0.09889049686444773 34.1171875  0.29667149059334297 33.9609375  L 36.90593342981187 5.039062499999998  C 37.103714423540765 4.882812499999999  37.331162566329 4.804687500000002  37.58827785817655 4.804687500000002  C 37.84539315002412 4.804687500000002  38.072841292812356 4.882812499999999  38.27062228654124 5.039062499999998  L 40.70332850940666 6.960937499999998  C 40.90110950313556 7.117187499999997  41 7.296874999999998  41 7.499999999999999  Z M 25.973589001447177 1.3828124999999982  C 27.605282199710565 2.3046874999999973  28.75735648818138 3.4921875000000018  29.429811866859623 4.945312499999998  L 11 19.5  L 11 7.499999999999999  C 11.006512301013025 5.437499999999998  11.936082971538832 3.671874999999998  13.795224312590449 2.2031249999999987  C 15.654365653642067 0.7343750000000039  17.88929088277858 0  20.5 0  C 22.51736613603473 0  24.341895803183792 0.4609375000000038  25.973589001447177 1.3828124999999982  Z " fill-rule="nonzero" fill="#000000" stroke="none" transform="matrix(1 0 0 1 70 736 )" />
  </g>
</svg>